{"glyphs":{"0":{"ha":743,"x_min":47,"x_max":693,"o":"m 421 981 q 559 939 497 981 q 657 810 621 897 q 693 593 693 722 q 638 258 693 393 q 497 57 583 122 q 317 -8 411 -8 q 179 33 240 -8 q 83 160 118 75 q 47 374 47 246 q 101 712 47 575 q 241 915 156 849 q 421 981 326 981 m 410 881 q 296 829 351 881 q 203 664 240 778 q 165 375 165 550 q 211 160 165 229 q 328 92 257 92 q 442 142 385 92 q 537 306 499 193 q 575 590 575 418 q 528 810 575 739 q 410 881 481 881 z "},"1":{"ha":743,"x_min":11,"x_max":635,"o":"m 453 975 q 481 967 469 975 q 493 946 493 958 l 404 100 l 611 100 q 630 90 625 100 q 635 63 635 81 q 600 0 635 0 l 35 0 q 16 10 21 0 q 11 38 11 19 q 46 100 11 100 l 288 100 l 367 849 l 117 807 q 100 824 106 807 q 94 863 94 840 q 100 892 94 883 q 124 904 106 900 l 453 975 z "},"2":{"ha":743,"x_min":31,"x_max":676,"o":"m 404 981 q 603 924 531 981 q 676 772 676 867 q 651 640 676 699 q 564 514 625 582 l 189 100 l 589 100 q 608 90 603 100 q 613 63 613 81 q 578 0 613 0 l 58 0 q 40 26 49 0 q 31 72 31 51 q 33 85 31 82 l 463 560 q 556 754 556 663 q 513 847 556 813 q 396 881 471 881 q 296 865 338 881 q 214 825 254 849 q 181 810 186 810 q 157 835 171 810 q 143 876 143 860 q 188 928 143 904 q 296 967 233 953 q 404 981 358 981 z "},"3":{"ha":743,"x_min":56,"x_max":646,"o":"m 390 981 q 577 927 508 981 q 646 769 646 874 q 600 628 646 686 q 482 543 554 569 l 481 538 q 587 463 543 521 q 631 317 631 404 q 577 131 631 204 q 445 25 524 58 q 289 -8 367 -8 q 140 7 224 -8 q 56 61 56 22 q 61 127 56 111 q 76 143 67 143 q 135 117 82 142 q 289 92 189 92 q 442 144 374 92 q 510 317 510 196 q 460 433 510 399 q 319 467 411 467 l 272 467 q 253 476 258 467 q 249 504 249 486 q 283 565 249 565 l 324 565 q 440 599 394 565 q 507 678 486 632 q 528 761 528 724 q 494 845 528 810 q 376 881 460 881 q 278 870 318 881 q 203 844 239 860 q 172 835 178 835 q 147 861 161 835 q 133 906 133 888 q 178 942 133 925 q 284 970 222 960 q 390 981 346 981 z "},"4":{"ha":743,"x_min":6,"x_max":697,"o":"m 604 975 q 635 967 626 975 q 643 944 643 960 l 579 332 l 674 332 q 692 322 688 332 q 697 294 697 313 q 663 232 697 232 l 568 232 l 547 28 q 534 6 546 14 q 503 -3 522 -3 l 471 -3 q 440 4 449 -3 q 432 28 432 11 l 453 232 l 31 232 q 13 253 21 232 q 6 294 6 274 q 10 318 6 314 l 533 956 q 582 975 550 975 l 604 975 m 504 776 l 146 332 l 464 332 l 510 774 l 504 776 z "},"5":{"ha":743,"x_min":58,"x_max":646,"o":"m 622 972 q 641 963 636 972 q 646 935 646 953 q 611 872 646 872 l 308 872 l 260 586 l 332 586 q 548 526 457 586 q 639 335 639 467 q 583 131 639 207 q 445 23 528 54 q 272 -8 363 -8 q 135 7 211 -8 q 58 61 58 22 q 64 127 58 111 q 79 143 69 143 q 138 117 85 142 q 282 92 190 92 q 395 117 340 92 q 485 195 450 143 q 519 322 519 247 q 460 444 519 403 q 289 486 401 486 l 171 486 q 143 494 151 486 q 135 517 135 501 l 201 931 q 251 972 207 972 l 622 972 z "},"6":{"ha":743,"x_min":51,"x_max":646,"o":"m 574 975 q 601 951 592 975 q 611 904 611 926 q 599 886 611 892 q 360 734 456 829 q 217 517 264 639 q 408 563 300 563 q 579 496 513 563 q 646 318 646 429 q 601 148 646 222 q 480 33 556 74 q 314 -7 404 -7 q 117 66 183 -7 q 51 274 51 139 q 153 635 51 476 q 385 885 256 794 q 574 975 514 975 m 364 463 q 185 415 274 463 q 172 346 176 375 q 168 281 168 317 q 215 135 168 176 q 332 93 261 93 q 422 117 376 93 q 497 188 467 140 q 528 304 528 235 q 481 424 528 385 q 364 463 435 463 z "},"7":{"ha":743,"x_min":86,"x_max":724,"o":"m 703 972 q 717 951 710 972 q 724 910 724 931 q 719 886 724 897 l 217 19 q 160 -3 203 -3 l 143 -3 q 100 1 114 -3 q 86 18 86 6 q 93 39 86 26 l 582 872 l 143 872 q 124 882 129 872 q 119 910 119 892 q 154 972 119 972 l 703 972 z "},"8":{"ha":743,"x_min":46,"x_max":668,"o":"m 425 981 q 600 926 532 981 q 668 771 668 871 q 624 619 668 679 q 510 529 579 560 q 615 451 578 497 q 651 321 651 406 q 606 138 651 213 q 484 28 560 64 q 318 -8 408 -8 q 121 54 196 -8 q 46 238 46 117 q 92 416 46 339 q 229 528 139 493 q 160 601 186 556 q 135 708 135 646 q 174 856 135 794 q 280 949 214 918 q 425 981 346 981 m 414 881 q 297 840 343 881 q 251 718 251 799 q 272 646 251 674 q 326 601 293 618 q 413 567 358 585 q 514 649 476 603 q 551 760 551 696 q 513 851 551 821 q 414 881 475 881 m 318 486 q 205 389 243 444 q 167 251 167 333 q 213 133 167 175 q 329 92 258 92 q 428 116 382 92 q 503 188 474 140 q 532 304 532 236 q 509 383 532 353 q 453 431 486 414 q 361 469 419 449 l 318 486 z "},"9":{"ha":743,"x_min":96,"x_max":690,"o":"m 428 981 q 624 908 558 981 q 690 700 690 835 q 588 338 690 497 q 357 89 486 179 q 168 -1 228 -1 q 140 23 150 -1 q 131 69 131 47 q 143 88 131 82 q 382 240 286 144 q 525 457 478 335 q 333 411 442 411 q 163 478 229 411 q 96 656 96 544 q 141 826 96 751 q 262 940 186 900 q 428 981 338 981 m 410 881 q 320 857 365 881 q 244 786 275 833 q 214 669 214 739 q 260 550 214 589 q 378 511 307 511 q 557 558 468 511 q 569 628 565 599 q 574 693 574 657 q 527 839 574 797 q 410 881 481 881 z "},"\u0000":{"ha":0,"x_min":0,"x_max":0,"o":""},"\r":{"ha":333,"x_min":0,"x_max":0,"o":""}," ":{"ha":333,"x_min":0,"x_max":0,"o":""},"A":{"ha":851,"x_min":-32,"x_max":785,"o":"m 496 975 q 550 953 544 975 l 783 39 q 785 25 785 33 q 724 -3 785 -3 l 713 -3 q 658 19 664 -3 l 600 247 l 192 247 l 89 19 q 32 -3 79 -3 l 25 -3 q -32 19 -32 -3 q -25 40 -32 26 l 399 953 q 456 975 408 975 l 496 975 m 461 847 q 432 767 444 796 l 242 353 l 574 353 l 472 767 q 464 847 464 799 l 461 847 z "},"Á":{"ha":851,"x_min":-32,"x_max":785,"o":"m 0 0 m 496 975 q 550 953 544 975 l 783 39 q 785 25 785 33 q 724 -3 785 -3 l 713 -3 q 658 19 664 -3 l 600 247 l 192 247 l 89 19 q 32 -3 79 -3 l 25 -3 q -32 19 -32 -3 q -25 40 -32 26 l 399 953 q 456 975 408 975 l 496 975 m 461 847 q 432 767 444 796 l 242 353 l 574 353 l 472 767 q 464 847 464 799 l 461 847 m 608 1263 q 674 1246 674 1263 q 660 1222 674 1238 q 583 1140 646 1206 q 526 1083 583 1140 q 494 1065 514 1071 q 453 1058 475 1058 q 422 1071 422 1058 q 441 1111 422 1081 q 518 1226 460 1142 q 553 1254 532 1246 q 608 1263 575 1263 z "},"Ă":{"ha":851,"x_min":-32,"x_max":785,"o":"m 0 0 m 496 975 q 550 953 544 975 l 783 39 q 785 25 785 33 q 724 -3 785 -3 l 713 -3 q 658 19 664 -3 l 600 247 l 192 247 l 89 19 q 32 -3 79 -3 l 25 -3 q -32 19 -32 -3 q -25 40 -32 26 l 399 953 q 456 975 408 975 l 496 975 m 461 847 q 432 767 444 796 l 242 353 l 574 353 l 472 767 q 464 847 464 799 l 461 847 m 679 1239 q 699 1222 699 1239 q 665 1133 699 1171 q 582 1077 632 1096 q 482 1058 532 1058 q 351 1096 406 1058 q 296 1201 296 1133 q 301 1230 296 1221 q 319 1239 306 1239 q 335 1235 331 1239 q 341 1222 339 1231 q 347 1204 343 1213 q 399 1163 360 1176 q 492 1150 438 1150 q 587 1163 546 1150 q 646 1204 628 1176 q 655 1223 651 1214 q 663 1235 658 1232 q 679 1239 668 1239 z "},"Ắ":{"ha":851,"x_min":-32,"x_max":785,"o":"m 618 1374 q 663 1357 663 1374 q 633 1317 663 1351 q 535 1208 603 1282 q 482 1183 514 1183 q 451 1196 451 1183 q 528 1338 451 1215 q 562 1364 539 1354 q 618 1374 585 1374 m 678 1226 q 697 1210 697 1226 q 664 1128 697 1164 q 580 1075 631 1093 q 481 1057 529 1057 q 349 1092 404 1057 q 294 1189 294 1128 q 299 1217 294 1208 q 318 1226 304 1226 q 333 1223 329 1226 q 339 1209 336 1219 q 346 1192 342 1199 q 400 1149 358 1168 q 490 1131 442 1131 q 583 1151 536 1131 q 644 1192 631 1172 q 654 1209 650 1199 q 663 1223 658 1219 q 678 1226 667 1226 m 496 975 q 550 953 544 975 l 783 39 q 785 25 785 33 q 724 -3 785 -3 l 713 -3 q 658 19 664 -3 l 600 247 l 192 247 l 89 19 q 32 -3 79 -3 l 25 -3 q -32 19 -32 -3 q -25 40 -32 26 l 399 953 q 456 975 408 975 l 496 975 m 461 847 q 432 767 444 796 l 242 353 l 574 353 l 472 767 q 464 847 464 799 l 461 847 z "},"Ặ":{"ha":851,"x_min":-32,"x_max":785,"o":"m 0 0 m 496 975 q 550 953 544 975 l 783 39 q 785 25 785 33 q 724 -3 785 -3 l 713 -3 q 658 19 664 -3 l 600 247 l 192 247 l 89 19 q 32 -3 79 -3 l 25 -3 q -32 19 -32 -3 q -25 40 -32 26 l 399 953 q 456 975 408 975 l 496 975 m 461 847 q 432 767 444 796 l 242 353 l 574 353 l 472 767 q 464 847 464 799 l 461 847 m 679 1239 q 699 1222 699 1239 q 665 1133 699 1171 q 582 1077 632 1096 q 482 1058 532 1058 q 351 1096 406 1058 q 296 1201 296 1133 q 301 1230 296 1221 q 319 1239 306 1239 q 335 1235 331 1239 q 341 1222 339 1231 q 347 1204 343 1213 q 399 1163 360 1176 q 492 1150 438 1150 q 587 1163 546 1150 q 646 1204 628 1176 q 655 1223 651 1214 q 663 1235 658 1232 q 679 1239 668 1239 m 376 -111 q 417 -119 406 -111 q 429 -142 429 -126 l 422 -212 q 358 -243 418 -243 q 317 -235 329 -243 q 306 -212 306 -228 l 313 -142 q 376 -111 317 -111 z "},"Ằ":{"ha":851,"x_min":-32,"x_max":785,"o":"m 443 1378 q 510 1342 496 1378 q 561 1196 561 1217 q 529 1183 561 1183 q 479 1208 494 1183 q 408 1322 424 1294 q 392 1361 393 1349 q 403 1374 392 1371 q 443 1378 414 1378 m 678 1226 q 697 1210 697 1226 q 664 1128 697 1164 q 580 1075 631 1093 q 481 1057 529 1057 q 349 1092 404 1057 q 294 1189 294 1128 q 299 1217 294 1208 q 318 1226 304 1226 q 333 1223 329 1226 q 339 1209 336 1219 q 346 1192 342 1199 q 400 1149 358 1168 q 490 1131 442 1131 q 583 1151 536 1131 q 644 1192 631 1172 q 654 1209 650 1199 q 663 1223 658 1219 q 678 1226 667 1226 m 496 975 q 550 953 544 975 l 783 39 q 785 25 785 33 q 724 -3 785 -3 l 713 -3 q 658 19 664 -3 l 600 247 l 192 247 l 89 19 q 32 -3 79 -3 l 25 -3 q -32 19 -32 -3 q -25 40 -32 26 l 399 953 q 456 975 408 975 l 496 975 m 461 847 q 432 767 444 796 l 242 353 l 574 353 l 472 767 q 464 847 464 799 l 461 847 z "},"Ẳ":{"ha":851,"x_min":-32,"x_max":785,"o":"m 539 1294 q 526 1322 539 1313 q 492 1332 514 1332 q 445 1323 461 1332 q 425 1314 429 1314 q 407 1331 417 1314 q 397 1360 397 1349 q 435 1386 397 1374 q 510 1399 472 1399 q 586 1376 553 1399 q 619 1304 619 1353 q 603 1256 619 1276 q 561 1215 588 1236 q 527 1194 547 1204 q 500 1185 507 1185 q 466 1194 479 1185 q 453 1213 453 1203 q 460 1226 453 1219 q 490 1243 468 1232 q 539 1294 539 1268 m 678 1226 q 697 1210 697 1226 q 664 1128 697 1164 q 580 1075 631 1093 q 481 1057 529 1057 q 349 1092 404 1057 q 294 1189 294 1128 q 299 1217 294 1208 q 318 1226 304 1226 q 333 1223 329 1226 q 339 1209 336 1219 q 346 1192 342 1199 q 400 1149 358 1168 q 490 1131 442 1131 q 583 1151 536 1131 q 644 1192 631 1172 q 654 1209 650 1199 q 663 1223 658 1219 q 678 1226 667 1226 m 496 975 q 550 953 544 975 l 783 39 q 785 25 785 33 q 724 -3 785 -3 l 713 -3 q 658 19 664 -3 l 600 247 l 192 247 l 89 19 q 32 -3 79 -3 l 25 -3 q -32 19 -32 -3 q -25 40 -32 26 l 399 953 q 456 975 408 975 l 496 975 m 461 847 q 432 767 444 796 l 242 353 l 574 353 l 472 767 q 464 847 464 799 l 461 847 z "},"Ẵ":{"ha":851,"x_min":-32,"x_max":785,"o":"m 407 1400 q 458 1392 432 1400 q 528 1368 485 1385 q 581 1349 554 1357 q 626 1340 608 1340 q 656 1349 643 1340 q 682 1381 668 1358 q 707 1400 693 1400 q 719 1397 715 1400 l 729 1393 q 744 1376 744 1386 q 739 1357 744 1374 q 690 1285 718 1307 q 624 1263 663 1263 q 567 1271 596 1263 q 497 1296 538 1279 q 440 1316 463 1310 q 400 1322 418 1322 q 373 1313 385 1322 q 347 1281 361 1304 q 325 1261 336 1261 q 311 1264 317 1261 l 299 1269 q 286 1286 286 1275 q 290 1304 286 1294 q 339 1378 311 1356 q 407 1400 367 1400 m 678 1226 q 697 1210 697 1226 q 664 1128 697 1164 q 580 1075 631 1093 q 481 1057 529 1057 q 349 1092 404 1057 q 294 1189 294 1128 q 299 1217 294 1208 q 318 1226 304 1226 q 333 1223 329 1226 q 339 1209 336 1219 q 346 1192 342 1199 q 400 1149 358 1168 q 490 1131 442 1131 q 583 1151 536 1131 q 644 1192 631 1172 q 654 1209 650 1199 q 663 1223 658 1219 q 678 1226 667 1226 m 496 975 q 550 953 544 975 l 783 39 q 785 25 785 33 q 724 -3 785 -3 l 713 -3 q 658 19 664 -3 l 600 247 l 192 247 l 89 19 q 32 -3 79 -3 l 25 -3 q -32 19 -32 -3 q -25 40 -32 26 l 399 953 q 456 975 408 975 l 496 975 m 461 847 q 432 767 444 796 l 242 353 l 574 353 l 472 767 q 464 847 464 799 l 461 847 z "},"Â":{"ha":851,"x_min":-32,"x_max":785,"o":"m 0 0 m 496 975 q 550 953 544 975 l 783 39 q 785 25 785 33 q 724 -3 785 -3 l 713 -3 q 658 19 664 -3 l 600 247 l 192 247 l 89 19 q 32 -3 79 -3 l 25 -3 q -32 19 -32 -3 q -25 40 -32 26 l 399 953 q 456 975 408 975 l 496 975 m 461 847 q 432 767 444 796 l 242 353 l 574 353 l 472 767 q 464 847 464 799 l 461 847 m 510 1243 q 571 1213 554 1243 l 636 1090 q 643 1067 643 1081 q 607 1046 640 1046 l 604 1046 q 560 1064 578 1046 l 483 1167 l 388 1064 q 339 1046 365 1046 l 336 1046 q 307 1063 307 1046 q 317 1090 307 1075 l 408 1213 q 475 1243 431 1243 l 510 1243 z "},"Ấ":{"ha":851,"x_min":-32,"x_max":840,"o":"m 796 1335 q 840 1318 840 1335 q 810 1278 840 1313 q 713 1169 781 1243 q 660 1144 692 1144 q 629 1157 629 1144 q 706 1299 629 1176 q 740 1325 717 1315 q 796 1335 763 1335 m 521 1243 q 568 1213 554 1243 l 626 1090 q 633 1067 633 1081 q 597 1046 631 1046 l 594 1046 q 550 1064 560 1046 l 494 1167 l 399 1064 q 350 1046 376 1046 l 347 1046 q 318 1063 318 1046 q 328 1090 318 1075 l 419 1213 q 486 1243 442 1243 l 521 1243 m 496 975 q 550 953 544 975 l 783 39 q 785 25 785 33 q 724 -3 785 -3 l 713 -3 q 658 19 664 -3 l 600 247 l 192 247 l 89 19 q 32 -3 79 -3 l 25 -3 q -32 19 -32 -3 q -25 40 -32 26 l 399 953 q 456 975 408 975 l 496 975 m 461 847 q 432 767 444 796 l 242 353 l 574 353 l 472 767 q 464 847 464 799 l 461 847 z "},"Ậ":{"ha":851,"x_min":-32,"x_max":785,"o":"m 0 0 m 496 975 q 550 953 544 975 l 783 39 q 785 25 785 33 q 724 -3 785 -3 l 713 -3 q 658 19 664 -3 l 600 247 l 192 247 l 89 19 q 32 -3 79 -3 l 25 -3 q -32 19 -32 -3 q -25 40 -32 26 l 399 953 q 456 975 408 975 l 496 975 m 461 847 q 432 767 444 796 l 242 353 l 574 353 l 472 767 q 464 847 464 799 l 461 847 m 510 1243 q 571 1213 554 1243 l 636 1090 q 643 1067 643 1081 q 607 1046 640 1046 l 604 1046 q 560 1064 578 1046 l 483 1167 l 388 1064 q 339 1046 365 1046 l 336 1046 q 307 1063 307 1046 q 317 1090 307 1075 l 408 1213 q 475 1243 431 1243 l 510 1243 m 376 -111 q 417 -119 406 -111 q 429 -142 429 -126 l 422 -212 q 358 -243 418 -243 q 317 -235 329 -243 q 306 -212 306 -228 l 313 -142 q 376 -111 317 -111 z "},"Ầ":{"ha":851,"x_min":-32,"x_max":785,"o":"m 621 1339 q 688 1303 674 1339 q 739 1157 739 1178 q 707 1144 739 1144 q 657 1169 671 1144 q 586 1283 601 1256 q 569 1322 571 1310 q 581 1335 569 1332 q 621 1339 592 1339 m 521 1243 q 568 1213 554 1243 l 626 1090 q 633 1067 633 1081 q 597 1046 631 1046 l 594 1046 q 550 1064 560 1046 l 494 1167 l 399 1064 q 350 1046 376 1046 l 347 1046 q 318 1063 318 1046 q 328 1090 318 1075 l 419 1213 q 486 1243 442 1243 l 521 1243 m 496 975 q 550 953 544 975 l 783 39 q 785 25 785 33 q 724 -3 785 -3 l 713 -3 q 658 19 664 -3 l 600 247 l 192 247 l 89 19 q 32 -3 79 -3 l 25 -3 q -32 19 -32 -3 q -25 40 -32 26 l 399 953 q 456 975 408 975 l 496 975 m 461 847 q 432 767 444 796 l 242 353 l 574 353 l 472 767 q 464 847 464 799 l 461 847 z "},"Ẩ":{"ha":851,"x_min":-32,"x_max":797,"o":"m 717 1256 q 704 1283 717 1274 q 669 1293 692 1293 q 623 1284 639 1293 q 603 1275 607 1275 q 585 1292 594 1275 q 575 1321 575 1310 q 613 1347 575 1335 q 688 1360 650 1360 q 764 1337 731 1360 q 797 1265 797 1314 q 781 1217 797 1238 q 739 1176 765 1197 q 705 1156 725 1165 q 678 1146 685 1146 q 644 1155 657 1146 q 631 1174 631 1164 q 638 1187 631 1181 q 668 1204 646 1193 q 717 1256 717 1229 m 521 1243 q 568 1213 554 1243 l 626 1090 q 633 1067 633 1081 q 597 1046 631 1046 l 594 1046 q 550 1064 560 1046 l 494 1167 l 399 1064 q 350 1046 376 1046 l 347 1046 q 318 1063 318 1046 q 328 1090 318 1075 l 419 1213 q 486 1243 442 1243 l 521 1243 m 496 975 q 550 953 544 975 l 783 39 q 785 25 785 33 q 724 -3 785 -3 l 713 -3 q 658 19 664 -3 l 600 247 l 192 247 l 89 19 q 32 -3 79 -3 l 25 -3 q -32 19 -32 -3 q -25 40 -32 26 l 399 953 q 456 975 408 975 l 496 975 m 461 847 q 432 767 444 796 l 242 353 l 574 353 l 472 767 q 464 847 464 799 l 461 847 z "},"Ẫ":{"ha":851,"x_min":-32,"x_max":785,"o":"m 406 1400 q 457 1392 431 1400 q 526 1368 483 1385 q 580 1349 553 1357 q 625 1340 607 1340 q 654 1349 642 1340 q 681 1381 667 1358 q 706 1400 692 1400 q 718 1397 714 1400 l 728 1393 q 743 1376 743 1386 q 738 1357 743 1374 q 689 1285 717 1307 q 622 1263 661 1263 q 565 1271 594 1263 q 496 1296 536 1279 q 439 1316 461 1310 q 399 1322 417 1322 q 372 1313 383 1322 q 346 1281 360 1304 q 324 1261 335 1261 q 310 1264 315 1261 l 297 1269 q 285 1286 285 1275 q 289 1304 285 1294 q 338 1378 310 1356 q 406 1400 365 1400 m 514 1210 q 575 1179 547 1210 l 639 1092 q 646 1068 646 1082 q 610 1047 643 1047 l 607 1047 q 563 1065 586 1047 l 488 1133 l 390 1065 q 367 1053 379 1058 q 342 1047 354 1047 l 339 1047 q 310 1064 310 1047 q 319 1092 310 1076 l 413 1179 q 447 1202 432 1194 q 479 1210 461 1210 l 514 1210 m 496 975 q 550 953 544 975 l 783 39 q 785 25 785 33 q 724 -3 785 -3 l 713 -3 q 658 19 664 -3 l 600 247 l 192 247 l 89 19 q 32 -3 79 -3 l 25 -3 q -32 19 -32 -3 q -25 40 -32 26 l 399 953 q 456 975 408 975 l 496 975 m 461 847 q 432 767 444 796 l 242 353 l 574 353 l 472 767 q 464 847 464 799 l 461 847 z "},"Ä":{"ha":851,"x_min":-32,"x_max":785,"o":"m 0 0 m 496 975 q 550 953 544 975 l 783 39 q 785 25 785 33 q 724 -3 785 -3 l 713 -3 q 658 19 664 -3 l 600 247 l 192 247 l 89 19 q 32 -3 79 -3 l 25 -3 q -32 19 -32 -3 q -25 40 -32 26 l 399 953 q 456 975 408 975 l 496 975 m 461 847 q 432 767 444 796 l 242 353 l 574 353 l 472 767 q 464 847 464 799 l 461 847 m 399 1221 q 440 1213 428 1221 q 451 1190 451 1206 l 444 1119 q 381 1089 440 1089 q 340 1097 351 1089 q 328 1119 328 1104 l 335 1190 q 399 1221 339 1221 m 599 1221 q 640 1213 628 1221 q 651 1190 651 1206 l 644 1119 q 581 1089 640 1089 q 540 1097 551 1089 q 528 1119 528 1104 l 535 1190 q 599 1221 538 1221 z "},"Ạ":{"ha":851,"x_min":-32,"x_max":785,"o":"m 0 0 m 496 975 q 550 953 544 975 l 783 39 q 785 25 785 33 q 724 -3 785 -3 l 713 -3 q 658 19 664 -3 l 600 247 l 192 247 l 89 19 q 32 -3 79 -3 l 25 -3 q -32 19 -32 -3 q -25 40 -32 26 l 399 953 q 456 975 408 975 l 496 975 m 461 847 q 432 767 444 796 l 242 353 l 574 353 l 472 767 q 464 847 464 799 l 461 847 m 376 -111 q 417 -119 406 -111 q 429 -142 429 -126 l 422 -212 q 358 -243 418 -243 q 317 -235 329 -243 q 306 -212 306 -228 l 313 -142 q 376 -111 317 -111 z "},"À":{"ha":851,"x_min":-32,"x_max":785,"o":"m 0 0 m 496 975 q 550 953 544 975 l 783 39 q 785 25 785 33 q 724 -3 785 -3 l 713 -3 q 658 19 664 -3 l 600 247 l 192 247 l 89 19 q 32 -3 79 -3 l 25 -3 q -32 19 -32 -3 q -25 40 -32 26 l 399 953 q 456 975 408 975 l 496 975 m 461 847 q 432 767 444 796 l 242 353 l 574 353 l 472 767 q 464 847 464 799 l 461 847 m 376 1263 q 431 1254 410 1263 q 463 1226 451 1246 q 527 1111 511 1142 q 543 1071 543 1081 q 511 1058 543 1058 q 469 1065 489 1058 q 440 1083 450 1071 l 392 1138 q 322 1219 335 1203 q 310 1246 310 1236 q 327 1259 311 1256 q 376 1263 343 1263 z "},"Ả":{"ha":851,"x_min":-32,"x_max":785,"o":"m 0 0 m 496 975 q 550 953 544 975 l 783 39 q 785 25 785 33 q 724 -3 785 -3 l 713 -3 q 658 19 664 -3 l 600 247 l 192 247 l 89 19 q 32 -3 79 -3 l 25 -3 q -32 19 -32 -3 q -25 40 -32 26 l 399 953 q 456 975 408 975 l 496 975 m 461 847 q 432 767 444 796 l 242 353 l 574 353 l 472 767 q 464 847 464 799 l 461 847 m 536 1182 q 523 1208 536 1199 q 489 1217 510 1217 q 442 1208 458 1217 q 422 1199 426 1199 q 404 1216 414 1199 q 394 1244 394 1233 q 433 1273 394 1258 q 507 1288 471 1288 q 590 1264 551 1288 q 628 1190 628 1240 q 599 1110 628 1147 q 535 1051 571 1074 q 490 1028 500 1028 q 452 1035 468 1028 q 436 1051 436 1042 q 446 1072 436 1061 q 474 1094 456 1082 q 519 1135 503 1115 q 536 1182 536 1154 z "},"Ā":{"ha":851,"x_min":-32,"x_max":785,"o":"m 0 0 m 496 975 q 550 953 544 975 l 783 39 q 785 25 785 33 q 724 -3 785 -3 l 713 -3 q 658 19 664 -3 l 600 247 l 192 247 l 89 19 q 32 -3 79 -3 l 25 -3 q -32 19 -32 -3 q -25 40 -32 26 l 399 953 q 456 975 408 975 l 496 975 m 461 847 q 432 767 444 796 l 242 353 l 574 353 l 472 767 q 464 847 464 799 l 461 847 m 638 1194 q 656 1185 651 1194 q 661 1158 661 1176 q 626 1096 661 1096 l 313 1096 q 294 1106 299 1096 q 289 1133 289 1115 q 324 1194 289 1194 l 638 1194 z "},"Ą":{"ha":851,"x_min":-32,"x_max":900,"o":"m 892 -132 q 900 -150 900 -132 q 866 -233 900 -211 q 776 -254 832 -254 q 658 -217 690 -254 q 626 -131 626 -179 q 639 -62 626 -103 q 678 1 651 -21 q 658 19 663 8 l 600 247 l 192 247 l 89 19 q 32 -3 79 -3 l 25 -3 q -32 19 -32 -3 q -25 40 -32 26 l 399 953 q 456 975 408 975 l 496 975 q 550 953 544 975 l 783 39 q 785 25 785 33 q 749 -1 785 4 q 739 -33 747 -7 q 722 -97 722 -72 q 746 -145 722 -133 q 803 -157 769 -157 q 859 -144 831 -157 q 892 -132 888 -132 m 574 353 l 472 767 q 464 847 464 799 l 461 847 q 432 767 444 796 l 242 353 l 574 353 z "},"Å":{"ha":851,"x_min":-32,"x_max":785,"o":"m 0 0 m 496 975 q 550 953 544 975 l 783 39 q 785 25 785 33 q 724 -3 785 -3 l 713 -3 q 658 19 664 -3 l 600 247 l 192 247 l 89 19 q 32 -3 79 -3 l 25 -3 q -32 19 -32 -3 q -25 40 -32 26 l 399 953 q 456 975 408 975 l 496 975 m 461 847 q 432 767 444 796 l 242 353 l 574 353 l 472 767 q 464 847 464 799 l 461 847 m 486 1264 q 562 1233 532 1264 q 592 1158 592 1203 q 553 1067 592 1106 q 463 1029 515 1029 q 387 1059 417 1029 q 357 1135 357 1089 q 396 1226 357 1188 q 486 1264 435 1264 m 482 1215 q 428 1193 451 1215 q 406 1140 406 1171 q 422 1095 406 1113 q 467 1078 439 1078 q 521 1100 499 1078 q 543 1154 543 1122 q 526 1198 543 1181 q 482 1215 508 1215 z "},"Ǻ":{"ha":851,"x_min":-32,"x_max":785,"o":"m 490 1142 q 460 1156 460 1142 l 506 1229 q 522 1254 514 1240 q 556 1282 535 1274 q 613 1290 578 1290 q 663 1286 647 1290 q 676 1272 678 1282 q 667 1259 676 1268 q 639 1233 658 1250 l 564 1167 q 490 1142 539 1142 m 783 39 q 785 25 785 33 q 724 -3 785 -3 l 713 -3 q 658 19 664 -3 l 600 247 l 192 247 l 89 19 q 32 -3 79 -3 l 25 -3 q -32 19 -32 -3 q -25 40 -32 26 l 381 915 q 365 972 365 939 q 404 1063 365 1025 q 494 1101 443 1101 q 570 1071 540 1101 q 600 996 600 1040 q 563 906 600 946 l 783 39 m 490 1053 q 437 1031 460 1053 q 414 978 414 1008 q 431 933 414 950 q 475 915 447 915 q 529 938 507 915 q 551 992 551 960 q 534 1035 551 1018 q 490 1053 517 1053 m 574 353 l 472 767 q 464 847 464 799 l 461 847 q 432 767 444 796 l 242 353 l 574 353 z "},"Ã":{"ha":851,"x_min":-32,"x_max":785,"o":"m 0 0 m 496 975 q 550 953 544 975 l 783 39 q 785 25 785 33 q 724 -3 785 -3 l 713 -3 q 658 19 664 -3 l 600 247 l 192 247 l 89 19 q 32 -3 79 -3 l 25 -3 q -32 19 -32 -3 q -25 40 -32 26 l 399 953 q 456 975 408 975 l 496 975 m 461 847 q 432 767 444 796 l 242 353 l 574 353 l 472 767 q 464 847 464 799 l 461 847 m 372 1204 q 431 1197 401 1204 q 507 1172 460 1189 q 570 1151 547 1158 q 614 1144 593 1144 q 647 1153 633 1144 q 675 1185 661 1163 q 703 1204 689 1204 q 717 1201 711 1204 l 728 1197 q 743 1181 743 1192 q 738 1161 743 1172 q 685 1089 715 1111 q 611 1067 654 1067 q 472 1100 561 1067 q 410 1120 433 1114 q 365 1126 386 1126 q 335 1117 347 1126 q 307 1085 322 1108 q 294 1069 299 1074 q 282 1065 289 1065 q 268 1068 274 1065 l 254 1074 q 240 1090 240 1079 q 244 1108 240 1099 q 298 1182 267 1160 q 372 1204 329 1204 z "},"Æ":{"ha":1271,"x_min":-65,"x_max":1193,"o":"m 1169 972 q 1193 942 1193 972 q 1187 887 1193 907 q 1158 867 1181 867 l 650 867 l 686 550 l 1082 550 q 1106 519 1106 550 q 1099 465 1106 485 q 1071 444 1093 444 l 697 444 l 736 106 l 1081 106 q 1104 75 1104 106 q 1098 20 1104 40 q 1069 0 1092 0 l 664 0 q 631 10 642 0 q 618 40 621 19 l 596 247 l 186 247 l 51 19 q -6 -3 38 -3 l -12 -3 q -53 2 -42 -3 q -65 18 -65 7 q -57 43 -65 29 l 482 935 q 508 963 493 954 q 544 972 522 972 l 1169 972 m 540 847 l 538 847 l 500 767 l 250 351 l 582 351 l 540 767 l 540 847 z "},"Ǽ":{"ha":1271,"x_min":-65,"x_max":1193,"o":"m 0 0 m 1169 972 q 1193 942 1193 972 q 1187 887 1193 907 q 1158 867 1181 867 l 650 867 l 686 550 l 1082 550 q 1106 519 1106 550 q 1099 465 1106 485 q 1071 444 1093 444 l 697 444 l 736 106 l 1081 106 q 1104 75 1104 106 q 1098 20 1104 40 q 1069 0 1092 0 l 664 0 q 631 10 642 0 q 618 40 621 19 l 596 247 l 186 247 l 51 19 q -6 -3 38 -3 l -12 -3 q -53 2 -42 -3 q -65 18 -65 7 q -57 43 -65 29 l 482 935 q 508 963 493 954 q 544 972 522 972 l 1169 972 m 540 847 l 538 847 l 500 767 l 250 351 l 582 351 l 540 767 l 540 847 m 769 1263 q 835 1246 835 1263 q 821 1222 835 1238 q 744 1140 807 1206 q 688 1083 744 1140 q 656 1065 675 1071 q 614 1058 636 1058 q 583 1071 583 1058 q 602 1111 583 1081 q 679 1226 621 1142 q 715 1254 693 1246 q 769 1263 736 1263 z "},"B":{"ha":824,"x_min":71,"x_max":757,"o":"m 465 972 q 682 914 607 972 q 757 756 757 856 q 732 653 757 704 q 665 565 707 603 q 576 515 624 528 l 575 510 q 624 491 575 514 q 713 422 674 468 q 751 304 751 376 q 644 76 751 151 q 354 0 538 0 l 108 0 q 80 8 89 0 q 71 33 71 15 l 164 931 q 176 963 165 953 q 210 972 188 972 l 465 972 m 279 867 l 247 553 l 415 553 q 525 578 476 553 q 601 646 574 603 q 629 739 629 689 q 583 835 629 804 q 442 867 538 867 l 279 867 m 236 447 l 200 106 l 410 106 q 566 160 507 106 q 625 306 625 214 q 573 410 625 374 q 422 447 521 447 l 236 447 z "},"C":{"ha":860,"x_min":53,"x_max":819,"o":"m 565 981 q 688 967 629 981 q 783 934 747 954 q 819 896 819 914 q 798 847 819 879 q 764 814 776 814 q 728 831 760 814 q 649 862 696 849 q 544 875 603 875 q 266 745 354 875 q 178 397 178 615 q 248 170 178 243 q 464 97 318 97 q 597 115 540 97 q 685 148 653 132 q 721 164 718 164 q 731 149 731 164 q 728 113 731 138 q 721 72 725 89 q 630 13 713 35 q 453 -8 547 -8 q 151 87 249 -8 q 53 381 53 182 q 172 813 53 646 q 565 981 292 981 z "},"Ć":{"ha":860,"x_min":53,"x_max":819,"o":"m 53 0 m 565 981 q 688 967 629 981 q 783 934 747 954 q 819 896 819 914 q 798 847 819 879 q 764 814 776 814 q 728 831 760 814 q 649 862 696 849 q 544 875 603 875 q 266 745 354 875 q 178 397 178 615 q 248 170 178 243 q 464 97 318 97 q 597 115 540 97 q 685 148 653 132 q 721 164 718 164 q 731 149 731 164 q 728 113 731 138 q 721 72 725 89 q 630 13 713 35 q 453 -8 547 -8 q 151 87 249 -8 q 53 381 53 182 q 172 813 53 646 q 565 981 292 981 m 674 1263 q 739 1246 739 1263 q 725 1222 739 1238 q 649 1140 711 1206 q 592 1083 649 1140 q 560 1065 579 1071 q 518 1058 540 1058 q 488 1071 488 1058 q 506 1111 488 1081 q 583 1226 525 1142 q 619 1254 597 1246 q 674 1263 640 1263 z "},"Č":{"ha":860,"x_min":53,"x_max":819,"o":"m 53 0 m 565 981 q 688 967 629 981 q 783 934 747 954 q 819 896 819 914 q 798 847 819 879 q 764 814 776 814 q 728 831 760 814 q 649 862 696 849 q 544 875 603 875 q 266 745 354 875 q 178 397 178 615 q 248 170 178 243 q 464 97 318 97 q 597 115 540 97 q 685 148 653 132 q 721 164 718 164 q 731 149 731 164 q 728 113 731 138 q 721 72 725 89 q 630 13 713 35 q 453 -8 547 -8 q 151 87 249 -8 q 53 381 53 182 q 172 813 53 646 q 565 981 292 981 m 704 1251 q 735 1232 735 1251 q 725 1207 735 1221 l 632 1085 q 565 1054 610 1054 l 531 1054 q 469 1085 486 1054 l 406 1207 q 399 1232 399 1219 q 433 1251 401 1251 l 436 1251 q 482 1233 464 1251 l 556 1131 l 654 1233 q 701 1251 676 1251 l 704 1251 z "},"Ç":{"ha":860,"x_min":53,"x_max":819,"o":"m 565 981 q 688 967 629 981 q 783 934 747 954 q 819 896 819 914 q 798 847 819 879 q 764 814 776 814 q 728 831 760 814 q 649 862 696 849 q 544 875 603 875 q 266 745 354 875 q 178 397 178 615 q 248 170 178 243 q 464 97 318 97 q 597 115 540 97 q 685 148 653 132 q 721 164 718 164 q 731 149 731 164 q 728 113 731 138 q 721 72 725 89 q 632 15 713 36 q 458 -8 551 -7 l 433 -68 l 439 -68 q 512 -86 476 -68 q 547 -154 547 -104 q 495 -263 547 -235 q 374 -292 443 -292 q 284 -279 329 -292 q 239 -235 239 -267 q 244 -197 239 -204 q 256 -189 249 -189 q 286 -207 258 -190 q 364 -224 314 -224 q 447 -168 447 -224 q 435 -140 447 -149 q 399 -124 422 -131 q 372 -111 381 -117 q 364 -96 364 -106 q 374 -70 365 -92 q 399 -7 382 -49 q 138 101 224 6 q 53 381 53 196 q 172 813 53 646 q 565 981 292 981 z "},"Ĉ":{"ha":860,"x_min":53,"x_max":819,"o":"m 53 0 m 565 981 q 688 967 629 981 q 783 934 747 954 q 819 896 819 914 q 798 847 819 879 q 764 814 776 814 q 728 831 760 814 q 649 862 696 849 q 544 875 603 875 q 266 745 354 875 q 178 397 178 615 q 248 170 178 243 q 464 97 318 97 q 597 115 540 97 q 685 148 653 132 q 721 164 718 164 q 731 149 731 164 q 728 113 731 138 q 721 72 725 89 q 630 13 713 35 q 453 -8 547 -8 q 151 87 249 -8 q 53 381 53 182 q 172 813 53 646 q 565 981 292 981 m 575 1243 q 636 1213 619 1243 l 701 1090 q 708 1067 708 1081 q 672 1046 706 1046 l 669 1046 q 625 1064 643 1046 l 549 1167 l 453 1064 q 404 1046 431 1046 l 401 1046 q 372 1063 372 1046 q 382 1090 372 1075 l 474 1213 q 540 1243 496 1243 l 575 1243 z "},"Ċ":{"ha":860,"x_min":53,"x_max":819,"o":"m 53 0 m 565 981 q 688 967 629 981 q 783 934 747 954 q 819 896 819 914 q 798 847 819 879 q 764 814 776 814 q 728 831 760 814 q 649 862 696 849 q 544 875 603 875 q 266 745 354 875 q 178 397 178 615 q 248 170 178 243 q 464 97 318 97 q 597 115 540 97 q 685 148 653 132 q 721 164 718 164 q 731 149 731 164 q 728 113 731 138 q 721 72 725 89 q 630 13 713 35 q 453 -8 547 -8 q 151 87 249 -8 q 53 381 53 182 q 172 813 53 646 q 565 981 292 981 m 564 1221 q 605 1213 593 1221 q 617 1190 617 1206 l 610 1119 q 546 1089 606 1089 q 505 1097 517 1089 q 493 1119 493 1104 l 500 1190 q 564 1221 504 1221 z "},"D":{"ha":965,"x_min":69,"x_max":893,"o":"m 507 972 q 788 877 683 972 q 893 576 893 782 q 826 243 893 372 q 649 57 758 114 q 406 0 539 0 l 107 0 q 78 8 88 0 q 69 33 69 15 q 115 481 69 36 l 163 931 q 175 963 164 953 q 208 972 186 972 l 507 972 m 278 867 l 199 106 l 407 106 q 585 151 503 106 q 717 299 667 197 q 767 557 767 400 q 691 794 767 721 q 486 867 615 867 l 278 867 z "},"Ǳ":{"ha":1821,"x_min":69,"x_max":1801,"o":"m 69 0 m 507 972 q 788 877 683 972 q 893 576 893 782 q 826 243 893 372 q 649 57 758 114 q 406 0 539 0 l 107 0 q 78 8 88 0 q 69 33 69 15 q 115 481 69 36 l 163 931 q 175 963 164 953 q 208 972 186 972 l 507 972 m 278 867 l 199 106 l 407 106 q 585 151 503 106 q 717 299 667 197 q 767 557 767 400 q 691 794 767 721 q 486 867 615 867 l 278 867 m 1778 972 q 1793 949 1785 972 q 1801 906 1801 926 q 1794 882 1801 889 l 1144 106 l 1689 106 q 1713 75 1713 106 q 1706 20 1713 40 q 1678 0 1700 0 l 1000 0 q 982 23 990 0 q 974 67 974 46 q 981 90 974 83 l 1631 867 l 1129 867 q 1106 897 1106 867 q 1112 952 1106 932 q 1140 972 1118 972 l 1778 972 z "},"Ǆ":{"ha":1821,"x_min":69,"x_max":1801,"o":"m 69 0 m 507 972 q 788 877 683 972 q 893 576 893 782 q 826 243 893 372 q 649 57 758 114 q 406 0 539 0 l 107 0 q 78 8 88 0 q 69 33 69 15 q 115 481 69 36 l 163 931 q 175 963 164 953 q 208 972 186 972 l 507 972 m 278 867 l 199 106 l 407 106 q 585 151 503 106 q 717 299 667 197 q 767 557 767 400 q 691 794 767 721 q 486 867 615 867 l 278 867 m 1778 972 q 1793 949 1785 972 q 1801 906 1801 926 q 1794 882 1801 889 l 1144 106 l 1689 106 q 1713 75 1713 106 q 1706 20 1713 40 q 1678 0 1700 0 l 1000 0 q 982 23 990 0 q 974 67 974 46 q 981 90 974 83 l 1631 867 l 1129 867 q 1106 897 1106 867 q 1112 952 1106 932 q 1140 972 1118 972 l 1778 972 m 1599 1251 q 1629 1232 1629 1251 q 1619 1207 1629 1221 l 1526 1085 q 1460 1054 1504 1054 l 1425 1054 q 1364 1085 1381 1054 l 1300 1207 q 1293 1232 1293 1219 q 1328 1251 1296 1251 l 1331 1251 q 1376 1233 1358 1251 l 1450 1131 l 1549 1233 q 1596 1251 1571 1251 l 1599 1251 z "},"Ð":{"ha":967,"x_min":-1,"x_max":893,"o":"m 507 972 q 788 877 683 972 q 893 576 893 782 q 826 243 893 372 q 649 57 758 114 q 406 0 539 0 l 107 0 q 78 8 88 0 q 69 33 69 15 q 111 444 69 43 l 22 444 q -1 475 -1 444 q 5 530 -1 510 q 33 550 11 550 l 122 550 l 150 810 l 163 931 q 175 963 164 953 q 208 972 186 972 l 507 972 m 407 106 q 585 151 503 106 q 717 299 667 197 q 767 557 767 400 q 691 794 767 721 q 486 867 615 867 l 278 867 l 244 550 l 400 550 q 424 519 424 550 q 417 465 424 485 q 389 444 411 444 l 233 444 l 199 106 l 407 106 z "},"Ď":{"ha":965,"x_min":69,"x_max":893,"o":"m 69 0 m 507 972 q 788 877 683 972 q 893 576 893 782 q 826 243 893 372 q 649 57 758 114 q 406 0 539 0 l 107 0 q 78 8 88 0 q 69 33 69 15 q 115 481 69 36 l 163 931 q 175 963 164 953 q 208 972 186 972 l 507 972 m 278 867 l 199 106 l 407 106 q 585 151 503 106 q 717 299 667 197 q 767 557 767 400 q 691 794 767 721 q 486 867 615 867 l 278 867 m 647 1251 q 678 1232 678 1251 q 668 1207 678 1221 l 575 1085 q 508 1054 553 1054 l 474 1054 q 413 1085 429 1054 l 349 1207 q 342 1232 342 1219 q 376 1251 344 1251 l 379 1251 q 425 1233 407 1251 l 499 1131 l 597 1233 q 644 1251 619 1251 l 647 1251 z "},"Đ":{"ha":967,"x_min":-1,"x_max":893,"o":"m 0 0 m 507 972 q 788 877 683 972 q 893 576 893 782 q 826 243 893 372 q 649 57 758 114 q 406 0 539 0 l 107 0 q 78 8 88 0 q 69 33 69 15 q 111 444 69 43 l 22 444 q -1 475 -1 444 q 5 530 -1 510 q 33 550 11 550 l 122 550 l 150 810 l 163 931 q 175 963 164 953 q 208 972 186 972 l 507 972 m 407 106 q 585 151 503 106 q 717 299 667 197 q 767 557 767 400 q 691 794 767 721 q 486 867 615 867 l 278 867 l 244 550 l 400 550 q 424 519 424 550 q 417 465 424 485 q 389 444 411 444 l 233 444 l 199 106 l 407 106 z "},"Ḍ":{"ha":965,"x_min":69,"x_max":893,"o":"m 69 0 m 507 972 q 788 877 683 972 q 893 576 893 782 q 826 243 893 372 q 649 57 758 114 q 406 0 539 0 l 107 0 q 78 8 88 0 q 69 33 69 15 q 115 481 69 36 l 163 931 q 175 963 164 953 q 208 972 186 972 l 507 972 m 278 867 l 199 106 l 407 106 q 585 151 503 106 q 717 299 667 197 q 767 557 767 400 q 691 794 767 721 q 486 867 615 867 l 278 867 m 393 -111 q 434 -119 422 -111 q 446 -142 446 -126 l 439 -212 q 375 -243 435 -243 q 334 -235 346 -243 q 322 -212 322 -228 l 329 -142 q 393 -111 333 -111 z "},"ǲ":{"ha":1644,"x_min":69,"x_max":1618,"o":"m 69 0 m 507 972 q 788 877 683 972 q 893 576 893 782 q 826 243 893 372 q 649 57 758 114 q 406 0 539 0 l 107 0 q 78 8 88 0 q 69 33 69 15 q 115 481 69 36 l 163 931 q 175 963 164 953 q 208 972 186 972 l 507 972 m 278 867 l 199 106 l 407 106 q 585 151 503 106 q 717 299 667 197 q 767 557 767 400 q 691 794 767 721 q 486 867 615 867 l 278 867 m 1597 726 q 1612 704 1606 726 q 1618 660 1618 682 q 1613 640 1618 646 l 1151 100 l 1533 100 q 1552 90 1547 100 q 1557 63 1557 81 q 1522 0 1557 0 l 1008 0 q 993 22 1001 0 q 985 64 985 43 q 992 86 985 79 l 1454 626 l 1099 626 q 1080 636 1085 626 q 1075 664 1075 646 q 1110 726 1075 726 l 1597 726 z "},"ǅ":{"ha":1644,"x_min":69,"x_max":1618,"o":"m 69 0 m 507 972 q 788 877 683 972 q 893 576 893 782 q 826 243 893 372 q 649 57 758 114 q 406 0 539 0 l 107 0 q 78 8 88 0 q 69 33 69 15 q 115 481 69 36 l 163 931 q 175 963 164 953 q 208 972 186 972 l 507 972 m 278 867 l 199 106 l 407 106 q 585 151 503 106 q 717 299 667 197 q 767 557 767 400 q 691 794 767 721 q 486 867 615 867 l 278 867 m 1597 726 q 1612 704 1606 726 q 1618 660 1618 682 q 1613 640 1618 646 l 1151 100 l 1533 100 q 1552 90 1547 100 q 1557 63 1557 81 q 1522 0 1557 0 l 1008 0 q 993 22 1001 0 q 985 64 985 43 q 992 86 985 79 l 1454 626 l 1099 626 q 1080 636 1085 626 q 1075 664 1075 646 q 1110 726 1075 726 l 1597 726 m 1511 1006 q 1542 986 1542 1006 q 1532 961 1542 975 l 1439 839 q 1372 808 1417 808 l 1338 808 q 1276 839 1293 808 l 1213 961 q 1206 986 1206 974 q 1240 1006 1208 1006 l 1243 1006 q 1289 988 1271 1006 l 1363 885 l 1461 988 q 1508 1006 1483 1006 l 1511 1006 z "},"E":{"ha":758,"x_min":63,"x_max":715,"o":"m 692 972 q 715 942 715 972 q 709 887 715 907 q 681 867 703 867 l 271 867 l 238 550 l 604 550 q 628 519 628 550 q 622 465 628 485 q 593 444 615 444 l 226 444 l 192 106 l 603 106 q 626 75 626 106 q 620 20 626 40 q 592 0 614 0 l 100 0 q 72 8 81 0 q 63 33 63 15 l 156 931 q 168 963 157 953 q 201 972 179 972 l 692 972 z "},"É":{"ha":758,"x_min":63,"x_max":715,"o":"m 63 0 m 692 972 q 715 942 715 972 q 709 887 715 907 q 681 867 703 867 l 271 867 l 238 550 l 604 550 q 628 519 628 550 q 622 465 628 485 q 593 444 615 444 l 226 444 l 192 106 l 603 106 q 626 75 626 106 q 620 20 626 40 q 592 0 614 0 l 100 0 q 72 8 81 0 q 63 33 63 15 l 156 931 q 168 963 157 953 q 201 972 179 972 l 692 972 m 582 1263 q 647 1246 647 1263 q 633 1222 647 1238 q 557 1140 619 1206 q 500 1083 557 1140 q 468 1065 488 1071 q 426 1058 449 1058 q 396 1071 396 1058 q 415 1111 396 1081 q 492 1226 433 1142 q 527 1254 506 1246 q 582 1263 549 1263 z "},"Ĕ":{"ha":758,"x_min":63,"x_max":715,"o":"m 63 0 m 692 972 q 715 942 715 972 q 709 887 715 907 q 681 867 703 867 l 271 867 l 238 550 l 604 550 q 628 519 628 550 q 622 465 628 485 q 593 444 615 444 l 226 444 l 192 106 l 603 106 q 626 75 626 106 q 620 20 626 40 q 592 0 614 0 l 100 0 q 72 8 81 0 q 63 33 63 15 l 156 931 q 168 963 157 953 q 201 972 179 972 l 692 972 m 653 1239 q 672 1222 672 1239 q 639 1133 672 1171 q 556 1077 606 1096 q 456 1058 506 1058 q 324 1096 379 1058 q 269 1201 269 1133 q 274 1230 269 1221 q 293 1239 279 1239 q 308 1235 304 1239 q 315 1222 313 1231 q 321 1204 317 1213 q 372 1163 333 1176 q 465 1150 411 1150 q 560 1163 519 1150 q 619 1204 601 1176 q 628 1223 625 1214 q 637 1235 632 1232 q 653 1239 642 1239 z "},"Ě":{"ha":758,"x_min":63,"x_max":715,"o":"m 63 0 m 692 972 q 715 942 715 972 q 709 887 715 907 q 681 867 703 867 l 271 867 l 238 550 l 604 550 q 628 519 628 550 q 622 465 628 485 q 593 444 615 444 l 226 444 l 192 106 l 603 106 q 626 75 626 106 q 620 20 626 40 q 592 0 614 0 l 100 0 q 72 8 81 0 q 63 33 63 15 l 156 931 q 168 963 157 953 q 201 972 179 972 l 692 972 m 613 1251 q 643 1232 643 1251 q 633 1207 643 1221 l 540 1085 q 474 1054 518 1054 l 439 1054 q 378 1085 394 1054 l 314 1207 q 307 1232 307 1219 q 342 1251 310 1251 l 344 1251 q 390 1233 372 1251 l 464 1131 l 563 1233 q 610 1251 585 1251 l 613 1251 z "},"Ê":{"ha":758,"x_min":63,"x_max":715,"o":"m 63 0 m 692 972 q 715 942 715 972 q 709 887 715 907 q 681 867 703 867 l 271 867 l 238 550 l 604 550 q 628 519 628 550 q 622 465 628 485 q 593 444 615 444 l 226 444 l 192 106 l 603 106 q 626 75 626 106 q 620 20 626 40 q 592 0 614 0 l 100 0 q 72 8 81 0 q 63 33 63 15 l 156 931 q 168 963 157 953 q 201 972 179 972 l 692 972 m 483 1243 q 544 1213 528 1243 l 610 1090 q 617 1067 617 1081 q 581 1046 614 1046 l 578 1046 q 533 1064 551 1046 l 457 1167 l 361 1064 q 313 1046 339 1046 l 310 1046 q 281 1063 281 1046 q 290 1090 281 1075 l 382 1213 q 449 1243 404 1243 l 483 1243 z "},"Ế":{"ha":758,"x_min":63,"x_max":814,"o":"m 769 1335 q 814 1318 814 1335 q 784 1278 814 1313 q 686 1169 754 1243 q 633 1144 665 1144 q 603 1157 603 1144 q 679 1299 603 1176 q 713 1325 690 1315 q 769 1335 736 1335 m 494 1243 q 542 1213 528 1243 l 600 1090 q 607 1067 607 1081 q 571 1046 604 1046 l 568 1046 q 524 1064 533 1046 l 468 1167 l 372 1064 q 324 1046 350 1046 l 321 1046 q 292 1063 292 1046 q 301 1090 292 1075 l 393 1213 q 460 1243 415 1243 l 494 1243 m 692 972 q 715 942 715 972 q 709 887 715 907 q 681 867 703 867 l 271 867 l 238 550 l 604 550 q 628 519 628 550 q 622 465 628 485 q 593 444 615 444 l 226 444 l 192 106 l 603 106 q 626 75 626 106 q 620 20 626 40 q 592 0 614 0 l 100 0 q 72 8 81 0 q 63 33 63 15 l 156 931 q 168 963 157 953 q 201 972 179 972 l 692 972 z "},"Ệ":{"ha":758,"x_min":63,"x_max":715,"o":"m 63 0 m 692 972 q 715 942 715 972 q 709 887 715 907 q 681 867 703 867 l 271 867 l 238 550 l 604 550 q 628 519 628 550 q 622 465 628 485 q 593 444 615 444 l 226 444 l 192 106 l 603 106 q 626 75 626 106 q 620 20 626 40 q 592 0 614 0 l 100 0 q 72 8 81 0 q 63 33 63 15 l 156 931 q 168 963 157 953 q 201 972 179 972 l 692 972 m 483 1243 q 544 1213 528 1243 l 610 1090 q 617 1067 617 1081 q 581 1046 614 1046 l 578 1046 q 533 1064 551 1046 l 457 1167 l 361 1064 q 313 1046 339 1046 l 310 1046 q 281 1063 281 1046 q 290 1090 281 1075 l 382 1213 q 449 1243 404 1243 l 483 1243 m 338 -111 q 378 -119 367 -111 q 390 -142 390 -126 l 383 -212 q 319 -243 379 -243 q 278 -235 290 -243 q 267 -212 267 -228 l 274 -142 q 338 -111 278 -111 z "},"Ề":{"ha":758,"x_min":63,"x_max":715,"o":"m 594 1339 q 661 1303 647 1339 q 713 1157 713 1178 q 681 1144 713 1144 q 631 1169 646 1144 q 560 1283 575 1256 q 543 1322 544 1310 q 554 1335 543 1332 q 594 1339 565 1339 m 494 1243 q 542 1213 528 1243 l 600 1090 q 607 1067 607 1081 q 571 1046 604 1046 l 568 1046 q 524 1064 533 1046 l 468 1167 l 372 1064 q 324 1046 350 1046 l 321 1046 q 292 1063 292 1046 q 301 1090 292 1075 l 393 1213 q 460 1243 415 1243 l 494 1243 m 692 972 q 715 942 715 972 q 709 887 715 907 q 681 867 703 867 l 271 867 l 238 550 l 604 550 q 628 519 628 550 q 622 465 628 485 q 593 444 615 444 l 226 444 l 192 106 l 603 106 q 626 75 626 106 q 620 20 626 40 q 592 0 614 0 l 100 0 q 72 8 81 0 q 63 33 63 15 l 156 931 q 168 963 157 953 q 201 972 179 972 l 692 972 z "},"Ể":{"ha":758,"x_min":63,"x_max":771,"o":"m 690 1256 q 678 1283 690 1274 q 643 1293 665 1293 q 597 1284 613 1293 q 576 1275 581 1275 q 558 1292 568 1275 q 549 1321 549 1310 q 586 1347 549 1335 q 661 1360 624 1360 q 738 1337 704 1360 q 771 1265 771 1314 q 755 1217 771 1238 q 713 1176 739 1197 q 678 1156 699 1165 q 651 1146 658 1146 q 617 1155 631 1146 q 604 1174 604 1164 q 612 1187 604 1181 q 642 1204 619 1193 q 690 1256 690 1229 m 494 1243 q 542 1213 528 1243 l 600 1090 q 607 1067 607 1081 q 571 1046 604 1046 l 568 1046 q 524 1064 533 1046 l 468 1167 l 372 1064 q 324 1046 350 1046 l 321 1046 q 292 1063 292 1046 q 301 1090 292 1075 l 393 1213 q 460 1243 415 1243 l 494 1243 m 692 972 q 715 942 715 972 q 709 887 715 907 q 681 867 703 867 l 271 867 l 238 550 l 604 550 q 628 519 628 550 q 622 465 628 485 q 593 444 615 444 l 226 444 l 192 106 l 603 106 q 626 75 626 106 q 620 20 626 40 q 592 0 614 0 l 100 0 q 72 8 81 0 q 63 33 63 15 l 156 931 q 168 963 157 953 q 201 972 179 972 l 692 972 z "},"Ễ":{"ha":758,"x_min":63,"x_max":717,"o":"m 379 1400 q 431 1392 404 1400 q 500 1368 457 1385 q 553 1349 526 1357 q 599 1340 581 1340 q 628 1349 615 1340 q 654 1381 640 1358 q 679 1400 665 1400 q 692 1397 688 1400 l 701 1393 q 717 1376 717 1386 q 711 1357 717 1374 q 663 1285 690 1307 q 596 1263 635 1263 q 539 1271 568 1263 q 469 1296 510 1279 q 413 1316 435 1310 q 372 1322 390 1322 q 345 1313 357 1322 q 319 1281 333 1304 q 297 1261 308 1261 q 283 1264 289 1261 l 271 1269 q 258 1286 258 1275 q 263 1304 258 1294 q 311 1378 283 1356 q 379 1400 339 1400 m 488 1210 q 549 1179 521 1210 l 613 1092 q 619 1068 619 1082 q 583 1047 617 1047 l 581 1047 q 536 1065 560 1047 l 461 1133 l 364 1065 q 340 1053 353 1058 q 315 1047 328 1047 l 313 1047 q 283 1064 283 1047 q 293 1092 283 1076 l 386 1179 q 420 1202 406 1194 q 453 1210 435 1210 l 488 1210 m 692 972 q 715 942 715 972 q 709 887 715 907 q 681 867 703 867 l 271 867 l 238 550 l 604 550 q 628 519 628 550 q 622 465 628 485 q 593 444 615 444 l 226 444 l 192 106 l 603 106 q 626 75 626 106 q 620 20 626 40 q 592 0 614 0 l 100 0 q 72 8 81 0 q 63 33 63 15 l 156 931 q 168 963 157 953 q 201 972 179 972 l 692 972 z "},"Ë":{"ha":758,"x_min":63,"x_max":715,"o":"m 63 0 m 692 972 q 715 942 715 972 q 709 887 715 907 q 681 867 703 867 l 271 867 l 238 550 l 604 550 q 628 519 628 550 q 622 465 628 485 q 593 444 615 444 l 226 444 l 192 106 l 603 106 q 626 75 626 106 q 620 20 626 40 q 592 0 614 0 l 100 0 q 72 8 81 0 q 63 33 63 15 l 156 931 q 168 963 157 953 q 201 972 179 972 l 692 972 m 372 1221 q 413 1213 401 1221 q 425 1190 425 1206 l 418 1119 q 354 1089 414 1089 q 313 1097 325 1089 q 301 1119 301 1104 l 308 1190 q 372 1221 313 1221 m 572 1221 q 613 1213 601 1221 q 625 1190 625 1206 l 618 1119 q 554 1089 614 1089 q 513 1097 525 1089 q 501 1119 501 1104 l 508 1190 q 572 1221 511 1221 z "},"Ė":{"ha":758,"x_min":63,"x_max":715,"o":"m 63 0 m 692 972 q 715 942 715 972 q 709 887 715 907 q 681 867 703 867 l 271 867 l 238 550 l 604 550 q 628 519 628 550 q 622 465 628 485 q 593 444 615 444 l 226 444 l 192 106 l 603 106 q 626 75 626 106 q 620 20 626 40 q 592 0 614 0 l 100 0 q 72 8 81 0 q 63 33 63 15 l 156 931 q 168 963 157 953 q 201 972 179 972 l 692 972 m 472 1221 q 513 1213 501 1221 q 525 1190 525 1206 l 518 1119 q 454 1089 514 1089 q 413 1097 425 1089 q 401 1119 401 1104 l 408 1190 q 472 1221 413 1221 z "},"Ẹ":{"ha":758,"x_min":63,"x_max":715,"o":"m 63 0 m 692 972 q 715 942 715 972 q 709 887 715 907 q 681 867 703 867 l 271 867 l 238 550 l 604 550 q 628 519 628 550 q 622 465 628 485 q 593 444 615 444 l 226 444 l 192 106 l 603 106 q 626 75 626 106 q 620 20 626 40 q 592 0 614 0 l 100 0 q 72 8 81 0 q 63 33 63 15 l 156 931 q 168 963 157 953 q 201 972 179 972 l 692 972 m 338 -111 q 378 -119 367 -111 q 390 -142 390 -126 l 383 -212 q 319 -243 379 -243 q 278 -235 290 -243 q 267 -212 267 -228 l 274 -142 q 338 -111 278 -111 z "},"È":{"ha":758,"x_min":63,"x_max":715,"o":"m 63 0 m 692 972 q 715 942 715 972 q 709 887 715 907 q 681 867 703 867 l 271 867 l 238 550 l 604 550 q 628 519 628 550 q 622 465 628 485 q 593 444 615 444 l 226 444 l 192 106 l 603 106 q 626 75 626 106 q 620 20 626 40 q 592 0 614 0 l 100 0 q 72 8 81 0 q 63 33 63 15 l 156 931 q 168 963 157 953 q 201 972 179 972 l 692 972 m 350 1263 q 404 1254 383 1263 q 436 1226 425 1246 q 501 1111 485 1142 q 517 1071 517 1081 q 485 1058 517 1058 q 443 1065 463 1058 q 414 1083 424 1071 l 365 1138 q 296 1219 308 1203 q 283 1246 283 1236 q 301 1259 285 1256 q 350 1263 317 1263 z "},"Ẻ":{"ha":758,"x_min":63,"x_max":715,"o":"m 63 0 m 692 972 q 715 942 715 972 q 709 887 715 907 q 681 867 703 867 l 271 867 l 238 550 l 604 550 q 628 519 628 550 q 622 465 628 485 q 593 444 615 444 l 226 444 l 192 106 l 603 106 q 626 75 626 106 q 620 20 626 40 q 592 0 614 0 l 100 0 q 72 8 81 0 q 63 33 63 15 l 156 931 q 168 963 157 953 q 201 972 179 972 l 692 972 m 510 1182 q 497 1208 510 1199 q 463 1217 483 1217 q 416 1208 432 1217 q 396 1199 400 1199 q 378 1216 388 1199 q 368 1244 368 1233 q 406 1273 368 1258 q 481 1288 444 1288 q 563 1264 525 1288 q 601 1190 601 1240 q 573 1110 601 1147 q 509 1051 544 1074 q 464 1028 474 1028 q 426 1035 442 1028 q 410 1051 410 1042 q 419 1072 410 1061 q 447 1094 429 1082 q 493 1135 476 1115 q 510 1182 510 1154 z "},"Ē":{"ha":758,"x_min":63,"x_max":715,"o":"m 63 0 m 692 972 q 715 942 715 972 q 709 887 715 907 q 681 867 703 867 l 271 867 l 238 550 l 604 550 q 628 519 628 550 q 622 465 628 485 q 593 444 615 444 l 226 444 l 192 106 l 603 106 q 626 75 626 106 q 620 20 626 40 q 592 0 614 0 l 100 0 q 72 8 81 0 q 63 33 63 15 l 156 931 q 168 963 157 953 q 201 972 179 972 l 692 972 m 611 1194 q 630 1185 625 1194 q 635 1158 635 1176 q 600 1096 635 1096 l 286 1096 q 267 1106 272 1096 q 263 1133 263 1115 q 297 1194 263 1194 l 611 1194 z "},"Ę":{"ha":758,"x_min":63,"x_max":743,"o":"m 735 -132 q 743 -150 743 -132 q 709 -233 743 -211 q 619 -254 675 -254 q 501 -217 533 -254 q 469 -131 469 -179 q 482 -62 469 -103 q 519 0 494 -22 l 100 0 q 72 8 81 0 q 63 33 63 15 l 156 931 q 168 963 157 953 q 201 972 179 972 l 692 972 q 715 942 715 972 q 709 887 715 907 q 681 867 703 867 l 271 867 l 238 550 l 604 550 q 628 519 628 550 q 622 465 628 485 q 593 444 615 444 l 226 444 l 192 106 l 603 106 q 626 75 626 106 q 620 20 626 40 q 592 0 614 0 q 582 -32 590 -6 q 565 -97 565 -71 q 589 -145 565 -133 q 646 -157 613 -157 q 702 -144 674 -157 q 735 -132 731 -132 z "},"Ẽ":{"ha":758,"x_min":63,"x_max":717,"o":"m 63 0 m 692 972 q 715 942 715 972 q 709 887 715 907 q 681 867 703 867 l 271 867 l 238 550 l 604 550 q 628 519 628 550 q 622 465 628 485 q 593 444 615 444 l 226 444 l 192 106 l 603 106 q 626 75 626 106 q 620 20 626 40 q 592 0 614 0 l 100 0 q 72 8 81 0 q 63 33 63 15 l 156 931 q 168 963 157 953 q 201 972 179 972 l 692 972 m 346 1204 q 404 1197 375 1204 q 481 1172 433 1189 q 544 1151 521 1158 q 588 1144 567 1144 q 621 1153 607 1144 q 649 1185 635 1163 q 676 1204 663 1204 q 690 1201 685 1204 l 701 1197 q 717 1181 717 1192 q 711 1161 717 1172 q 658 1089 689 1111 q 585 1067 628 1067 q 446 1100 535 1067 q 383 1120 407 1114 q 339 1126 360 1126 q 308 1117 321 1126 q 281 1085 296 1108 q 267 1069 272 1074 q 256 1065 263 1065 q 242 1068 247 1065 l 228 1074 q 214 1090 214 1079 q 218 1108 214 1099 q 272 1182 240 1160 q 346 1204 303 1204 z "},"F":{"ha":699,"x_min":68,"x_max":672,"o":"m 649 972 q 672 942 672 972 q 666 887 672 907 q 638 867 660 867 l 278 867 l 244 550 l 593 550 q 617 519 617 550 q 610 465 617 485 q 582 444 604 444 l 233 444 l 190 28 q 173 5 188 13 q 132 -3 158 -3 l 121 -3 q 80 5 92 -3 q 68 28 68 13 l 163 931 q 175 963 164 953 q 208 972 186 972 l 649 972 z "},"G":{"ha":933,"x_min":72,"x_max":836,"o":"m 581 981 q 704 967 644 981 q 800 934 764 954 q 836 896 836 914 q 815 847 836 879 q 781 814 793 814 q 747 831 776 814 q 670 861 717 847 q 561 875 624 875 q 291 751 382 875 q 200 400 200 626 q 475 97 200 97 q 576 102 526 97 q 656 115 626 107 l 686 396 l 522 396 q 499 426 499 396 q 505 481 499 461 q 533 501 511 501 l 778 501 q 815 468 815 501 q 796 272 815 464 l 776 92 q 681 15 771 38 q 456 -8 592 -8 q 72 382 72 -8 q 207 831 72 682 q 581 981 342 981 z "},"Ğ":{"ha":933,"x_min":72,"x_max":836,"o":"m 72 0 m 581 981 q 704 967 644 981 q 800 934 764 954 q 836 896 836 914 q 815 847 836 879 q 781 814 793 814 q 747 831 776 814 q 670 861 717 847 q 561 875 624 875 q 291 751 382 875 q 200 400 200 626 q 475 97 200 97 q 576 102 526 97 q 656 115 626 107 l 686 396 l 522 396 q 499 426 499 396 q 505 481 499 461 q 533 501 511 501 l 778 501 q 815 468 815 501 q 796 272 815 464 l 776 92 q 681 15 771 38 q 456 -8 592 -8 q 72 382 72 -8 q 207 831 72 682 q 581 981 342 981 m 754 1239 q 774 1222 774 1239 q 740 1133 774 1171 q 657 1077 707 1096 q 557 1058 607 1058 q 426 1096 481 1058 q 371 1201 371 1133 q 376 1230 371 1221 q 394 1239 381 1239 q 410 1235 406 1239 q 416 1222 414 1231 q 422 1204 418 1213 q 474 1163 435 1176 q 567 1150 513 1150 q 662 1163 621 1150 q 721 1204 703 1176 q 730 1223 726 1214 q 738 1235 733 1232 q 754 1239 743 1239 z "},"Ĝ":{"ha":933,"x_min":72,"x_max":836,"o":"m 72 0 m 581 981 q 704 967 644 981 q 800 934 764 954 q 836 896 836 914 q 815 847 836 879 q 781 814 793 814 q 747 831 776 814 q 670 861 717 847 q 561 875 624 875 q 291 751 382 875 q 200 400 200 626 q 475 97 200 97 q 576 102 526 97 q 656 115 626 107 l 686 396 l 522 396 q 499 426 499 396 q 505 481 499 461 q 533 501 511 501 l 778 501 q 815 468 815 501 q 796 272 815 464 l 776 92 q 681 15 771 38 q 456 -8 592 -8 q 72 382 72 -8 q 207 831 72 682 q 581 981 342 981 m 585 1243 q 646 1213 629 1243 l 711 1090 q 718 1067 718 1081 q 682 1046 715 1046 l 679 1046 q 635 1064 653 1046 l 558 1167 l 463 1064 q 414 1046 440 1046 l 411 1046 q 382 1063 382 1046 q 392 1090 382 1075 l 483 1213 q 550 1243 506 1243 l 585 1243 z "},"Ģ":{"ha":933,"x_min":72,"x_max":836,"o":"m 72 0 m 581 981 q 704 967 644 981 q 800 934 764 954 q 836 896 836 914 q 815 847 836 879 q 781 814 793 814 q 747 831 776 814 q 670 861 717 847 q 561 875 624 875 q 291 751 382 875 q 200 400 200 626 q 475 97 200 97 q 576 102 526 97 q 656 115 626 107 l 686 396 l 522 396 q 499 426 499 396 q 505 481 499 461 q 533 501 511 501 l 778 501 q 815 468 815 501 q 796 272 815 464 l 776 92 q 681 15 771 38 q 456 -8 592 -8 q 72 382 72 -8 q 207 831 72 682 q 581 981 342 981 m 471 -71 q 509 -81 496 -71 q 522 -110 522 -92 q 491 -199 522 -147 q 419 -288 460 -250 q 356 -326 378 -326 q 330 -322 342 -326 q 318 -306 318 -317 q 327 -277 318 -293 q 347 -244 336 -261 q 384 -178 371 -207 q 397 -115 397 -150 q 414 -83 397 -96 q 458 -71 431 -71 l 471 -71 z "},"Ġ":{"ha":933,"x_min":72,"x_max":836,"o":"m 72 0 m 581 981 q 704 967 644 981 q 800 934 764 954 q 836 896 836 914 q 815 847 836 879 q 781 814 793 814 q 747 831 776 814 q 670 861 717 847 q 561 875 624 875 q 291 751 382 875 q 200 400 200 626 q 475 97 200 97 q 576 102 526 97 q 656 115 626 107 l 686 396 l 522 396 q 499 426 499 396 q 505 481 499 461 q 533 501 511 501 l 778 501 q 815 468 815 501 q 796 272 815 464 l 776 92 q 681 15 771 38 q 456 -8 592 -8 q 72 382 72 -8 q 207 831 72 682 q 581 981 342 981 m 574 1221 q 615 1213 603 1221 q 626 1190 626 1206 l 619 1119 q 556 1089 615 1089 q 515 1097 526 1089 q 503 1119 503 1104 l 510 1190 q 574 1221 514 1221 z "},"H":{"ha":1018,"x_min":86,"x_max":929,"o":"m 876 975 q 917 967 906 975 q 929 944 929 960 l 833 28 q 775 -3 829 -3 l 764 -3 q 723 5 735 -3 q 711 28 711 13 l 754 446 l 251 446 l 208 28 q 150 -3 204 -3 l 139 -3 q 98 5 110 -3 q 86 28 86 13 l 182 944 q 240 975 185 975 l 251 975 q 292 967 281 975 q 304 944 304 960 l 263 551 l 765 551 l 807 944 q 865 975 810 975 l 876 975 z "},"Ħ":{"ha":1018,"x_min":82,"x_max":968,"o":"m 944 779 q 963 770 958 779 q 968 743 968 761 q 933 681 968 681 l 901 681 l 833 28 q 775 -3 829 -3 l 764 -3 q 723 5 735 -3 q 711 28 711 13 l 754 446 l 251 446 l 208 28 q 150 -3 204 -3 l 139 -3 q 98 5 110 -3 q 86 28 86 13 l 154 681 l 106 681 q 87 690 92 681 q 82 718 82 700 q 117 779 82 779 l 165 779 l 182 944 q 240 975 185 975 l 251 975 q 292 967 281 975 q 304 944 304 960 l 286 779 l 789 779 l 807 944 q 865 975 810 975 l 876 975 q 917 967 906 975 q 929 944 929 960 l 913 779 l 944 779 m 765 551 l 779 681 l 276 681 l 263 551 l 765 551 z "},"Ĥ":{"ha":1018,"x_min":86,"x_max":929,"o":"m 86 0 m 876 975 q 917 967 906 975 q 929 944 929 960 l 833 28 q 775 -3 829 -3 l 764 -3 q 723 5 735 -3 q 711 28 711 13 l 754 446 l 251 446 l 208 28 q 150 -3 204 -3 l 139 -3 q 98 5 110 -3 q 86 28 86 13 l 182 944 q 240 975 185 975 l 251 975 q 292 967 281 975 q 304 944 304 960 l 263 551 l 765 551 l 807 944 q 865 975 810 975 l 876 975 m 597 1243 q 658 1213 642 1243 l 724 1090 q 731 1067 731 1081 q 694 1046 728 1046 l 692 1046 q 647 1064 665 1046 l 571 1167 l 475 1064 q 426 1046 453 1046 l 424 1046 q 394 1063 394 1046 q 404 1090 394 1075 l 496 1213 q 563 1243 518 1243 l 597 1243 z "},"Ḥ":{"ha":1018,"x_min":86,"x_max":929,"o":"m 86 0 m 876 975 q 917 967 906 975 q 929 944 929 960 l 833 28 q 775 -3 829 -3 l 764 -3 q 723 5 735 -3 q 711 28 711 13 l 754 446 l 251 446 l 208 28 q 150 -3 204 -3 l 139 -3 q 98 5 110 -3 q 86 28 86 13 l 182 944 q 240 975 185 975 l 251 975 q 292 967 281 975 q 304 944 304 960 l 263 551 l 765 551 l 807 944 q 865 975 810 975 l 876 975 m 474 -108 q 515 -116 503 -108 q 526 -139 526 -124 l 519 -210 q 456 -240 515 -240 q 415 -233 426 -240 q 403 -210 403 -225 l 410 -139 q 474 -108 414 -108 z "},"I":{"ha":392,"x_min":86,"x_max":304,"o":"m 251 975 q 292 967 281 975 q 304 944 304 960 l 208 28 q 150 -3 204 -3 l 139 -3 q 98 5 110 -3 q 86 28 86 13 l 182 944 q 240 975 185 975 l 251 975 z "},"Ĳ":{"ha":950,"x_min":86,"x_max":883,"o":"m 86 0 m 251 975 q 292 967 281 975 q 304 944 304 960 l 208 28 q 150 -3 204 -3 l 139 -3 q 98 5 110 -3 q 86 28 86 13 l 182 944 q 240 975 185 975 l 251 975 m 831 975 q 872 967 860 975 q 883 944 883 960 l 814 285 q 723 69 800 147 q 499 -8 646 -8 q 411 2 446 -8 q 376 36 376 13 q 397 118 376 118 q 428 112 404 118 q 489 106 451 106 q 633 147 585 106 q 690 279 681 189 l 761 944 q 819 975 764 975 l 831 975 z "},"Í":{"ha":392,"x_min":86,"x_max":449,"o":"m 86 0 m 251 975 q 292 967 281 975 q 304 944 304 960 l 208 28 q 150 -3 204 -3 l 139 -3 q 98 5 110 -3 q 86 28 86 13 l 182 944 q 240 975 185 975 l 251 975 m 383 1263 q 449 1246 449 1263 q 435 1222 449 1238 q 358 1140 421 1206 q 301 1083 358 1140 q 269 1065 289 1071 q 228 1058 250 1058 q 197 1071 197 1058 q 216 1111 197 1081 q 293 1226 235 1142 q 328 1254 307 1246 q 383 1263 350 1263 z "},"Ĭ":{"ha":392,"x_min":71,"x_max":474,"o":"m 71 0 m 251 975 q 292 967 281 975 q 304 944 304 960 l 208 28 q 150 -3 204 -3 l 139 -3 q 98 5 110 -3 q 86 28 86 13 l 182 944 q 240 975 185 975 l 251 975 m 454 1239 q 474 1222 474 1239 q 440 1133 474 1171 q 357 1077 407 1096 q 257 1058 307 1058 q 126 1096 181 1058 q 71 1201 71 1133 q 76 1230 71 1221 q 94 1239 81 1239 q 110 1235 106 1239 q 116 1222 114 1231 q 122 1204 118 1213 q 174 1163 135 1176 q 267 1150 213 1150 q 362 1163 321 1150 q 421 1204 403 1176 q 430 1223 426 1214 q 438 1235 433 1232 q 454 1239 443 1239 z "},"Î":{"ha":392,"x_min":82,"x_max":418,"o":"m 82 0 m 251 975 q 292 967 281 975 q 304 944 304 960 l 208 28 q 150 -3 204 -3 l 139 -3 q 98 5 110 -3 q 86 28 86 13 l 182 944 q 240 975 185 975 l 251 975 m 285 1243 q 346 1213 329 1243 l 411 1090 q 418 1067 418 1081 q 382 1046 415 1046 l 379 1046 q 335 1064 353 1046 l 258 1167 l 163 1064 q 114 1046 140 1046 l 111 1046 q 82 1063 82 1046 q 92 1090 82 1075 l 183 1213 q 250 1243 206 1243 l 285 1243 z "},"Ï":{"ha":392,"x_min":86,"x_max":426,"o":"m 86 0 m 251 975 q 292 967 281 975 q 304 944 304 960 l 208 28 q 150 -3 204 -3 l 139 -3 q 98 5 110 -3 q 86 28 86 13 l 182 944 q 240 975 185 975 l 251 975 m 174 1221 q 215 1213 203 1221 q 226 1190 226 1206 l 219 1119 q 156 1089 215 1089 q 115 1097 126 1089 q 103 1119 103 1104 l 110 1190 q 174 1221 114 1221 m 374 1221 q 415 1213 403 1221 q 426 1190 426 1206 l 419 1119 q 356 1089 415 1089 q 315 1097 326 1089 q 303 1119 303 1104 l 310 1190 q 374 1221 313 1221 z "},"İ":{"ha":392,"x_min":86,"x_max":326,"o":"m 86 0 m 251 975 q 292 967 281 975 q 304 944 304 960 l 208 28 q 150 -3 204 -3 l 139 -3 q 98 5 110 -3 q 86 28 86 13 l 182 944 q 240 975 185 975 l 251 975 m 274 1221 q 315 1213 303 1221 q 326 1190 326 1206 l 319 1119 q 256 1089 315 1089 q 215 1097 226 1089 q 203 1119 203 1104 l 210 1190 q 274 1221 214 1221 z "},"Ị":{"ha":392,"x_min":58,"x_max":304,"o":"m 58 0 m 251 975 q 292 967 281 975 q 304 944 304 960 l 208 28 q 150 -3 204 -3 l 139 -3 q 98 5 110 -3 q 86 28 86 13 l 182 944 q 240 975 185 975 l 251 975 m 129 -111 q 170 -119 158 -111 q 182 -142 182 -126 l 175 -212 q 111 -243 171 -243 q 70 -235 82 -243 q 58 -212 58 -228 l 65 -142 q 129 -111 69 -111 z "},"Ì":{"ha":392,"x_min":85,"x_max":318,"o":"m 85 0 m 251 975 q 292 967 281 975 q 304 944 304 960 l 208 28 q 150 -3 204 -3 l 139 -3 q 98 5 110 -3 q 86 28 86 13 l 182 944 q 240 975 185 975 l 251 975 m 151 1263 q 206 1254 185 1263 q 238 1226 226 1246 q 302 1111 286 1142 q 318 1071 318 1081 q 286 1058 318 1058 q 244 1065 264 1058 q 215 1083 225 1071 l 167 1138 q 97 1219 110 1203 q 85 1246 85 1236 q 102 1259 86 1256 q 151 1263 118 1263 z "},"Ỉ":{"ha":392,"x_min":86,"x_max":403,"o":"m 86 0 m 251 975 q 292 967 281 975 q 304 944 304 960 l 208 28 q 150 -3 204 -3 l 139 -3 q 98 5 110 -3 q 86 28 86 13 l 182 944 q 240 975 185 975 l 251 975 m 311 1182 q 298 1208 311 1199 q 264 1217 285 1217 q 217 1208 233 1217 q 197 1199 201 1199 q 179 1216 189 1199 q 169 1244 169 1233 q 208 1273 169 1258 q 282 1288 246 1288 q 365 1264 326 1288 q 403 1190 403 1240 q 374 1110 403 1147 q 310 1051 346 1074 q 265 1028 275 1028 q 227 1035 243 1028 q 211 1051 211 1042 q 221 1072 211 1061 q 249 1094 231 1082 q 294 1135 278 1115 q 311 1182 311 1154 z "},"Ī":{"ha":392,"x_min":64,"x_max":436,"o":"m 64 0 m 251 975 q 292 967 281 975 q 304 944 304 960 l 208 28 q 150 -3 204 -3 l 139 -3 q 98 5 110 -3 q 86 28 86 13 l 182 944 q 240 975 185 975 l 251 975 m 413 1194 q 431 1185 426 1194 q 436 1158 436 1176 q 401 1096 436 1096 l 88 1096 q 69 1106 74 1096 q 64 1133 64 1115 q 99 1194 64 1194 l 413 1194 z "},"Į":{"ha":392,"x_min":56,"x_max":329,"o":"m 321 -132 q 329 -150 329 -132 q 295 -233 329 -211 q 206 -254 261 -254 q 88 -217 119 -254 q 56 -131 56 -179 q 68 -62 56 -103 q 107 1 81 -21 q 86 28 86 7 l 182 944 q 240 975 185 975 l 251 975 q 292 967 281 975 q 304 944 304 960 l 208 28 q 178 0 206 7 q 174 -17 178 -7 q 168 -35 169 -28 q 151 -97 151 -71 q 175 -145 151 -133 q 232 -157 199 -157 q 288 -144 260 -157 q 321 -132 317 -132 z "},"Ĩ":{"ha":392,"x_min":39,"x_max":492,"o":"m 157 1204 q 211 1196 183 1204 q 278 1172 239 1188 q 331 1153 304 1161 q 375 1144 357 1144 q 404 1153 392 1144 q 431 1185 417 1163 q 456 1204 442 1204 q 468 1201 464 1204 l 478 1197 q 492 1181 492 1192 q 486 1161 492 1178 q 438 1088 465 1110 q 372 1067 411 1067 q 315 1075 344 1067 q 246 1100 286 1083 q 151 1126 179 1126 q 124 1117 136 1126 q 99 1085 113 1108 q 76 1065 88 1065 q 64 1068 69 1065 l 51 1074 q 39 1090 39 1079 q 43 1108 39 1099 q 90 1182 63 1160 q 157 1204 118 1204 m 251 975 q 292 967 281 975 q 304 944 304 960 l 208 28 q 150 -3 204 -3 l 139 -3 q 98 5 110 -3 q 86 28 86 13 l 182 944 q 240 975 185 975 l 251 975 z "},"J":{"ha":558,"x_min":-15,"x_max":492,"o":"m 439 975 q 480 967 468 975 q 492 944 492 960 l 422 285 q 331 69 408 147 q 107 -8 254 -8 q 19 2 54 -8 q -15 36 -15 13 q 6 118 -15 118 q 36 112 13 118 q 97 106 60 106 q 241 147 193 106 q 299 279 289 189 l 369 944 q 428 975 372 975 l 439 975 z "},"Ĵ":{"ha":558,"x_min":-15,"x_max":596,"o":"m 0 0 m 439 975 q 480 967 468 975 q 492 944 492 960 l 422 285 q 331 69 408 147 q 107 -8 254 -8 q 19 2 54 -8 q -15 36 -15 13 q 6 118 -15 118 q 36 112 13 118 q 97 106 60 106 q 241 147 193 106 q 299 279 289 189 l 369 944 q 428 975 372 975 l 439 975 m 463 1246 q 524 1215 507 1246 l 589 1093 q 596 1069 596 1083 q 560 1049 593 1049 l 557 1049 q 513 1067 531 1049 l 436 1169 l 340 1067 q 292 1049 318 1049 l 289 1049 q 260 1065 260 1049 q 269 1093 260 1078 l 361 1215 q 428 1246 383 1246 l 463 1246 z "},"K":{"ha":800,"x_min":61,"x_max":763,"o":"m 715 975 q 750 970 738 975 q 763 958 763 965 q 746 929 763 946 l 360 500 l 722 39 q 732 17 732 26 q 717 1 731 6 q 669 -3 703 -3 l 660 -3 q 610 1 628 -3 q 585 15 593 4 l 235 463 l 229 463 l 183 28 q 166 5 181 13 q 125 -3 151 -3 l 114 -3 q 73 5 85 -3 q 61 28 61 13 l 157 944 q 215 975 160 975 l 226 975 q 267 967 256 975 q 279 944 279 960 l 235 519 l 240 519 l 625 956 q 701 975 643 975 l 715 975 z "},"Ķ":{"ha":800,"x_min":61,"x_max":763,"o":"m 61 0 m 715 975 q 750 970 738 975 q 763 958 763 965 q 746 929 763 946 l 360 500 l 722 39 q 732 17 732 26 q 717 1 731 6 q 669 -3 703 -3 l 660 -3 q 610 1 628 -3 q 585 15 593 4 l 235 463 l 229 463 l 183 28 q 166 5 181 13 q 125 -3 151 -3 l 114 -3 q 73 5 85 -3 q 61 28 61 13 l 157 944 q 215 975 160 975 l 226 975 q 267 967 256 975 q 279 944 279 960 l 235 519 l 240 519 l 625 956 q 701 975 643 975 l 715 975 m 365 -71 q 403 -81 390 -71 q 417 -110 417 -92 q 385 -199 417 -147 q 313 -288 354 -250 q 250 -326 272 -326 q 224 -322 236 -326 q 213 -306 213 -317 q 222 -277 213 -293 q 242 -244 231 -261 q 278 -178 265 -207 q 292 -115 292 -150 q 308 -83 292 -96 q 353 -71 325 -71 l 365 -71 z "},"L":{"ha":672,"x_min":69,"x_max":626,"o":"m 233 975 q 274 967 263 975 q 286 944 286 960 l 199 106 l 603 106 q 626 75 626 106 q 620 20 626 40 q 592 0 614 0 l 107 0 q 77 10 85 0 q 69 42 69 19 l 164 944 q 222 975 167 975 l 233 975 z "},"Ǉ":{"ha":997,"x_min":69,"x_max":913,"o":"m 233 975 q 274 967 263 975 q 286 944 286 960 l 199 106 l 486 106 q 510 75 510 106 q 503 20 510 40 q 475 0 497 0 l 107 0 q 77 10 85 0 q 69 42 69 19 l 164 944 q 222 975 167 975 l 233 975 m 860 975 q 901 967 889 975 q 913 944 913 960 l 821 72 q 730 -143 807 -65 q 506 -221 653 -221 q 418 -210 453 -221 q 383 -176 383 -200 q 404 -94 383 -94 q 435 -101 411 -94 q 496 -107 458 -107 q 640 -65 592 -107 q 697 67 688 -24 l 790 944 q 849 975 793 975 l 860 975 z "},"Ĺ":{"ha":672,"x_min":69,"x_max":626,"o":"m 69 0 m 233 975 q 274 967 263 975 q 286 944 286 960 l 199 106 l 603 106 q 626 75 626 106 q 620 20 626 40 q 592 0 614 0 l 107 0 q 77 10 85 0 q 69 42 69 19 l 164 944 q 222 975 167 975 l 233 975 m 367 1265 q 432 1249 432 1265 q 418 1224 432 1240 q 342 1143 404 1208 q 285 1086 342 1143 q 253 1067 272 1074 q 211 1061 233 1061 q 181 1074 181 1061 q 199 1114 181 1083 q 276 1229 218 1144 q 312 1257 290 1249 q 367 1265 333 1265 z "},"Ľ":{"ha":672,"x_min":69,"x_max":626,"o":"m 69 0 m 233 975 q 274 967 263 975 q 286 944 286 960 l 199 106 l 603 106 q 626 75 626 106 q 620 20 626 40 q 592 0 614 0 l 107 0 q 77 10 85 0 q 69 42 69 19 l 164 944 q 222 975 167 975 l 233 975 m 563 972 q 601 962 588 972 q 614 933 614 951 q 590 856 614 901 q 536 778 567 811 q 489 744 506 744 q 463 749 475 744 q 451 765 451 754 q 458 797 451 779 q 465 819 464 815 q 483 874 476 849 q 489 928 489 899 q 506 960 489 947 q 550 972 522 972 l 563 972 z "},"Ļ":{"ha":672,"x_min":69,"x_max":626,"o":"m 69 0 m 233 975 q 274 967 263 975 q 286 944 286 960 l 199 106 l 603 106 q 626 75 626 106 q 620 20 626 40 q 592 0 614 0 l 107 0 q 77 10 85 0 q 69 42 69 19 l 164 944 q 222 975 167 975 l 233 975 m 340 -71 q 378 -81 365 -71 q 392 -110 392 -92 q 360 -199 392 -147 q 288 -288 329 -250 q 225 -326 247 -326 q 199 -322 211 -326 q 188 -306 188 -317 q 197 -277 188 -293 q 217 -244 206 -261 q 253 -178 240 -207 q 267 -115 267 -150 q 283 -83 267 -96 q 328 -71 300 -71 l 340 -71 z "},"Ŀ":{"ha":672,"x_min":69,"x_max":626,"o":"m 69 0 m 233 975 q 274 967 263 975 q 286 944 286 960 l 199 106 l 603 106 q 626 75 626 106 q 620 20 626 40 q 592 0 614 0 l 107 0 q 77 10 85 0 q 69 42 69 19 l 164 944 q 222 975 167 975 l 233 975 m 425 572 q 471 554 453 572 q 489 508 489 536 q 466 451 489 472 q 410 429 443 429 q 364 447 382 429 q 346 492 346 464 q 368 549 346 526 q 425 572 390 572 z "},"ǈ":{"ha":1056,"x_min":69,"x_max":994,"o":"m 69 0 m 233 975 q 274 967 263 975 q 286 944 286 960 l 199 106 l 603 106 q 626 75 626 106 q 620 20 626 40 q 592 0 614 0 l 107 0 q 77 10 85 0 q 69 42 69 19 l 164 944 q 222 975 167 975 l 233 975 m 942 1044 q 983 1038 971 1044 q 994 1014 994 1031 l 986 932 q 933 901 986 901 l 917 901 q 873 908 888 901 q 858 932 858 914 l 867 1014 q 883 1038 868 1031 q 925 1044 897 1044 l 942 1044 m 903 729 q 944 722 932 729 q 956 699 956 714 l 871 -103 q 808 -253 860 -211 q 688 -294 756 -294 q 610 -278 640 -294 q 579 -237 579 -262 q 594 -171 579 -171 q 619 -183 599 -171 q 672 -194 639 -194 q 729 -172 708 -194 q 756 -92 750 -150 l 839 699 q 897 729 843 729 l 903 729 z "},"Ł":{"ha":675,"x_min":-7,"x_max":628,"o":"m 235 975 q 276 967 264 975 q 288 944 288 960 l 254 621 l 413 710 q 428 715 424 715 q 438 696 438 715 q 429 665 438 676 q 406 646 421 654 l 247 557 l 200 106 l 604 106 q 628 75 628 106 q 622 20 628 40 q 593 0 615 0 l 108 0 q 78 10 86 0 q 71 42 71 19 l 117 483 l 17 428 q 3 422 6 422 q -7 442 -7 422 q 1 472 -7 461 q 24 492 8 483 l 124 547 l 165 944 q 224 975 168 975 l 235 975 z "},"M":{"ha":1171,"x_min":75,"x_max":1092,"o":"m 1039 975 q 1080 967 1068 975 q 1092 944 1092 960 l 996 28 q 938 -3 992 -3 l 928 -3 q 887 5 899 -3 q 875 28 875 13 l 953 775 l 949 769 l 624 289 q 590 271 611 271 l 535 271 q 507 289 515 271 l 279 775 l 275 783 l 196 28 q 138 -3 192 -3 l 128 -3 q 87 5 99 -3 q 75 28 75 13 l 171 944 q 229 975 174 975 l 279 975 q 336 950 325 975 l 550 494 l 578 407 l 622 486 l 933 950 q 993 975 949 975 l 1039 975 z "},"N":{"ha":999,"x_min":72,"x_max":925,"o":"m 872 975 q 913 967 901 975 q 925 944 925 960 l 829 28 q 771 -3 825 -3 l 743 -3 q 696 17 707 -3 l 301 708 l 272 779 l 193 28 q 135 -3 189 -3 l 125 -3 q 84 5 96 -3 q 72 28 72 13 l 168 944 q 226 975 171 975 l 256 975 q 290 969 278 975 q 311 949 303 964 l 693 279 l 726 201 l 804 944 q 863 975 807 975 l 872 975 z "},"Ǌ":{"ha":1557,"x_min":72,"x_max":1490,"o":"m 72 0 m 872 975 q 913 967 901 975 q 925 944 925 960 l 829 28 q 771 -3 825 -3 l 743 -3 q 696 17 707 -3 l 301 708 l 272 779 l 193 28 q 135 -3 189 -3 l 125 -3 q 84 5 96 -3 q 72 28 72 13 l 168 944 q 226 975 171 975 l 256 975 q 290 969 278 975 q 311 949 303 964 l 693 279 l 726 201 l 804 944 q 863 975 807 975 l 872 975 m 1438 975 q 1478 967 1467 975 q 1490 944 1490 960 l 1421 285 q 1330 69 1407 147 q 1106 -8 1253 -8 q 1018 2 1053 -8 q 983 36 983 13 q 1004 118 983 118 q 1035 112 1011 118 q 1096 106 1058 106 q 1240 147 1192 106 q 1297 279 1288 189 l 1368 944 q 1426 975 1371 975 l 1438 975 z "},"Ń":{"ha":999,"x_min":72,"x_max":925,"o":"m 72 0 m 872 975 q 913 967 901 975 q 925 944 925 960 l 829 28 q 771 -3 825 -3 l 743 -3 q 696 17 707 -3 l 301 708 l 272 779 l 193 28 q 135 -3 189 -3 l 125 -3 q 84 5 96 -3 q 72 28 72 13 l 168 944 q 226 975 171 975 l 256 975 q 290 969 278 975 q 311 949 303 964 l 693 279 l 726 201 l 804 944 q 863 975 807 975 l 872 975 m 676 1263 q 742 1246 742 1263 q 728 1222 742 1238 q 651 1140 714 1206 q 594 1083 651 1140 q 563 1065 582 1071 q 521 1058 543 1058 q 490 1071 490 1058 q 509 1111 490 1081 q 586 1226 528 1142 q 622 1254 600 1246 q 676 1263 643 1263 z "},"Ň":{"ha":999,"x_min":72,"x_max":925,"o":"m 72 0 m 872 975 q 913 967 901 975 q 925 944 925 960 l 829 28 q 771 -3 825 -3 l 743 -3 q 696 17 707 -3 l 301 708 l 272 779 l 193 28 q 135 -3 189 -3 l 125 -3 q 84 5 96 -3 q 72 28 72 13 l 168 944 q 226 975 171 975 l 256 975 q 290 969 278 975 q 311 949 303 964 l 693 279 l 726 201 l 804 944 q 863 975 807 975 l 872 975 m 707 1251 q 738 1232 738 1251 q 728 1207 738 1221 l 635 1085 q 568 1054 613 1054 l 533 1054 q 472 1085 489 1054 l 408 1207 q 401 1232 401 1219 q 436 1251 404 1251 l 439 1251 q 485 1233 467 1251 l 558 1131 l 657 1233 q 704 1251 679 1251 l 707 1251 z "},"Ņ":{"ha":999,"x_min":72,"x_max":925,"o":"m 72 0 m 872 975 q 913 967 901 975 q 925 944 925 960 l 829 28 q 771 -3 825 -3 l 743 -3 q 696 17 707 -3 l 301 708 l 272 779 l 193 28 q 135 -3 189 -3 l 125 -3 q 84 5 96 -3 q 72 28 72 13 l 168 944 q 226 975 171 975 l 256 975 q 290 969 278 975 q 311 949 303 964 l 693 279 l 726 201 l 804 944 q 863 975 807 975 l 872 975 m 471 -71 q 509 -81 496 -71 q 522 -110 522 -92 q 491 -199 522 -147 q 419 -288 460 -250 q 356 -326 378 -326 q 330 -322 342 -326 q 318 -306 318 -317 q 327 -277 318 -293 q 347 -244 336 -261 q 384 -178 371 -207 q 397 -115 397 -150 q 414 -83 397 -96 q 458 -71 431 -71 l 471 -71 z "},"Ṅ":{"ha":999,"x_min":72,"x_max":925,"o":"m 72 0 m 872 975 q 913 967 901 975 q 925 944 925 960 l 829 28 q 771 -3 825 -3 l 743 -3 q 696 17 707 -3 l 301 708 l 272 779 l 193 28 q 135 -3 189 -3 l 125 -3 q 84 5 96 -3 q 72 28 72 13 l 168 944 q 226 975 171 975 l 256 975 q 290 969 278 975 q 311 949 303 964 l 693 279 l 726 201 l 804 944 q 863 975 807 975 l 872 975 m 567 1221 q 608 1213 596 1221 q 619 1190 619 1206 l 613 1119 q 549 1089 608 1089 q 508 1097 519 1089 q 496 1119 496 1104 l 503 1190 q 567 1221 507 1221 z "},"Ŋ":{"ha":999,"x_min":72,"x_max":925,"o":"m 900 699 l 838 101 l 829 28 l 815 -103 q 752 -253 804 -211 q 632 -294 700 -294 q 554 -278 585 -294 q 524 -237 524 -262 q 539 -171 524 -171 q 563 -183 543 -171 q 617 -194 583 -194 q 674 -172 653 -194 q 700 -92 694 -150 l 710 -6 l 301 708 l 272 779 l 193 28 q 135 -3 189 -3 l 125 -3 q 84 5 96 -3 q 72 28 72 13 l 168 944 q 226 975 171 975 l 256 975 q 290 969 278 975 q 311 949 303 964 l 693 279 l 726 201 l 804 944 q 863 975 807 975 l 872 975 q 913 967 901 975 q 925 944 925 960 l 900 703 l 900 699 z "},"ǋ":{"ha":1382,"x_min":72,"x_max":1321,"o":"m 72 0 m 872 975 q 913 967 901 975 q 925 944 925 960 l 829 28 q 771 -3 825 -3 l 743 -3 q 696 17 707 -3 l 301 708 l 272 779 l 193 28 q 135 -3 189 -3 l 125 -3 q 84 5 96 -3 q 72 28 72 13 l 168 944 q 226 975 171 975 l 256 975 q 290 969 278 975 q 311 949 303 964 l 693 279 l 726 201 l 804 944 q 863 975 807 975 l 872 975 m 1268 1044 q 1309 1038 1297 1044 q 1321 1014 1321 1031 l 1313 932 q 1260 901 1313 901 l 1243 901 q 1199 908 1214 901 q 1185 932 1185 914 l 1193 1014 q 1209 1038 1194 1031 q 1251 1044 1224 1044 l 1268 1044 m 1229 729 q 1270 722 1258 729 q 1282 699 1282 714 l 1197 -103 q 1134 -253 1186 -211 q 1014 -294 1082 -294 q 936 -278 967 -294 q 906 -237 906 -262 q 921 -171 906 -171 q 945 -183 925 -171 q 999 -194 965 -194 q 1056 -172 1035 -194 q 1082 -92 1076 -150 l 1165 699 q 1224 729 1169 729 l 1229 729 z "},"Ñ":{"ha":999,"x_min":72,"x_max":925,"o":"m 72 0 m 872 975 q 913 967 901 975 q 925 944 925 960 l 829 28 q 771 -3 825 -3 l 743 -3 q 696 17 707 -3 l 301 708 l 272 779 l 193 28 q 135 -3 189 -3 l 125 -3 q 84 5 96 -3 q 72 28 72 13 l 168 944 q 226 975 171 975 l 256 975 q 290 969 278 975 q 311 949 303 964 l 693 279 l 726 201 l 804 944 q 863 975 807 975 l 872 975 m 440 1204 q 499 1197 469 1204 q 575 1172 528 1189 q 638 1151 615 1158 q 682 1144 661 1144 q 715 1153 701 1144 q 743 1185 729 1163 q 771 1204 757 1204 q 785 1201 779 1204 l 796 1197 q 811 1181 811 1192 q 806 1161 811 1172 q 753 1089 783 1111 q 679 1067 722 1067 q 540 1100 629 1067 q 478 1120 501 1114 q 433 1126 454 1126 q 403 1117 415 1126 q 375 1085 390 1108 q 362 1069 367 1074 q 350 1065 357 1065 q 336 1068 342 1065 l 322 1074 q 308 1090 308 1079 q 313 1108 308 1099 q 366 1182 335 1160 q 440 1204 397 1204 z "},"O":{"ha":1015,"x_min":74,"x_max":942,"o":"m 558 981 q 844 880 746 981 q 942 583 942 779 q 882 260 942 393 q 713 60 822 128 q 454 -8 604 -8 q 171 93 268 -8 q 74 392 74 194 q 121 683 74 550 q 276 898 168 815 q 558 981 385 981 m 547 875 q 293 754 386 875 q 200 404 200 633 q 267 175 200 253 q 465 97 335 97 q 649 152 571 97 q 771 313 728 207 q 814 569 814 419 q 746 798 814 721 q 547 875 678 875 z "},"Ó":{"ha":1015,"x_min":74,"x_max":942,"o":"m 74 0 m 558 981 q 844 880 746 981 q 942 583 942 779 q 882 260 942 393 q 713 60 822 128 q 454 -8 604 -8 q 171 93 268 -8 q 74 392 74 194 q 121 683 74 550 q 276 898 168 815 q 558 981 385 981 m 547 875 q 293 754 386 875 q 200 404 200 633 q 267 175 200 253 q 465 97 335 97 q 649 152 571 97 q 771 313 728 207 q 814 569 814 419 q 746 798 814 721 q 547 875 678 875 m 692 1263 q 757 1246 757 1263 q 743 1222 757 1238 q 667 1140 729 1206 q 610 1083 667 1140 q 578 1065 597 1071 q 536 1058 558 1058 q 506 1071 506 1058 q 524 1111 506 1081 q 601 1226 543 1142 q 637 1254 615 1246 q 692 1263 658 1263 z "},"Ŏ":{"ha":1015,"x_min":74,"x_max":942,"o":"m 74 0 m 558 981 q 844 880 746 981 q 942 583 942 779 q 882 260 942 393 q 713 60 822 128 q 454 -8 604 -8 q 171 93 268 -8 q 74 392 74 194 q 121 683 74 550 q 276 898 168 815 q 558 981 385 981 m 547 875 q 293 754 386 875 q 200 404 200 633 q 267 175 200 253 q 465 97 335 97 q 649 152 571 97 q 771 313 728 207 q 814 569 814 419 q 746 798 814 721 q 547 875 678 875 m 763 1239 q 782 1222 782 1239 q 749 1133 782 1171 q 665 1077 715 1096 q 565 1058 615 1058 q 434 1096 489 1058 q 379 1201 379 1133 q 384 1230 379 1221 q 403 1239 389 1239 q 418 1235 414 1239 q 424 1222 422 1231 q 431 1204 426 1213 q 482 1163 443 1176 q 575 1150 521 1150 q 670 1163 629 1150 q 729 1204 711 1176 q 738 1223 735 1214 q 747 1235 742 1232 q 763 1239 751 1239 z "},"Ô":{"ha":1015,"x_min":74,"x_max":942,"o":"m 74 0 m 558 981 q 844 880 746 981 q 942 583 942 779 q 882 260 942 393 q 713 60 822 128 q 454 -8 604 -8 q 171 93 268 -8 q 74 392 74 194 q 121 683 74 550 q 276 898 168 815 q 558 981 385 981 m 547 875 q 293 754 386 875 q 200 404 200 633 q 267 175 200 253 q 465 97 335 97 q 649 152 571 97 q 771 313 728 207 q 814 569 814 419 q 746 798 814 721 q 547 875 678 875 m 593 1243 q 654 1213 638 1243 l 719 1090 q 726 1067 726 1081 q 690 1046 724 1046 l 688 1046 q 643 1064 661 1046 l 567 1167 l 471 1064 q 422 1046 449 1046 l 419 1046 q 390 1063 390 1046 q 400 1090 390 1075 l 492 1213 q 558 1243 514 1243 l 593 1243 z "},"Ố":{"ha":1015,"x_min":74,"x_max":942,"o":"m 879 1335 q 924 1318 924 1335 q 894 1278 924 1313 q 796 1169 864 1243 q 743 1144 775 1144 q 713 1157 713 1144 q 789 1299 713 1176 q 823 1325 800 1315 q 879 1335 846 1335 m 604 1243 q 651 1213 638 1243 l 710 1090 q 717 1067 717 1081 q 681 1046 714 1046 l 678 1046 q 633 1064 643 1046 l 578 1167 l 482 1064 q 433 1046 460 1046 l 431 1046 q 401 1063 401 1046 q 411 1090 401 1075 l 503 1213 q 569 1243 525 1243 l 604 1243 m 558 981 q 844 880 746 981 q 942 583 942 779 q 882 260 942 393 q 713 60 822 128 q 454 -8 604 -8 q 171 93 268 -8 q 74 392 74 194 q 121 683 74 550 q 276 898 168 815 q 558 981 385 981 m 547 875 q 293 754 386 875 q 200 404 200 633 q 267 175 200 253 q 465 97 335 97 q 649 152 571 97 q 771 313 728 207 q 814 569 814 419 q 746 798 814 721 q 547 875 678 875 z "},"Ộ":{"ha":1015,"x_min":74,"x_max":942,"o":"m 74 0 m 558 981 q 844 880 746 981 q 942 583 942 779 q 882 260 942 393 q 713 60 822 128 q 454 -8 604 -8 q 171 93 268 -8 q 74 392 74 194 q 121 683 74 550 q 276 898 168 815 q 558 981 385 981 m 547 875 q 293 754 386 875 q 200 404 200 633 q 267 175 200 253 q 465 97 335 97 q 649 152 571 97 q 771 313 728 207 q 814 569 814 419 q 746 798 814 721 q 547 875 678 875 m 593 1243 q 654 1213 638 1243 l 719 1090 q 726 1067 726 1081 q 690 1046 724 1046 l 688 1046 q 643 1064 661 1046 l 567 1167 l 471 1064 q 422 1046 449 1046 l 419 1046 q 390 1063 390 1046 q 400 1090 390 1075 l 492 1213 q 558 1243 514 1243 l 593 1243 m 443 -111 q 484 -119 472 -111 q 496 -142 496 -126 l 489 -212 q 425 -243 485 -243 q 384 -235 396 -243 q 372 -212 372 -228 l 379 -142 q 443 -111 383 -111 z "},"Ồ":{"ha":1015,"x_min":74,"x_max":942,"o":"m 704 1339 q 771 1303 757 1339 q 822 1157 822 1178 q 790 1144 822 1144 q 740 1169 756 1144 q 669 1283 685 1256 q 653 1322 654 1310 q 664 1335 653 1332 q 704 1339 675 1339 m 604 1243 q 651 1213 638 1243 l 710 1090 q 717 1067 717 1081 q 681 1046 714 1046 l 678 1046 q 633 1064 643 1046 l 578 1167 l 482 1064 q 433 1046 460 1046 l 431 1046 q 401 1063 401 1046 q 411 1090 401 1075 l 503 1213 q 569 1243 525 1243 l 604 1243 m 558 981 q 844 880 746 981 q 942 583 942 779 q 882 260 942 393 q 713 60 822 128 q 454 -8 604 -8 q 171 93 268 -8 q 74 392 74 194 q 121 683 74 550 q 276 898 168 815 q 558 981 385 981 m 547 875 q 293 754 386 875 q 200 404 200 633 q 267 175 200 253 q 465 97 335 97 q 649 152 571 97 q 771 313 728 207 q 814 569 814 419 q 746 798 814 721 q 547 875 678 875 z "},"Ổ":{"ha":1015,"x_min":74,"x_max":942,"o":"m 800 1256 q 788 1283 800 1274 q 753 1293 775 1293 q 706 1284 722 1293 q 686 1275 690 1275 q 668 1292 678 1275 q 658 1321 658 1310 q 696 1347 658 1335 q 771 1360 733 1360 q 847 1337 814 1360 q 881 1265 881 1314 q 865 1217 881 1238 q 822 1176 849 1197 q 788 1156 808 1165 q 761 1146 768 1146 q 727 1155 740 1146 q 714 1174 714 1164 q 722 1187 714 1181 q 751 1204 729 1193 q 800 1256 800 1229 m 604 1243 q 651 1213 638 1243 l 710 1090 q 717 1067 717 1081 q 681 1046 714 1046 l 678 1046 q 633 1064 643 1046 l 578 1167 l 482 1064 q 433 1046 460 1046 l 431 1046 q 401 1063 401 1046 q 411 1090 401 1075 l 503 1213 q 569 1243 525 1243 l 604 1243 m 558 981 q 844 880 746 981 q 942 583 942 779 q 882 260 942 393 q 713 60 822 128 q 454 -8 604 -8 q 171 93 268 -8 q 74 392 74 194 q 121 683 74 550 q 276 898 168 815 q 558 981 385 981 m 547 875 q 293 754 386 875 q 200 404 200 633 q 267 175 200 253 q 465 97 335 97 q 649 152 571 97 q 771 313 728 207 q 814 569 814 419 q 746 798 814 721 q 547 875 678 875 z "},"Ỗ":{"ha":1015,"x_min":74,"x_max":942,"o":"m 489 1400 q 540 1392 514 1400 q 610 1368 567 1385 q 663 1349 636 1357 q 708 1340 690 1340 q 738 1349 725 1340 q 764 1381 750 1358 q 789 1400 775 1400 q 801 1397 797 1400 l 811 1393 q 826 1376 826 1386 q 821 1357 826 1374 q 772 1285 800 1307 q 706 1263 744 1263 q 649 1271 678 1263 q 579 1296 619 1279 q 522 1316 544 1310 q 482 1322 500 1322 q 455 1313 467 1322 q 429 1281 443 1304 q 407 1261 418 1261 q 393 1264 399 1261 l 381 1269 q 368 1286 368 1275 q 372 1304 368 1294 q 421 1378 393 1356 q 489 1400 449 1400 m 597 1210 q 658 1179 631 1210 l 722 1092 q 729 1068 729 1082 q 693 1047 726 1047 l 690 1047 q 646 1065 669 1047 l 571 1133 l 474 1065 q 450 1053 463 1058 q 425 1047 438 1047 l 422 1047 q 393 1064 393 1047 q 403 1092 393 1076 l 496 1179 q 530 1202 515 1194 q 563 1210 544 1210 l 597 1210 m 558 981 q 844 880 746 981 q 942 583 942 779 q 882 260 942 393 q 713 60 822 128 q 454 -8 604 -8 q 171 93 268 -8 q 74 392 74 194 q 121 683 74 550 q 276 898 168 815 q 558 981 385 981 m 547 875 q 293 754 386 875 q 200 404 200 633 q 267 175 200 253 q 465 97 335 97 q 649 152 571 97 q 771 313 728 207 q 814 569 814 419 q 746 798 814 721 q 547 875 678 875 z "},"Ö":{"ha":1015,"x_min":74,"x_max":942,"o":"m 74 0 m 558 981 q 844 880 746 981 q 942 583 942 779 q 882 260 942 393 q 713 60 822 128 q 454 -8 604 -8 q 171 93 268 -8 q 74 392 74 194 q 121 683 74 550 q 276 898 168 815 q 558 981 385 981 m 547 875 q 293 754 386 875 q 200 404 200 633 q 267 175 200 253 q 465 97 335 97 q 649 152 571 97 q 771 313 728 207 q 814 569 814 419 q 746 798 814 721 q 547 875 678 875 m 482 1221 q 523 1213 511 1221 q 535 1190 535 1206 l 528 1119 q 464 1089 524 1089 q 423 1097 435 1089 q 411 1119 411 1104 l 418 1190 q 482 1221 422 1221 m 682 1221 q 723 1213 711 1221 q 735 1190 735 1206 l 728 1119 q 664 1089 724 1089 q 623 1097 635 1089 q 611 1119 611 1104 l 618 1190 q 682 1221 621 1221 z "},"Ọ":{"ha":1015,"x_min":74,"x_max":942,"o":"m 74 0 m 558 981 q 844 880 746 981 q 942 583 942 779 q 882 260 942 393 q 713 60 822 128 q 454 -8 604 -8 q 171 93 268 -8 q 74 392 74 194 q 121 683 74 550 q 276 898 168 815 q 558 981 385 981 m 547 875 q 293 754 386 875 q 200 404 200 633 q 267 175 200 253 q 465 97 335 97 q 649 152 571 97 q 771 313 728 207 q 814 569 814 419 q 746 798 814 721 q 547 875 678 875 m 443 -111 q 484 -119 472 -111 q 496 -142 496 -126 l 489 -212 q 425 -243 485 -243 q 384 -235 396 -243 q 372 -212 372 -228 l 379 -142 q 443 -111 383 -111 z "},"Ò":{"ha":1015,"x_min":74,"x_max":942,"o":"m 74 0 m 558 981 q 844 880 746 981 q 942 583 942 779 q 882 260 942 393 q 713 60 822 128 q 454 -8 604 -8 q 171 93 268 -8 q 74 392 74 194 q 121 683 74 550 q 276 898 168 815 q 558 981 385 981 m 547 875 q 293 754 386 875 q 200 404 200 633 q 267 175 200 253 q 465 97 335 97 q 649 152 571 97 q 771 313 728 207 q 814 569 814 419 q 746 798 814 721 q 547 875 678 875 m 460 1263 q 514 1254 493 1263 q 546 1226 535 1246 q 610 1111 594 1142 q 626 1071 626 1081 q 594 1058 626 1058 q 553 1065 572 1058 q 524 1083 533 1071 l 475 1138 q 406 1219 418 1203 q 393 1246 393 1236 q 410 1259 394 1256 q 460 1263 426 1263 z "},"Ỏ":{"ha":1015,"x_min":74,"x_max":942,"o":"m 74 0 m 558 981 q 844 880 746 981 q 942 583 942 779 q 882 260 942 393 q 713 60 822 128 q 454 -8 604 -8 q 171 93 268 -8 q 74 392 74 194 q 121 683 74 550 q 276 898 168 815 q 558 981 385 981 m 547 875 q 293 754 386 875 q 200 404 200 633 q 267 175 200 253 q 465 97 335 97 q 649 152 571 97 q 771 313 728 207 q 814 569 814 419 q 746 798 814 721 q 547 875 678 875 m 619 1182 q 606 1208 619 1199 q 572 1217 593 1217 q 526 1208 542 1217 q 506 1199 510 1199 q 488 1216 497 1199 q 478 1244 478 1233 q 516 1273 478 1258 q 590 1288 554 1288 q 673 1264 635 1288 q 711 1190 711 1240 q 683 1110 711 1147 q 619 1051 654 1074 q 574 1028 583 1028 q 535 1035 551 1028 q 519 1051 519 1042 q 529 1072 519 1061 q 557 1094 539 1082 q 603 1135 586 1115 q 619 1182 619 1154 z "},"Ơ":{"ha":1015,"x_min":74,"x_max":942,"o":"m 811 910 q 942 583 942 811 q 882 260 942 393 q 713 60 822 128 q 454 -8 604 -8 q 171 93 268 -8 q 74 392 74 194 q 121 683 74 550 q 276 898 168 815 q 558 981 385 981 q 744 947 667 981 l 747 947 q 829 1003 829 947 q 811 1053 829 1022 q 805 1065 810 1057 q 800 1079 800 1074 q 815 1101 800 1093 l 851 1124 q 868 1129 858 1129 q 903 1099 890 1129 q 917 1036 917 1069 q 889 958 917 993 q 811 910 861 924 m 465 97 q 649 152 571 97 q 771 313 728 207 q 814 569 814 419 q 746 798 814 721 q 547 875 678 875 q 293 754 386 875 q 200 404 200 633 q 267 175 200 253 q 465 97 335 97 z "},"Ớ":{"ha":1015,"x_min":74,"x_max":942,"o":"m 554 1061 q 524 1074 524 1061 q 542 1114 524 1083 q 619 1229 561 1144 q 655 1257 633 1249 q 710 1265 676 1265 q 775 1249 775 1265 q 761 1224 775 1240 q 685 1143 747 1208 q 628 1086 685 1143 q 596 1067 615 1074 q 554 1061 576 1061 m 811 910 q 942 583 942 811 q 882 260 942 393 q 713 60 822 128 q 454 -8 604 -8 q 171 93 268 -8 q 74 392 74 194 q 121 683 74 550 q 276 898 168 815 q 558 981 385 981 q 744 947 667 981 l 747 947 q 829 1003 829 947 q 811 1053 829 1022 q 805 1065 810 1057 q 800 1079 800 1074 q 815 1101 800 1093 l 851 1124 q 868 1129 858 1129 q 903 1099 890 1129 q 917 1036 917 1069 q 889 958 917 993 q 811 910 861 924 m 465 97 q 649 152 571 97 q 771 313 728 207 q 814 569 814 419 q 746 798 814 721 q 547 875 678 875 q 293 754 386 875 q 200 404 200 633 q 267 175 200 253 q 465 97 335 97 z "},"Ợ":{"ha":1015,"x_min":74,"x_max":942,"o":"m 811 910 q 942 583 942 811 q 882 260 942 393 q 713 60 822 128 q 454 -8 604 -8 q 171 93 268 -8 q 74 392 74 194 q 121 683 74 550 q 276 898 168 815 q 558 981 385 981 q 744 947 667 981 l 747 947 q 829 1003 829 947 q 811 1053 829 1022 q 805 1065 810 1057 q 800 1079 800 1074 q 815 1101 800 1093 l 851 1124 q 868 1129 858 1129 q 903 1099 890 1129 q 917 1036 917 1069 q 889 958 917 993 q 811 910 861 924 m 465 97 q 649 152 571 97 q 771 313 728 207 q 814 569 814 419 q 746 798 814 721 q 547 875 678 875 q 293 754 386 875 q 200 404 200 633 q 267 175 200 253 q 465 97 335 97 m 443 -111 q 484 -119 472 -111 q 496 -142 496 -126 l 489 -212 q 425 -243 485 -243 q 384 -235 396 -243 q 372 -212 372 -228 l 379 -142 q 443 -111 383 -111 z "},"Ờ":{"ha":1015,"x_min":74,"x_max":942,"o":"m 613 1061 q 571 1067 590 1061 q 542 1086 551 1074 l 493 1140 q 424 1222 436 1206 q 411 1249 411 1239 q 428 1262 413 1258 q 478 1265 444 1265 q 532 1257 511 1265 q 564 1229 553 1249 q 628 1114 613 1144 q 644 1074 644 1083 q 613 1061 644 1061 m 811 910 q 942 583 942 811 q 882 260 942 393 q 713 60 822 128 q 454 -8 604 -8 q 171 93 268 -8 q 74 392 74 194 q 121 683 74 550 q 276 898 168 815 q 558 981 385 981 q 744 947 667 981 l 747 947 q 829 1003 829 947 q 811 1053 829 1022 q 805 1065 810 1057 q 800 1079 800 1074 q 815 1101 800 1093 l 851 1124 q 868 1129 858 1129 q 903 1099 890 1129 q 917 1036 917 1069 q 889 958 917 993 q 811 910 861 924 m 465 97 q 649 152 571 97 q 771 313 728 207 q 814 569 814 419 q 746 798 814 721 q 547 875 678 875 q 293 754 386 875 q 200 404 200 633 q 267 175 200 253 q 465 97 335 97 z "},"Ở":{"ha":1015,"x_min":74,"x_max":942,"o":"m 524 1201 q 506 1219 515 1201 q 496 1247 496 1236 q 534 1276 496 1261 q 608 1290 572 1290 q 691 1267 653 1290 q 729 1193 729 1243 q 701 1113 729 1150 q 637 1053 672 1076 q 592 1031 601 1031 q 553 1038 569 1031 q 538 1054 538 1044 q 547 1074 538 1064 q 575 1097 557 1085 q 621 1138 604 1118 q 638 1185 638 1157 q 624 1210 638 1201 q 590 1219 611 1219 q 544 1210 560 1219 q 524 1201 528 1201 m 811 910 q 942 583 942 811 q 882 260 942 393 q 713 60 822 128 q 454 -8 604 -8 q 171 93 268 -8 q 74 392 74 194 q 121 683 74 550 q 276 898 168 815 q 558 981 385 981 q 744 947 667 981 l 747 947 q 829 1003 829 947 q 811 1053 829 1022 q 805 1065 810 1057 q 800 1079 800 1074 q 815 1101 800 1093 l 851 1124 q 868 1129 858 1129 q 903 1099 890 1129 q 917 1036 917 1069 q 889 958 917 993 q 811 910 861 924 m 465 97 q 649 152 571 97 q 771 313 728 207 q 814 569 814 419 q 746 798 814 721 q 547 875 678 875 q 293 754 386 875 q 200 404 200 633 q 267 175 200 253 q 465 97 335 97 z "},"Ỡ":{"ha":1015,"x_min":74,"x_max":942,"o":"m 378 1076 q 365 1093 365 1082 q 369 1111 365 1101 q 417 1185 389 1163 q 483 1207 444 1207 q 538 1199 510 1207 q 604 1175 565 1190 q 657 1156 631 1164 q 701 1147 683 1147 q 731 1156 718 1147 q 757 1188 743 1165 q 782 1207 768 1207 q 794 1204 790 1207 l 804 1200 q 818 1183 818 1194 q 813 1164 818 1181 q 765 1091 792 1113 q 699 1069 738 1069 q 642 1078 671 1069 q 572 1103 613 1086 q 478 1129 506 1129 q 451 1120 463 1129 q 425 1088 439 1111 q 403 1068 414 1068 q 390 1071 396 1068 l 378 1076 m 811 910 q 942 583 942 811 q 882 260 942 393 q 713 60 822 128 q 454 -8 604 -8 q 171 93 268 -8 q 74 392 74 194 q 121 683 74 550 q 276 898 168 815 q 558 981 385 981 q 744 947 667 981 l 747 947 q 829 1003 829 947 q 811 1053 829 1022 q 805 1065 810 1057 q 800 1079 800 1074 q 815 1101 800 1093 l 851 1124 q 868 1129 858 1129 q 903 1099 890 1129 q 917 1036 917 1069 q 889 958 917 993 q 811 910 861 924 m 465 97 q 649 152 571 97 q 771 313 728 207 q 814 569 814 419 q 746 798 814 721 q 547 875 678 875 q 293 754 386 875 q 200 404 200 633 q 267 175 200 253 q 465 97 335 97 z "},"Ő":{"ha":1015,"x_min":74,"x_max":942,"o":"m 74 0 m 558 981 q 844 880 746 981 q 942 583 942 779 q 882 260 942 393 q 713 60 822 128 q 454 -8 604 -8 q 171 93 268 -8 q 74 392 74 194 q 121 683 74 550 q 276 898 168 815 q 558 981 385 981 m 547 875 q 293 754 386 875 q 200 404 200 633 q 267 175 200 253 q 465 97 335 97 q 649 152 571 97 q 771 313 728 207 q 814 569 814 419 q 746 798 814 721 q 547 875 678 875 m 606 1263 q 671 1246 671 1263 q 657 1222 671 1238 q 581 1140 643 1206 q 524 1083 581 1140 q 492 1065 511 1071 q 450 1058 472 1058 q 419 1071 419 1058 q 438 1111 419 1081 q 515 1226 457 1142 q 551 1254 529 1246 q 606 1263 572 1263 m 808 1263 q 874 1246 874 1263 q 860 1222 874 1238 q 783 1140 846 1206 q 726 1083 783 1140 q 694 1065 714 1071 q 653 1058 675 1058 q 622 1071 622 1058 q 641 1111 622 1081 q 718 1226 660 1142 q 753 1254 732 1246 q 808 1263 775 1263 z "},"Ō":{"ha":1015,"x_min":74,"x_max":942,"o":"m 74 0 m 558 981 q 844 880 746 981 q 942 583 942 779 q 882 260 942 393 q 713 60 822 128 q 454 -8 604 -8 q 171 93 268 -8 q 74 392 74 194 q 121 683 74 550 q 276 898 168 815 q 558 981 385 981 m 547 875 q 293 754 386 875 q 200 404 200 633 q 267 175 200 253 q 465 97 335 97 q 649 152 571 97 q 771 313 728 207 q 814 569 814 419 q 746 798 814 721 q 547 875 678 875 m 721 1194 q 740 1185 735 1194 q 744 1158 744 1176 q 710 1096 744 1096 l 396 1096 q 377 1106 382 1096 q 372 1133 372 1115 q 407 1194 372 1194 l 721 1194 z "},"Ǫ":{"ha":1015,"x_min":74,"x_max":942,"o":"m 942 583 q 841 184 942 333 q 560 1 740 35 q 556 -16 560 -6 q 550 -33 551 -26 q 533 -97 533 -72 q 557 -145 533 -133 q 614 -157 581 -157 q 670 -144 642 -157 q 703 -132 699 -132 q 711 -150 711 -132 q 677 -233 711 -211 q 588 -254 643 -254 q 469 -217 501 -254 q 438 -131 438 -179 q 448 -69 438 -106 q 479 -8 458 -32 l 454 -8 q 171 93 268 -8 q 74 392 74 194 q 121 683 74 550 q 276 898 168 815 q 558 981 385 981 q 844 880 746 981 q 942 583 942 779 m 200 404 q 267 175 200 253 q 465 97 335 97 q 649 152 571 97 q 771 313 728 207 q 814 569 814 419 q 746 798 814 721 q 547 875 678 875 q 293 754 386 875 q 200 404 200 633 z "},"Ø":{"ha":1015,"x_min":-1,"x_max":976,"o":"m 558 981 q 843 881 747 981 l 929 965 q 949 975 939 975 q 967 967 958 975 l 969 964 q 976 949 976 957 q 967 929 976 939 l 876 839 q 942 583 942 742 q 882 260 942 393 q 713 60 822 128 q 454 -8 604 -8 q 150 117 246 -8 l 46 13 q 26 1 35 1 q 10 10 18 1 l 7 13 q -1 29 -1 21 q 10 49 -1 38 l 122 161 q 74 392 74 254 q 121 683 74 550 q 276 898 168 815 q 558 981 385 981 m 547 875 q 293 754 386 875 q 200 404 200 633 q 221 260 200 319 l 753 789 q 547 875 683 875 m 243 208 q 465 97 308 97 q 649 152 571 97 q 771 313 728 207 q 814 569 814 419 q 781 744 814 676 l 243 208 z "},"Ǿ":{"ha":1015,"x_min":-1,"x_max":976,"o":"m 0 0 m 558 981 q 843 881 747 981 l 929 965 q 949 975 939 975 q 967 967 958 975 l 969 964 q 976 949 976 957 q 967 929 976 939 l 876 839 q 942 583 942 742 q 882 260 942 393 q 713 60 822 128 q 454 -8 604 -8 q 150 117 246 -8 l 46 13 q 26 1 35 1 q 10 10 18 1 l 7 13 q -1 29 -1 21 q 10 49 -1 38 l 122 161 q 74 392 74 254 q 121 683 74 550 q 276 898 168 815 q 558 981 385 981 m 547 875 q 293 754 386 875 q 200 404 200 633 q 221 260 200 319 l 753 789 q 547 875 683 875 m 243 208 q 465 97 308 97 q 649 152 571 97 q 771 313 728 207 q 814 569 814 419 q 781 744 814 676 l 243 208 m 642 1263 q 707 1246 707 1263 q 693 1222 707 1238 q 617 1140 679 1206 q 560 1083 617 1140 q 528 1065 547 1071 q 486 1058 508 1058 q 456 1071 456 1058 q 474 1111 456 1081 q 551 1226 493 1142 q 587 1254 565 1246 q 642 1263 608 1263 z "},"Õ":{"ha":1015,"x_min":74,"x_max":942,"o":"m 74 0 m 558 981 q 844 880 746 981 q 942 583 942 779 q 882 260 942 393 q 713 60 822 128 q 454 -8 604 -8 q 171 93 268 -8 q 74 392 74 194 q 121 683 74 550 q 276 898 168 815 q 558 981 385 981 m 547 875 q 293 754 386 875 q 200 404 200 633 q 267 175 200 253 q 465 97 335 97 q 649 152 571 97 q 771 313 728 207 q 814 569 814 419 q 746 798 814 721 q 547 875 678 875 m 456 1204 q 514 1197 485 1204 q 590 1172 543 1189 q 653 1151 631 1158 q 697 1144 676 1144 q 731 1153 717 1144 q 758 1185 744 1163 q 786 1204 772 1204 q 800 1201 794 1204 l 811 1197 q 826 1181 826 1192 q 821 1161 826 1172 q 768 1089 799 1111 q 694 1067 738 1067 q 556 1100 644 1067 q 493 1120 517 1114 q 449 1126 469 1126 q 418 1117 431 1126 q 390 1085 406 1108 q 377 1069 382 1074 q 365 1065 372 1065 q 351 1068 357 1065 l 338 1074 q 324 1090 324 1079 q 328 1108 324 1099 q 381 1182 350 1160 q 456 1204 413 1204 z "},"Œ":{"ha":1418,"x_min":74,"x_max":1418,"o":"m 1394 972 q 1418 942 1418 972 q 1412 887 1418 907 q 1383 867 1406 867 l 974 867 l 940 550 l 1307 550 q 1331 519 1331 550 q 1324 465 1331 485 q 1296 444 1318 444 l 929 444 l 894 106 l 1306 106 q 1329 75 1329 106 q 1323 20 1329 40 q 1294 0 1317 0 l 803 0 q 774 8 783 0 q 765 33 765 15 q 772 101 765 42 q 631 20 713 49 q 454 -8 550 -8 q 171 93 268 -8 q 74 392 74 194 q 202 830 74 679 q 558 981 331 981 q 727 953 653 981 q 851 874 801 925 l 858 931 q 871 963 860 953 q 904 972 882 972 l 1394 972 m 465 97 q 649 152 571 97 q 771 313 728 207 q 814 569 814 419 q 746 798 814 721 q 547 875 678 875 q 293 754 386 875 q 200 404 200 633 q 267 175 200 253 q 465 97 335 97 z "},"P":{"ha":792,"x_min":69,"x_max":776,"o":"m 492 972 q 690 922 604 972 q 776 740 776 872 q 715 535 776 608 q 579 438 654 463 q 447 414 504 414 l 232 414 l 192 28 q 133 -3 188 -3 l 122 -3 q 81 5 93 -3 q 69 28 69 13 l 164 931 q 176 963 165 953 q 210 972 188 972 l 492 972 m 279 867 l 243 519 l 460 519 q 539 537 496 519 q 615 599 582 554 q 649 724 649 644 q 598 835 649 803 q 476 867 547 867 l 279 867 z "},"Þ":{"ha":788,"x_min":69,"x_max":758,"o":"m 235 975 q 276 967 264 975 q 288 944 288 960 l 272 803 l 474 803 q 672 753 586 803 q 758 571 758 703 q 701 365 758 438 q 569 269 643 293 q 429 244 496 244 l 214 244 l 192 28 q 133 -3 188 -3 l 122 -3 q 81 5 93 -3 q 69 28 69 13 l 165 944 q 224 975 169 975 l 235 975 m 261 697 l 225 350 l 442 350 q 521 367 478 350 q 597 430 564 385 q 631 554 631 475 q 580 665 631 633 q 458 697 529 697 l 261 697 z "},"Q":{"ha":1015,"x_min":83,"x_max":951,"o":"m 569 981 q 854 878 757 981 q 951 579 951 776 q 862 196 951 344 q 617 7 772 47 l 617 1 l 886 -86 q 899 -96 896 -90 q 903 -114 903 -101 q 895 -197 903 -175 q 874 -218 888 -218 q 397 -31 856 -218 l 301 8 q 83 386 83 93 q 142 710 83 576 q 310 913 201 844 q 569 981 419 981 m 558 875 q 377 820 456 875 q 255 658 299 765 q 211 403 211 551 q 280 173 211 253 q 476 93 349 93 q 659 148 581 93 q 781 308 738 203 q 824 561 824 413 q 756 794 824 714 q 558 875 688 875 z "},"R":{"ha":847,"x_min":69,"x_max":757,"o":"m 443 972 q 676 922 597 972 q 754 761 754 871 q 704 593 754 661 q 568 492 654 525 l 568 486 q 627 431 604 472 q 674 313 650 390 l 754 39 q 757 24 757 28 q 696 -3 757 -3 l 682 -3 q 628 19 633 -3 l 551 292 q 486 399 529 371 q 358 428 443 428 l 233 428 l 192 28 q 174 5 189 13 q 133 -3 160 -3 l 122 -3 q 81 5 93 -3 q 69 28 69 13 l 164 931 q 176 963 165 953 q 210 972 188 972 l 443 972 m 279 867 l 244 533 l 428 533 q 527 560 482 533 q 599 633 572 588 q 625 729 625 678 q 579 833 625 799 q 453 867 533 867 l 279 867 z "},"Ŕ":{"ha":847,"x_min":69,"x_max":757,"o":"m 69 0 m 443 972 q 676 922 597 972 q 754 761 754 871 q 704 593 754 661 q 568 492 654 525 l 568 486 q 627 431 604 472 q 674 313 650 390 l 754 39 q 757 24 757 28 q 696 -3 757 -3 l 682 -3 q 628 19 633 -3 l 551 292 q 486 399 529 371 q 358 428 443 428 l 233 428 l 192 28 q 174 5 189 13 q 133 -3 160 -3 l 122 -3 q 81 5 93 -3 q 69 28 69 13 l 164 931 q 176 963 165 953 q 210 972 188 972 l 443 972 m 279 867 l 244 533 l 428 533 q 527 560 482 533 q 599 633 572 588 q 625 729 625 678 q 579 833 625 799 q 453 867 533 867 l 279 867 m 557 1263 q 622 1246 622 1263 q 608 1222 622 1238 q 532 1140 594 1206 q 475 1083 532 1140 q 443 1065 463 1071 q 401 1058 424 1058 q 371 1071 371 1058 q 390 1111 371 1081 q 467 1226 408 1142 q 502 1254 481 1246 q 557 1263 524 1263 z "},"Ř":{"ha":847,"x_min":69,"x_max":757,"o":"m 69 0 m 443 972 q 676 922 597 972 q 754 761 754 871 q 704 593 754 661 q 568 492 654 525 l 568 486 q 627 431 604 472 q 674 313 650 390 l 754 39 q 757 24 757 28 q 696 -3 757 -3 l 682 -3 q 628 19 633 -3 l 551 292 q 486 399 529 371 q 358 428 443 428 l 233 428 l 192 28 q 174 5 189 13 q 133 -3 160 -3 l 122 -3 q 81 5 93 -3 q 69 28 69 13 l 164 931 q 176 963 165 953 q 210 972 188 972 l 443 972 m 279 867 l 244 533 l 428 533 q 527 560 482 533 q 599 633 572 588 q 625 729 625 678 q 579 833 625 799 q 453 867 533 867 l 279 867 m 588 1251 q 618 1232 618 1251 q 608 1207 618 1221 l 515 1085 q 449 1054 493 1054 l 414 1054 q 353 1085 369 1054 l 289 1207 q 282 1232 282 1219 q 317 1251 285 1251 l 319 1251 q 365 1233 347 1251 l 439 1131 l 538 1233 q 585 1251 560 1251 l 588 1251 z "},"Ŗ":{"ha":847,"x_min":69,"x_max":757,"o":"m 69 0 m 443 972 q 676 922 597 972 q 754 761 754 871 q 704 593 754 661 q 568 492 654 525 l 568 486 q 627 431 604 472 q 674 313 650 390 l 754 39 q 757 24 757 28 q 696 -3 757 -3 l 682 -3 q 628 19 633 -3 l 551 292 q 486 399 529 371 q 358 428 443 428 l 233 428 l 192 28 q 174 5 189 13 q 133 -3 160 -3 l 122 -3 q 81 5 93 -3 q 69 28 69 13 l 164 931 q 176 963 165 953 q 210 972 188 972 l 443 972 m 279 867 l 244 533 l 428 533 q 527 560 482 533 q 599 633 572 588 q 625 729 625 678 q 579 833 625 799 q 453 867 533 867 l 279 867 m 386 -71 q 424 -81 411 -71 q 438 -110 438 -92 q 406 -199 438 -147 q 334 -288 375 -250 q 271 -326 293 -326 q 245 -322 257 -326 q 233 -306 233 -317 q 242 -277 233 -293 q 263 -244 251 -261 q 299 -178 286 -207 q 313 -115 313 -150 q 329 -83 313 -96 q 374 -71 346 -71 l 386 -71 z "},"Ṛ":{"ha":847,"x_min":69,"x_max":757,"o":"m 69 0 m 443 972 q 676 922 597 972 q 754 761 754 871 q 704 593 754 661 q 568 492 654 525 l 568 486 q 627 431 604 472 q 674 313 650 390 l 754 39 q 757 24 757 28 q 696 -3 757 -3 l 682 -3 q 628 19 633 -3 l 551 292 q 486 399 529 371 q 358 428 443 428 l 233 428 l 192 28 q 174 5 189 13 q 133 -3 160 -3 l 122 -3 q 81 5 93 -3 q 69 28 69 13 l 164 931 q 176 963 165 953 q 210 972 188 972 l 443 972 m 279 867 l 244 533 l 428 533 q 527 560 482 533 q 599 633 572 588 q 625 729 625 678 q 579 833 625 799 q 453 867 533 867 l 279 867 m 371 -111 q 412 -119 400 -111 q 424 -142 424 -126 l 417 -212 q 353 -243 413 -243 q 312 -235 324 -243 q 300 -212 300 -228 l 307 -142 q 371 -111 311 -111 z "},"S":{"ha":694,"x_min":50,"x_max":644,"o":"m 417 981 q 524 969 471 981 q 610 938 576 957 q 644 899 644 919 q 625 851 644 881 q 590 822 606 822 q 567 832 585 822 q 500 863 535 850 q 417 875 465 875 q 275 833 332 875 q 218 713 218 790 q 240 633 218 665 q 293 581 261 601 q 378 536 325 560 q 508 470 461 499 q 590 392 556 442 q 625 269 625 343 q 587 131 625 193 q 469 30 549 68 q 274 -8 390 -8 q 116 17 182 -8 q 50 103 50 43 q 56 146 50 124 q 76 168 63 168 q 96 160 83 168 q 113 150 108 153 q 199 112 151 126 q 297 97 246 97 q 443 142 388 97 q 499 258 499 188 q 474 337 499 304 q 417 388 450 369 q 328 432 383 407 q 210 492 258 463 q 128 574 163 522 q 93 703 93 626 q 136 849 93 786 q 253 947 179 913 q 417 981 326 981 z "},"Ś":{"ha":694,"x_min":50,"x_max":644,"o":"m 50 0 m 417 981 q 524 969 471 981 q 610 938 576 957 q 644 899 644 919 q 625 851 644 881 q 590 822 606 822 q 567 832 585 822 q 500 863 535 850 q 417 875 465 875 q 275 833 332 875 q 218 713 218 790 q 240 633 218 665 q 293 581 261 601 q 378 536 325 560 q 508 470 461 499 q 590 392 556 442 q 625 269 625 343 q 587 131 625 193 q 469 30 549 68 q 274 -8 390 -8 q 116 17 182 -8 q 50 103 50 43 q 56 146 50 124 q 76 168 63 168 q 96 160 83 168 q 113 150 108 153 q 199 112 151 126 q 297 97 246 97 q 443 142 388 97 q 499 258 499 188 q 474 337 499 304 q 417 388 450 369 q 328 432 383 407 q 210 492 258 463 q 128 574 163 522 q 93 703 93 626 q 136 849 93 786 q 253 947 179 913 q 417 981 326 981 m 550 1263 q 615 1246 615 1263 q 601 1222 615 1238 q 525 1140 588 1206 q 468 1083 525 1140 q 436 1065 456 1071 q 394 1058 417 1058 q 364 1071 364 1058 q 383 1111 364 1081 q 460 1226 401 1142 q 495 1254 474 1246 q 550 1263 517 1263 z "},"Š":{"ha":694,"x_min":50,"x_max":644,"o":"m 50 0 m 417 981 q 524 969 471 981 q 610 938 576 957 q 644 899 644 919 q 625 851 644 881 q 590 822 606 822 q 567 832 585 822 q 500 863 535 850 q 417 875 465 875 q 275 833 332 875 q 218 713 218 790 q 240 633 218 665 q 293 581 261 601 q 378 536 325 560 q 508 470 461 499 q 590 392 556 442 q 625 269 625 343 q 587 131 625 193 q 469 30 549 68 q 274 -8 390 -8 q 116 17 182 -8 q 50 103 50 43 q 56 146 50 124 q 76 168 63 168 q 96 160 83 168 q 113 150 108 153 q 199 112 151 126 q 297 97 246 97 q 443 142 388 97 q 499 258 499 188 q 474 337 499 304 q 417 388 450 369 q 328 432 383 407 q 210 492 258 463 q 128 574 163 522 q 93 703 93 626 q 136 849 93 786 q 253 947 179 913 q 417 981 326 981 m 581 1251 q 611 1232 611 1251 q 601 1207 611 1221 l 508 1085 q 442 1054 486 1054 l 407 1054 q 346 1085 363 1054 l 282 1207 q 275 1232 275 1219 q 310 1251 278 1251 l 313 1251 q 358 1233 340 1251 l 432 1131 l 531 1233 q 578 1251 553 1251 l 581 1251 z "},"Ş":{"ha":694,"x_min":50,"x_max":644,"o":"m 378 536 q 508 470 461 499 q 590 392 556 442 q 625 269 625 343 q 551 86 625 163 q 333 -6 476 10 l 308 -68 l 314 -68 q 387 -86 351 -68 q 422 -154 422 -104 q 370 -263 422 -235 q 249 -292 318 -292 q 159 -279 204 -292 q 114 -235 114 -267 q 119 -197 114 -204 q 131 -189 124 -189 q 161 -207 133 -190 q 239 -224 189 -224 q 322 -168 322 -224 q 310 -140 322 -149 q 274 -124 297 -131 q 247 -111 256 -117 q 239 -96 239 -106 q 249 -70 240 -92 q 274 -8 257 -49 q 116 17 182 -8 q 50 103 50 43 q 56 146 50 124 q 76 168 63 168 q 96 160 83 168 q 113 150 108 153 q 199 112 151 126 q 297 97 246 97 q 443 142 388 97 q 499 258 499 188 q 474 337 499 304 q 417 388 450 369 q 328 432 383 407 q 210 492 258 463 q 128 574 163 522 q 93 703 93 626 q 136 849 93 786 q 253 947 179 913 q 417 981 326 981 q 524 969 471 981 q 610 938 576 957 q 644 899 644 919 q 625 851 644 881 q 590 822 606 822 q 567 832 585 822 q 500 863 535 850 q 417 875 465 875 q 275 833 332 875 q 218 713 218 790 q 240 633 218 665 q 293 581 261 601 q 378 536 325 560 z "},"Ŝ":{"ha":694,"x_min":50,"x_max":644,"o":"m 50 0 m 417 981 q 524 969 471 981 q 610 938 576 957 q 644 899 644 919 q 625 851 644 881 q 590 822 606 822 q 567 832 585 822 q 500 863 535 850 q 417 875 465 875 q 275 833 332 875 q 218 713 218 790 q 240 633 218 665 q 293 581 261 601 q 378 536 325 560 q 508 470 461 499 q 590 392 556 442 q 625 269 625 343 q 587 131 625 193 q 469 30 549 68 q 274 -8 390 -8 q 116 17 182 -8 q 50 103 50 43 q 56 146 50 124 q 76 168 63 168 q 96 160 83 168 q 113 150 108 153 q 199 112 151 126 q 297 97 246 97 q 443 142 388 97 q 499 258 499 188 q 474 337 499 304 q 417 388 450 369 q 328 432 383 407 q 210 492 258 463 q 128 574 163 522 q 93 703 93 626 q 136 849 93 786 q 253 947 179 913 q 417 981 326 981 m 451 1243 q 513 1213 496 1243 l 578 1090 q 585 1067 585 1081 q 549 1046 582 1046 l 546 1046 q 501 1064 519 1046 l 425 1167 l 329 1064 q 281 1046 307 1046 l 278 1046 q 249 1063 249 1046 q 258 1090 249 1075 l 350 1213 q 417 1243 372 1243 l 451 1243 z "},"Ș":{"ha":694,"x_min":50,"x_max":644,"o":"m 50 0 m 417 981 q 524 969 471 981 q 610 938 576 957 q 644 899 644 919 q 625 851 644 881 q 590 822 606 822 q 567 832 585 822 q 500 863 535 850 q 417 875 465 875 q 275 833 332 875 q 218 713 218 790 q 240 633 218 665 q 293 581 261 601 q 378 536 325 560 q 508 470 461 499 q 590 392 556 442 q 625 269 625 343 q 587 131 625 193 q 469 30 549 68 q 274 -8 390 -8 q 116 17 182 -8 q 50 103 50 43 q 56 146 50 124 q 76 168 63 168 q 96 160 83 168 q 113 150 108 153 q 199 112 151 126 q 297 97 246 97 q 443 142 388 97 q 499 258 499 188 q 474 337 499 304 q 417 388 450 369 q 328 432 383 407 q 210 492 258 463 q 128 574 163 522 q 93 703 93 626 q 136 849 93 786 q 253 947 179 913 q 417 981 326 981 m 310 -71 q 348 -81 335 -71 q 361 -110 361 -92 q 330 -199 361 -147 q 258 -288 299 -250 q 194 -326 217 -326 q 169 -322 181 -326 q 157 -306 157 -317 q 166 -277 157 -293 q 186 -244 175 -261 q 223 -178 210 -207 q 236 -115 236 -150 q 253 -83 236 -96 q 297 -71 269 -71 l 310 -71 z "},"Ṣ":{"ha":694,"x_min":50,"x_max":644,"o":"m 50 0 m 417 981 q 524 969 471 981 q 610 938 576 957 q 644 899 644 919 q 625 851 644 881 q 590 822 606 822 q 567 832 585 822 q 500 863 535 850 q 417 875 465 875 q 275 833 332 875 q 218 713 218 790 q 240 633 218 665 q 293 581 261 601 q 378 536 325 560 q 508 470 461 499 q 590 392 556 442 q 625 269 625 343 q 587 131 625 193 q 469 30 549 68 q 274 -8 390 -8 q 116 17 182 -8 q 50 103 50 43 q 56 146 50 124 q 76 168 63 168 q 96 160 83 168 q 113 150 108 153 q 199 112 151 126 q 297 97 246 97 q 443 142 388 97 q 499 258 499 188 q 474 337 499 304 q 417 388 450 369 q 328 432 383 407 q 210 492 258 463 q 128 574 163 522 q 93 703 93 626 q 136 849 93 786 q 253 947 179 913 q 417 981 326 981 m 294 -111 q 335 -119 324 -111 q 347 -142 347 -126 l 340 -212 q 276 -243 336 -243 q 235 -235 247 -243 q 224 -212 224 -228 l 231 -142 q 294 -111 235 -111 z "},"ẞ":{"ha":972,"x_min":86,"x_max":917,"o":"m 572 981 q 889 936 771 981 q 906 907 894 933 q 917 869 917 881 q 910 846 917 856 l 674 551 q 852 471 800 526 q 904 317 904 415 q 853 131 904 204 q 727 25 803 58 q 576 -8 651 -8 q 437 7 515 -8 q 357 61 358 22 q 363 127 357 111 q 378 143 368 143 q 429 117 381 142 q 576 92 478 92 q 719 144 656 92 q 783 317 783 196 q 731 431 783 397 q 579 464 678 464 l 543 464 q 526 490 535 464 q 517 531 517 517 q 524 554 517 544 l 767 856 q 551 875 669 875 q 350 801 419 875 q 268 603 281 728 l 208 28 q 192 5 207 13 q 150 -3 176 -3 l 139 -3 q 98 5 110 -3 q 86 28 86 13 l 146 597 q 265 876 163 771 q 572 981 367 981 z "},"Ə":{"ha":933,"x_min":96,"x_max":850,"o":"m 481 981 q 743 905 636 981 q 850 617 850 829 q 802 303 850 443 q 653 78 754 163 q 399 -6 553 -6 q 226 38 294 -6 q 127 142 158 81 q 96 263 96 204 q 222 521 96 442 q 540 600 349 600 q 729 590 654 600 q 699 767 729 703 q 612 856 668 831 q 471 881 556 881 q 330 859 389 881 q 213 804 271 838 q 193 793 207 801 q 172 785 179 785 q 165 788 167 785 q 163 801 163 790 q 169 864 163 828 q 235 929 179 903 q 360 968 290 956 q 481 981 431 981 m 554 500 q 330 459 443 500 q 217 274 217 418 q 240 185 217 226 q 308 119 264 144 q 411 94 353 94 q 722 500 675 94 l 554 500 z "},"T":{"ha":763,"x_min":67,"x_max":781,"o":"m 757 972 q 781 942 781 972 q 774 887 781 907 q 746 867 768 867 l 482 867 l 394 28 q 377 5 392 13 q 336 -3 363 -3 l 325 -3 q 284 5 296 -3 q 272 28 272 13 l 360 867 l 90 867 q 67 897 67 867 q 73 952 67 932 q 101 972 79 972 l 757 972 z "},"Ŧ":{"ha":763,"x_min":67,"x_max":781,"o":"m 757 972 q 781 942 781 972 q 774 887 781 907 q 746 867 768 867 l 482 867 l 447 540 l 635 540 q 653 531 649 540 q 658 504 658 522 q 624 442 658 442 l 438 442 l 394 28 q 377 5 392 13 q 336 -3 363 -3 l 325 -3 q 284 5 296 -3 q 272 28 272 13 l 315 442 l 115 442 q 97 451 101 442 q 92 479 92 461 q 126 540 92 540 l 325 540 l 360 867 l 90 867 q 67 897 67 867 q 73 952 67 932 q 101 972 79 972 l 757 972 z "},"Ť":{"ha":763,"x_min":67,"x_max":781,"o":"m 67 0 m 757 972 q 781 942 781 972 q 774 887 781 907 q 746 867 768 867 l 482 867 l 394 28 q 377 5 392 13 q 336 -3 363 -3 l 325 -3 q 284 5 296 -3 q 272 28 272 13 l 360 867 l 90 867 q 67 897 67 867 q 73 952 67 932 q 101 972 79 972 l 757 972 m 588 1251 q 618 1232 618 1251 q 608 1207 618 1221 l 515 1085 q 449 1054 493 1054 l 414 1054 q 353 1085 369 1054 l 289 1207 q 282 1232 282 1219 q 317 1251 285 1251 l 319 1251 q 365 1233 347 1251 l 439 1131 l 538 1233 q 585 1251 560 1251 l 588 1251 z "},"Ţ":{"ha":763,"x_min":67,"x_max":781,"o":"m 67 0 m 757 972 q 781 942 781 972 q 774 887 781 907 q 746 867 768 867 l 482 867 l 394 28 q 377 5 392 13 q 336 -3 363 -3 l 325 -3 q 284 5 296 -3 q 272 28 272 13 l 360 867 l 90 867 q 67 897 67 867 q 73 952 67 932 q 101 972 79 972 l 757 972 m 324 -71 q 397 -89 361 -71 q 432 -157 432 -107 q 380 -266 432 -237 q 258 -294 328 -294 q 169 -282 214 -294 q 124 -237 124 -269 q 128 -199 124 -207 q 140 -192 133 -192 q 171 -210 143 -193 q 249 -226 199 -226 q 332 -171 332 -226 q 319 -142 332 -151 q 283 -126 307 -133 q 257 -114 265 -119 q 249 -99 249 -108 q 259 -70 250 -93 q 286 -3 268 -47 l 346 -3 l 318 -71 l 324 -71 z "},"Ț":{"ha":763,"x_min":67,"x_max":781,"o":"m 67 0 m 757 972 q 781 942 781 972 q 774 887 781 907 q 746 867 768 867 l 482 867 l 394 28 q 377 5 392 13 q 336 -3 363 -3 l 325 -3 q 284 5 296 -3 q 272 28 272 13 l 360 867 l 90 867 q 67 897 67 867 q 73 952 67 932 q 101 972 79 972 l 757 972 m 319 -74 q 358 -84 344 -74 q 371 -112 371 -94 q 340 -201 371 -150 q 267 -291 308 -253 q 204 -329 226 -329 q 178 -324 190 -329 q 167 -308 167 -319 q 176 -280 167 -296 q 196 -247 185 -264 q 233 -181 219 -210 q 246 -118 246 -153 q 263 -86 246 -99 q 307 -74 279 -74 l 319 -74 z "},"Ṭ":{"ha":763,"x_min":67,"x_max":781,"o":"m 67 0 m 757 972 q 781 942 781 972 q 774 887 781 907 q 746 867 768 867 l 482 867 l 394 28 q 377 5 392 13 q 336 -3 363 -3 l 325 -3 q 284 5 296 -3 q 272 28 272 13 l 360 867 l 90 867 q 67 897 67 867 q 73 952 67 932 q 101 972 79 972 l 757 972 m 304 -114 q 345 -122 333 -114 q 357 -144 357 -129 l 350 -215 q 286 -246 346 -246 q 245 -238 257 -246 q 233 -215 233 -231 l 240 -144 q 304 -114 244 -114 z "},"U":{"ha":989,"x_min":89,"x_max":917,"o":"m 865 975 q 906 967 894 975 q 917 944 917 960 l 850 311 q 727 76 835 160 q 438 -8 619 -8 q 178 64 268 -8 q 89 268 89 136 q 158 944 89 282 q 218 975 161 975 l 229 975 q 269 967 258 975 q 281 944 281 960 q 213 286 213 300 q 274 149 213 200 q 449 97 335 97 q 584 124 522 97 q 684 199 646 151 q 728 307 722 247 l 794 944 q 854 975 797 975 l 865 975 z "},"Ú":{"ha":989,"x_min":89,"x_max":917,"o":"m 89 0 m 865 975 q 906 967 894 975 q 917 944 917 960 l 850 311 q 727 76 835 160 q 438 -8 619 -8 q 178 64 268 -8 q 89 268 89 136 q 158 944 89 282 q 218 975 161 975 l 229 975 q 269 967 258 975 q 281 944 281 960 q 213 286 213 300 q 274 149 213 200 q 449 97 335 97 q 584 124 522 97 q 684 199 646 151 q 728 307 722 247 l 794 944 q 854 975 797 975 l 865 975 m 669 1263 q 735 1246 735 1263 q 721 1222 735 1238 q 644 1140 707 1206 q 588 1083 644 1140 q 556 1065 575 1071 q 514 1058 536 1058 q 483 1071 483 1058 q 502 1111 483 1081 q 579 1226 521 1142 q 615 1254 593 1246 q 669 1263 636 1263 z "},"Ŭ":{"ha":989,"x_min":89,"x_max":917,"o":"m 89 0 m 865 975 q 906 967 894 975 q 917 944 917 960 l 850 311 q 727 76 835 160 q 438 -8 619 -8 q 178 64 268 -8 q 89 268 89 136 q 158 944 89 282 q 218 975 161 975 l 229 975 q 269 967 258 975 q 281 944 281 960 q 213 286 213 300 q 274 149 213 200 q 449 97 335 97 q 584 124 522 97 q 684 199 646 151 q 728 307 722 247 l 794 944 q 854 975 797 975 l 865 975 m 740 1239 q 760 1222 760 1239 q 726 1133 760 1171 q 643 1077 693 1096 q 543 1058 593 1058 q 412 1096 467 1058 q 357 1201 357 1133 q 362 1230 357 1221 q 381 1239 367 1239 q 396 1235 392 1239 q 402 1222 400 1231 q 408 1204 404 1213 q 460 1163 421 1176 q 553 1150 499 1150 q 648 1163 607 1150 q 707 1204 689 1176 q 716 1223 713 1214 q 724 1235 719 1232 q 740 1239 729 1239 z "},"Û":{"ha":989,"x_min":89,"x_max":917,"o":"m 89 0 m 865 975 q 906 967 894 975 q 917 944 917 960 l 850 311 q 727 76 835 160 q 438 -8 619 -8 q 178 64 268 -8 q 89 268 89 136 q 158 944 89 282 q 218 975 161 975 l 229 975 q 269 967 258 975 q 281 944 281 960 q 213 286 213 300 q 274 149 213 200 q 449 97 335 97 q 584 124 522 97 q 684 199 646 151 q 728 307 722 247 l 794 944 q 854 975 797 975 l 865 975 m 571 1243 q 632 1213 615 1243 l 697 1090 q 704 1067 704 1081 q 668 1046 701 1046 l 665 1046 q 621 1064 639 1046 l 544 1167 l 449 1064 q 400 1046 426 1046 l 397 1046 q 368 1063 368 1046 q 378 1090 368 1075 l 469 1213 q 536 1243 492 1243 l 571 1243 z "},"Ü":{"ha":989,"x_min":89,"x_max":917,"o":"m 89 0 m 865 975 q 906 967 894 975 q 917 944 917 960 l 850 311 q 727 76 835 160 q 438 -8 619 -8 q 178 64 268 -8 q 89 268 89 136 q 158 944 89 282 q 218 975 161 975 l 229 975 q 269 967 258 975 q 281 944 281 960 q 213 286 213 300 q 274 149 213 200 q 449 97 335 97 q 584 124 522 97 q 684 199 646 151 q 728 307 722 247 l 794 944 q 854 975 797 975 l 865 975 m 460 1221 q 501 1213 489 1221 q 513 1190 513 1206 l 506 1119 q 442 1089 501 1089 q 401 1097 413 1089 q 389 1119 389 1104 l 396 1190 q 460 1221 400 1221 m 660 1221 q 701 1213 689 1221 q 713 1190 713 1206 l 706 1119 q 642 1089 701 1089 q 601 1097 613 1089 q 589 1119 589 1104 l 596 1190 q 660 1221 599 1221 z "},"Ụ":{"ha":989,"x_min":89,"x_max":917,"o":"m 89 0 m 865 975 q 906 967 894 975 q 917 944 917 960 l 850 311 q 727 76 835 160 q 438 -8 619 -8 q 178 64 268 -8 q 89 268 89 136 q 158 944 89 282 q 218 975 161 975 l 229 975 q 269 967 258 975 q 281 944 281 960 q 213 286 213 300 q 274 149 213 200 q 449 97 335 97 q 584 124 522 97 q 684 199 646 151 q 728 307 722 247 l 794 944 q 854 975 797 975 l 865 975 m 429 -111 q 470 -119 458 -111 q 482 -142 482 -126 l 475 -212 q 411 -243 471 -243 q 370 -235 382 -243 q 358 -212 358 -228 l 365 -142 q 429 -111 369 -111 z "},"Ù":{"ha":989,"x_min":89,"x_max":917,"o":"m 89 0 m 865 975 q 906 967 894 975 q 917 944 917 960 l 850 311 q 727 76 835 160 q 438 -8 619 -8 q 178 64 268 -8 q 89 268 89 136 q 158 944 89 282 q 218 975 161 975 l 229 975 q 269 967 258 975 q 281 944 281 960 q 213 286 213 300 q 274 149 213 200 q 449 97 335 97 q 584 124 522 97 q 684 199 646 151 q 728 307 722 247 l 794 944 q 854 975 797 975 l 865 975 m 438 1263 q 492 1254 471 1263 q 524 1226 513 1246 q 588 1111 572 1142 q 604 1071 604 1081 q 572 1058 604 1058 q 531 1065 550 1058 q 501 1083 511 1071 l 453 1138 q 383 1219 396 1203 q 371 1246 371 1236 q 388 1259 372 1256 q 438 1263 404 1263 z "},"Ủ":{"ha":989,"x_min":89,"x_max":917,"o":"m 89 0 m 865 975 q 906 967 894 975 q 917 944 917 960 l 850 311 q 727 76 835 160 q 438 -8 619 -8 q 178 64 268 -8 q 89 268 89 136 q 158 944 89 282 q 218 975 161 975 l 229 975 q 269 967 258 975 q 281 944 281 960 q 213 286 213 300 q 274 149 213 200 q 449 97 335 97 q 584 124 522 97 q 684 199 646 151 q 728 307 722 247 l 794 944 q 854 975 797 975 l 865 975 m 597 1182 q 584 1208 597 1199 q 550 1217 571 1217 q 503 1208 519 1217 q 483 1199 488 1199 q 465 1216 475 1199 q 456 1244 456 1233 q 494 1273 456 1258 q 568 1288 532 1288 q 651 1264 613 1288 q 689 1190 689 1240 q 660 1110 689 1147 q 597 1051 632 1074 q 551 1028 561 1028 q 513 1035 529 1028 q 497 1051 497 1042 q 507 1072 497 1061 q 535 1094 517 1082 q 581 1135 564 1115 q 597 1182 597 1154 z "},"Ư":{"ha":989,"x_min":89,"x_max":1072,"o":"m 1072 1064 q 1030 972 1072 1011 q 915 929 988 933 l 850 311 q 727 76 835 160 q 438 -8 619 -8 q 178 64 268 -8 q 89 268 89 136 q 158 944 89 282 q 218 975 161 975 l 229 975 q 269 967 258 975 q 281 944 281 960 q 213 286 213 300 q 274 149 213 200 q 449 97 335 97 q 584 124 522 97 q 684 199 646 151 q 728 307 722 247 l 794 944 q 854 975 797 975 l 903 975 q 985 1031 985 975 q 967 1081 985 1050 q 960 1093 965 1085 q 956 1107 956 1101 q 971 1129 956 1121 l 1007 1151 q 1024 1157 1014 1157 q 1059 1127 1046 1157 q 1072 1064 1072 1097 z "},"Ứ":{"ha":989,"x_min":89,"x_max":1072,"o":"m 514 1058 q 483 1071 483 1058 q 502 1111 483 1081 q 579 1226 521 1142 q 615 1254 593 1246 q 669 1263 636 1263 q 735 1246 735 1263 q 721 1222 735 1238 q 644 1140 707 1206 q 588 1083 644 1140 q 556 1065 575 1071 q 514 1058 536 1058 m 1072 1064 q 1030 972 1072 1011 q 915 929 988 933 l 850 311 q 727 76 835 160 q 438 -8 619 -8 q 178 64 268 -8 q 89 268 89 136 q 158 944 89 282 q 218 975 161 975 l 229 975 q 269 967 258 975 q 281 944 281 960 q 213 286 213 300 q 274 149 213 200 q 449 97 335 97 q 584 124 522 97 q 684 199 646 151 q 728 307 722 247 l 794 944 q 854 975 797 975 l 903 975 q 985 1031 985 975 q 967 1081 985 1050 q 960 1093 965 1085 q 956 1107 956 1101 q 971 1129 956 1121 l 1007 1151 q 1024 1157 1014 1157 q 1059 1127 1046 1157 q 1072 1064 1072 1097 z "},"Ự":{"ha":989,"x_min":89,"x_max":1072,"o":"m 1072 1064 q 1030 972 1072 1011 q 915 929 988 933 l 850 311 q 727 76 835 160 q 438 -8 619 -8 q 178 64 268 -8 q 89 268 89 136 q 158 944 89 282 q 218 975 161 975 l 229 975 q 269 967 258 975 q 281 944 281 960 q 213 286 213 300 q 274 149 213 200 q 449 97 335 97 q 584 124 522 97 q 684 199 646 151 q 728 307 722 247 l 794 944 q 854 975 797 975 l 903 975 q 985 1031 985 975 q 967 1081 985 1050 q 960 1093 965 1085 q 956 1107 956 1101 q 971 1129 956 1121 l 1007 1151 q 1024 1157 1014 1157 q 1059 1127 1046 1157 q 1072 1064 1072 1097 m 429 -111 q 470 -119 458 -111 q 482 -142 482 -126 l 475 -212 q 411 -243 471 -243 q 370 -235 382 -243 q 358 -212 358 -228 l 365 -142 q 429 -111 369 -111 z "},"Ừ":{"ha":989,"x_min":89,"x_max":1072,"o":"m 572 1058 q 531 1065 550 1058 q 501 1083 511 1071 l 453 1138 q 383 1219 396 1203 q 371 1246 371 1236 q 388 1259 372 1256 q 438 1263 404 1263 q 492 1254 471 1263 q 524 1226 513 1246 q 588 1111 572 1142 q 604 1071 604 1081 q 572 1058 604 1058 m 1072 1064 q 1030 972 1072 1011 q 915 929 988 933 l 850 311 q 727 76 835 160 q 438 -8 619 -8 q 178 64 268 -8 q 89 268 89 136 q 158 944 89 282 q 218 975 161 975 l 229 975 q 269 967 258 975 q 281 944 281 960 q 213 286 213 300 q 274 149 213 200 q 449 97 335 97 q 584 124 522 97 q 684 199 646 151 q 728 307 722 247 l 794 944 q 854 975 797 975 l 903 975 q 985 1031 985 975 q 967 1081 985 1050 q 960 1093 965 1085 q 956 1107 956 1101 q 971 1129 956 1121 l 1007 1151 q 1024 1157 1014 1157 q 1059 1127 1046 1157 q 1072 1064 1072 1097 z "},"Ử":{"ha":989,"x_min":89,"x_max":1072,"o":"m 483 1199 q 465 1216 475 1199 q 456 1244 456 1233 q 494 1273 456 1258 q 568 1288 532 1288 q 651 1264 613 1288 q 689 1190 689 1240 q 660 1110 689 1147 q 597 1051 632 1074 q 551 1028 561 1028 q 513 1035 529 1028 q 497 1051 497 1042 q 507 1072 497 1061 q 535 1094 517 1082 q 581 1135 564 1115 q 597 1182 597 1154 q 584 1208 597 1199 q 550 1217 571 1217 q 503 1208 519 1217 q 483 1199 488 1199 m 1072 1064 q 1030 972 1072 1011 q 915 929 988 933 l 850 311 q 727 76 835 160 q 438 -8 619 -8 q 178 64 268 -8 q 89 268 89 136 q 158 944 89 282 q 218 975 161 975 l 229 975 q 269 967 258 975 q 281 944 281 960 q 213 286 213 300 q 274 149 213 200 q 449 97 335 97 q 584 124 522 97 q 684 199 646 151 q 728 307 722 247 l 794 944 q 854 975 797 975 l 903 975 q 985 1031 985 975 q 967 1081 985 1050 q 960 1093 965 1085 q 956 1107 956 1101 q 971 1129 956 1121 l 1007 1151 q 1024 1157 1014 1157 q 1059 1127 1046 1157 q 1072 1064 1072 1097 z "},"Ữ":{"ha":989,"x_min":89,"x_max":1072,"o":"m 315 1074 q 301 1090 301 1079 q 306 1108 301 1099 q 359 1182 328 1160 q 433 1204 390 1204 q 492 1197 463 1204 q 568 1172 521 1189 q 631 1151 608 1158 q 675 1144 654 1144 q 708 1153 694 1144 q 736 1185 722 1163 q 764 1204 750 1204 q 778 1201 772 1204 l 789 1197 q 804 1181 804 1192 q 799 1161 804 1172 q 746 1089 776 1111 q 672 1067 715 1067 q 533 1100 622 1067 q 471 1120 494 1114 q 426 1126 447 1126 q 396 1117 408 1126 q 368 1085 383 1108 q 355 1069 360 1074 q 343 1065 350 1065 q 329 1068 335 1065 l 315 1074 m 1072 1064 q 1030 972 1072 1011 q 915 929 988 933 l 850 311 q 727 76 835 160 q 438 -8 619 -8 q 178 64 268 -8 q 89 268 89 136 q 158 944 89 282 q 218 975 161 975 l 229 975 q 269 967 258 975 q 281 944 281 960 q 213 286 213 300 q 274 149 213 200 q 449 97 335 97 q 584 124 522 97 q 684 199 646 151 q 728 307 722 247 l 794 944 q 854 975 797 975 l 903 975 q 985 1031 985 975 q 967 1081 985 1050 q 960 1093 965 1085 q 956 1107 956 1101 q 971 1129 956 1121 l 1007 1151 q 1024 1157 1014 1157 q 1059 1127 1046 1157 q 1072 1064 1072 1097 z "},"Ű":{"ha":989,"x_min":89,"x_max":917,"o":"m 89 0 m 865 975 q 906 967 894 975 q 917 944 917 960 l 850 311 q 727 76 835 160 q 438 -8 619 -8 q 178 64 268 -8 q 89 268 89 136 q 158 944 89 282 q 218 975 161 975 l 229 975 q 269 967 258 975 q 281 944 281 960 q 213 286 213 300 q 274 149 213 200 q 449 97 335 97 q 584 124 522 97 q 684 199 646 151 q 728 307 722 247 l 794 944 q 854 975 797 975 l 865 975 m 583 1263 q 649 1246 649 1263 q 635 1222 649 1238 q 558 1140 621 1206 q 501 1083 558 1140 q 469 1065 489 1071 q 428 1058 450 1058 q 397 1071 397 1058 q 416 1111 397 1081 q 493 1226 435 1142 q 528 1254 507 1246 q 583 1263 550 1263 m 786 1263 q 851 1246 851 1263 q 838 1222 851 1238 q 761 1140 824 1206 q 704 1083 761 1140 q 672 1065 692 1071 q 631 1058 653 1058 q 600 1071 600 1058 q 619 1111 600 1081 q 696 1226 638 1142 q 731 1254 710 1246 q 786 1263 753 1263 z "},"Ū":{"ha":989,"x_min":89,"x_max":917,"o":"m 89 0 m 865 975 q 906 967 894 975 q 917 944 917 960 l 850 311 q 727 76 835 160 q 438 -8 619 -8 q 178 64 268 -8 q 89 268 89 136 q 158 944 89 282 q 218 975 161 975 l 229 975 q 269 967 258 975 q 281 944 281 960 q 213 286 213 300 q 274 149 213 200 q 449 97 335 97 q 584 124 522 97 q 684 199 646 151 q 728 307 722 247 l 794 944 q 854 975 797 975 l 865 975 m 699 1194 q 717 1185 713 1194 q 722 1158 722 1176 q 688 1096 722 1096 l 374 1096 q 355 1106 360 1096 q 350 1133 350 1115 q 385 1194 350 1194 l 699 1194 z "},"Ų":{"ha":989,"x_min":89,"x_max":917,"o":"m 865 975 q 906 967 894 975 q 917 944 917 960 l 850 311 q 762 108 838 188 q 556 3 686 28 q 544 -33 556 -6 q 529 -97 529 -76 q 553 -145 529 -133 q 610 -157 576 -157 q 666 -144 638 -157 q 699 -132 694 -132 q 707 -150 707 -132 q 673 -233 707 -211 q 583 -254 639 -254 q 465 -217 497 -254 q 433 -131 433 -179 q 444 -69 433 -106 q 475 -7 454 -32 q 438 -8 463 -8 q 178 64 268 -8 q 89 268 89 136 q 158 944 89 282 q 218 975 161 975 l 229 975 q 269 967 258 975 q 281 944 281 960 q 213 286 213 300 q 274 149 213 200 q 449 97 335 97 q 584 124 522 97 q 684 199 646 151 q 728 307 722 247 l 794 944 q 854 975 797 975 l 865 975 z "},"Ů":{"ha":989,"x_min":89,"x_max":917,"o":"m 89 0 m 865 975 q 906 967 894 975 q 917 944 917 960 l 850 311 q 727 76 835 160 q 438 -8 619 -8 q 178 64 268 -8 q 89 268 89 136 q 158 944 89 282 q 218 975 161 975 l 229 975 q 269 967 258 975 q 281 944 281 960 q 213 286 213 300 q 274 149 213 200 q 449 97 335 97 q 584 124 522 97 q 684 199 646 151 q 728 307 722 247 l 794 944 q 854 975 797 975 l 865 975 m 547 1264 q 623 1233 593 1264 q 653 1158 653 1203 q 615 1067 653 1106 q 524 1029 576 1029 q 448 1059 478 1029 q 418 1135 418 1089 q 457 1226 418 1188 q 547 1264 496 1264 m 543 1215 q 490 1193 513 1215 q 467 1140 467 1171 q 483 1095 467 1113 q 528 1078 500 1078 q 582 1100 560 1078 q 604 1154 604 1122 q 587 1198 604 1181 q 543 1215 569 1215 z "},"Ũ":{"ha":989,"x_min":89,"x_max":917,"o":"m 89 0 m 865 975 q 906 967 894 975 q 917 944 917 960 l 850 311 q 727 76 835 160 q 438 -8 619 -8 q 178 64 268 -8 q 89 268 89 136 q 158 944 89 282 q 218 975 161 975 l 229 975 q 269 967 258 975 q 281 944 281 960 q 213 286 213 300 q 274 149 213 200 q 449 97 335 97 q 584 124 522 97 q 684 199 646 151 q 728 307 722 247 l 794 944 q 854 975 797 975 l 865 975 m 433 1204 q 492 1197 463 1204 q 568 1172 521 1189 q 631 1151 608 1158 q 675 1144 654 1144 q 708 1153 694 1144 q 736 1185 722 1163 q 764 1204 750 1204 q 778 1201 772 1204 l 789 1197 q 804 1181 804 1192 q 799 1161 804 1172 q 746 1089 776 1111 q 672 1067 715 1067 q 533 1100 622 1067 q 471 1120 494 1114 q 426 1126 447 1126 q 396 1117 408 1126 q 368 1085 383 1108 q 355 1069 360 1074 q 343 1065 350 1065 q 329 1068 335 1065 l 315 1074 q 301 1090 301 1079 q 306 1108 301 1099 q 359 1182 328 1160 q 433 1204 390 1204 z "},"V":{"ha":857,"x_min":76,"x_max":876,"o":"m 818 975 q 876 953 876 975 q 869 932 876 946 l 456 19 q 399 -3 446 -3 l 356 -3 q 301 19 307 -3 l 165 579 l 76 946 q 139 975 76 975 l 151 975 q 206 953 200 975 l 385 211 l 392 139 l 396 139 l 418 213 l 753 953 q 810 975 763 975 l 818 975 z "},"W":{"ha":1225,"x_min":68,"x_max":1253,"o":"m 1194 975 q 1253 953 1253 975 q 910 19 1253 947 q 853 -3 903 -3 l 796 -3 q 742 19 746 -3 l 650 585 l 640 765 l 592 585 l 382 19 q 325 -3 372 -3 l 268 -3 q 214 19 218 -3 l 68 947 q 85 969 68 964 q 131 975 101 975 l 143 975 q 197 953 193 975 l 303 269 q 310 201 307 246 q 314 140 313 157 l 363 276 l 601 951 q 618 970 606 965 q 657 975 631 975 l 679 975 q 732 951 728 975 l 832 268 q 839 195 836 238 q 842 140 842 153 l 890 279 l 1129 953 q 1186 975 1136 975 l 1194 975 z "},"Ẃ":{"ha":1225,"x_min":68,"x_max":1253,"o":"m 68 0 m 1194 975 q 1253 953 1253 975 q 910 19 1253 947 q 853 -3 903 -3 l 796 -3 q 742 19 746 -3 l 650 585 l 640 765 l 592 585 l 382 19 q 325 -3 372 -3 l 268 -3 q 214 19 218 -3 l 68 947 q 85 969 68 964 q 131 975 101 975 l 143 975 q 197 953 193 975 l 303 269 q 310 201 307 246 q 314 140 313 157 l 363 276 l 601 951 q 618 970 606 965 q 657 975 631 975 l 679 975 q 732 951 728 975 l 832 268 q 839 195 836 238 q 842 140 842 153 l 890 279 l 1129 953 q 1186 975 1136 975 l 1194 975 m 801 1263 q 867 1246 867 1263 q 853 1222 867 1238 q 776 1140 839 1206 q 719 1083 776 1140 q 688 1065 707 1071 q 646 1058 668 1058 q 615 1071 615 1058 q 634 1111 615 1081 q 711 1226 653 1142 q 747 1254 725 1246 q 801 1263 768 1263 z "},"Ŵ":{"ha":1225,"x_min":68,"x_max":1253,"o":"m 68 0 m 1194 975 q 1253 953 1253 975 q 910 19 1253 947 q 853 -3 903 -3 l 796 -3 q 742 19 746 -3 l 650 585 l 640 765 l 592 585 l 382 19 q 325 -3 372 -3 l 268 -3 q 214 19 218 -3 l 68 947 q 85 969 68 964 q 131 975 101 975 l 143 975 q 197 953 193 975 l 303 269 q 310 201 307 246 q 314 140 313 157 l 363 276 l 601 951 q 618 970 606 965 q 657 975 631 975 l 679 975 q 732 951 728 975 l 832 268 q 839 195 836 238 q 842 140 842 153 l 890 279 l 1129 953 q 1186 975 1136 975 l 1194 975 m 703 1243 q 764 1213 747 1243 l 829 1090 q 836 1067 836 1081 q 800 1046 833 1046 l 797 1046 q 753 1064 771 1046 l 676 1167 l 581 1064 q 532 1046 558 1046 l 529 1046 q 500 1063 500 1046 q 510 1090 500 1075 l 601 1213 q 668 1243 624 1243 l 703 1243 z "},"Ẅ":{"ha":1225,"x_min":68,"x_max":1253,"o":"m 68 0 m 1194 975 q 1253 953 1253 975 q 910 19 1253 947 q 853 -3 903 -3 l 796 -3 q 742 19 746 -3 l 650 585 l 640 765 l 592 585 l 382 19 q 325 -3 372 -3 l 268 -3 q 214 19 218 -3 l 68 947 q 85 969 68 964 q 131 975 101 975 l 143 975 q 197 953 193 975 l 303 269 q 310 201 307 246 q 314 140 313 157 l 363 276 l 601 951 q 618 970 606 965 q 657 975 631 975 l 679 975 q 732 951 728 975 l 832 268 q 839 195 836 238 q 842 140 842 153 l 890 279 l 1129 953 q 1186 975 1136 975 l 1194 975 m 592 1221 q 633 1213 621 1221 q 644 1190 644 1206 l 638 1119 q 574 1089 633 1089 q 533 1097 544 1089 q 521 1119 521 1104 l 528 1190 q 592 1221 532 1221 m 792 1221 q 833 1213 821 1221 q 844 1190 844 1206 l 838 1119 q 774 1089 833 1089 q 733 1097 744 1089 q 721 1119 721 1104 l 728 1190 q 792 1221 731 1221 z "},"Ẁ":{"ha":1225,"x_min":68,"x_max":1253,"o":"m 68 0 m 1194 975 q 1253 953 1253 975 q 910 19 1253 947 q 853 -3 903 -3 l 796 -3 q 742 19 746 -3 l 650 585 l 640 765 l 592 585 l 382 19 q 325 -3 372 -3 l 268 -3 q 214 19 218 -3 l 68 947 q 85 969 68 964 q 131 975 101 975 l 143 975 q 197 953 193 975 l 303 269 q 310 201 307 246 q 314 140 313 157 l 363 276 l 601 951 q 618 970 606 965 q 657 975 631 975 l 679 975 q 732 951 728 975 l 832 268 q 839 195 836 238 q 842 140 842 153 l 890 279 l 1129 953 q 1186 975 1136 975 l 1194 975 m 569 1263 q 624 1254 603 1263 q 656 1226 644 1246 q 720 1111 704 1142 q 736 1071 736 1081 q 704 1058 736 1058 q 663 1065 682 1058 q 633 1083 643 1071 l 585 1138 q 515 1219 528 1203 q 503 1246 503 1236 q 520 1259 504 1256 q 569 1263 536 1263 z "},"X":{"ha":849,"x_min":-24,"x_max":833,"o":"m 771 975 q 819 969 804 975 q 833 953 833 964 q 819 926 833 946 l 499 514 l 761 46 q 769 24 769 29 q 755 3 769 10 q 704 -3 740 -3 l 682 -3 q 644 1 658 -3 q 624 18 631 6 l 408 400 l 110 17 q 49 -3 96 -3 l 38 -3 q -24 19 -24 -3 q -10 46 -24 29 l 349 507 l 115 926 q 107 949 107 939 q 122 969 107 963 q 172 975 136 975 l 192 975 q 229 971 215 975 q 250 954 243 967 l 438 619 l 701 956 q 763 975 715 975 l 771 975 z "},"Y":{"ha":776,"x_min":74,"x_max":800,"o":"m 750 975 q 800 953 800 974 q 786 926 800 946 l 449 494 l 400 28 q 342 -3 396 -3 l 331 -3 q 290 5 301 -3 q 278 28 278 13 l 326 499 l 82 926 q 74 949 74 939 q 88 969 74 963 q 139 975 103 975 l 154 975 q 192 971 178 975 q 213 954 206 967 l 404 613 l 674 956 q 738 975 688 975 l 750 975 z "},"Ý":{"ha":776,"x_min":74,"x_max":800,"o":"m 74 0 m 750 975 q 800 953 800 974 q 786 926 800 946 l 449 494 l 400 28 q 342 -3 396 -3 l 331 -3 q 290 5 301 -3 q 278 28 278 13 l 326 499 l 82 926 q 74 949 74 939 q 88 969 74 963 q 139 975 103 975 l 154 975 q 192 971 178 975 q 213 954 206 967 l 404 613 l 674 956 q 738 975 688 975 l 750 975 m 578 1263 q 643 1246 643 1263 q 629 1222 643 1238 q 553 1140 615 1206 q 496 1083 553 1140 q 464 1065 483 1071 q 422 1058 444 1058 q 392 1071 392 1058 q 410 1111 392 1081 q 488 1226 429 1142 q 523 1254 501 1246 q 578 1263 544 1263 z "},"Ŷ":{"ha":776,"x_min":74,"x_max":800,"o":"m 74 0 m 750 975 q 800 953 800 974 q 786 926 800 946 l 449 494 l 400 28 q 342 -3 396 -3 l 331 -3 q 290 5 301 -3 q 278 28 278 13 l 326 499 l 82 926 q 74 949 74 939 q 88 969 74 963 q 139 975 103 975 l 154 975 q 192 971 178 975 q 213 954 206 967 l 404 613 l 674 956 q 738 975 688 975 l 750 975 m 479 1243 q 540 1213 524 1243 l 606 1090 q 613 1067 613 1081 q 576 1046 610 1046 l 574 1046 q 529 1064 547 1046 l 453 1167 l 357 1064 q 308 1046 335 1046 l 306 1046 q 276 1063 276 1046 q 286 1090 276 1075 l 378 1213 q 444 1243 400 1243 l 479 1243 z "},"Ÿ":{"ha":776,"x_min":74,"x_max":800,"o":"m 74 0 m 750 975 q 800 953 800 974 q 786 926 800 946 l 449 494 l 400 28 q 342 -3 396 -3 l 331 -3 q 290 5 301 -3 q 278 28 278 13 l 326 499 l 82 926 q 74 949 74 939 q 88 969 74 963 q 139 975 103 975 l 154 975 q 192 971 178 975 q 213 954 206 967 l 404 613 l 674 956 q 738 975 688 975 l 750 975 m 368 1221 q 409 1213 397 1221 q 421 1190 421 1206 l 414 1119 q 350 1089 410 1089 q 309 1097 321 1089 q 297 1119 297 1104 l 304 1190 q 368 1221 308 1221 m 568 1221 q 609 1213 597 1221 q 621 1190 621 1206 l 614 1119 q 550 1089 610 1089 q 509 1097 521 1089 q 497 1119 497 1104 l 504 1190 q 568 1221 507 1221 z "},"Ỵ":{"ha":776,"x_min":74,"x_max":800,"o":"m 74 0 m 750 975 q 800 953 800 974 q 786 926 800 946 l 449 494 l 400 28 q 342 -3 396 -3 l 331 -3 q 290 5 301 -3 q 278 28 278 13 l 326 499 l 82 926 q 74 949 74 939 q 88 969 74 963 q 139 975 103 975 l 154 975 q 192 971 178 975 q 213 954 206 967 l 404 613 l 674 956 q 738 975 688 975 l 750 975 m 324 -111 q 365 -119 353 -111 q 376 -142 376 -126 l 369 -212 q 306 -243 365 -243 q 265 -235 276 -243 q 253 -212 253 -228 l 260 -142 q 324 -111 264 -111 z "},"Ỳ":{"ha":776,"x_min":74,"x_max":800,"o":"m 74 0 m 750 975 q 800 953 800 974 q 786 926 800 946 l 449 494 l 400 28 q 342 -3 396 -3 l 331 -3 q 290 5 301 -3 q 278 28 278 13 l 326 499 l 82 926 q 74 949 74 939 q 88 969 74 963 q 139 975 103 975 l 154 975 q 192 971 178 975 q 213 954 206 967 l 404 613 l 674 956 q 738 975 688 975 l 750 975 m 346 1263 q 400 1254 379 1263 q 432 1226 421 1246 q 497 1111 481 1142 q 513 1071 513 1081 q 481 1058 513 1058 q 439 1065 458 1058 q 410 1083 419 1071 l 361 1138 q 292 1219 304 1203 q 279 1246 279 1236 q 297 1259 281 1256 q 346 1263 313 1263 z "},"Ỷ":{"ha":776,"x_min":74,"x_max":800,"o":"m 74 0 m 750 975 q 800 953 800 974 q 786 926 800 946 l 449 494 l 400 28 q 342 -3 396 -3 l 331 -3 q 290 5 301 -3 q 278 28 278 13 l 326 499 l 82 926 q 74 949 74 939 q 88 969 74 963 q 139 975 103 975 l 154 975 q 192 971 178 975 q 213 954 206 967 l 404 613 l 674 956 q 738 975 688 975 l 750 975 m 506 1182 q 492 1208 506 1199 q 458 1217 479 1217 q 412 1208 428 1217 q 392 1199 396 1199 q 374 1216 383 1199 q 364 1244 364 1233 q 402 1273 364 1258 q 476 1288 440 1288 q 559 1264 521 1288 q 597 1190 597 1240 q 569 1110 597 1147 q 505 1051 540 1074 q 460 1028 469 1028 q 422 1035 438 1028 q 406 1051 406 1042 q 415 1072 406 1061 q 443 1094 425 1082 q 489 1135 472 1115 q 506 1182 506 1154 z "},"Ỹ":{"ha":776,"x_min":74,"x_max":800,"o":"m 74 0 m 750 975 q 800 953 800 974 q 786 926 800 946 l 449 494 l 400 28 q 342 -3 396 -3 l 331 -3 q 290 5 301 -3 q 278 28 278 13 l 326 499 l 82 926 q 74 949 74 939 q 88 969 74 963 q 139 975 103 975 l 154 975 q 192 971 178 975 q 213 954 206 967 l 404 613 l 674 956 q 738 975 688 975 l 750 975 m 342 1204 q 400 1197 371 1204 q 476 1172 429 1189 q 540 1151 517 1158 q 583 1144 563 1144 q 617 1153 603 1144 q 644 1185 631 1163 q 672 1204 658 1204 q 686 1201 681 1204 l 697 1197 q 713 1181 713 1192 q 707 1161 713 1172 q 654 1089 685 1111 q 581 1067 624 1067 q 442 1100 531 1067 q 379 1120 403 1114 q 335 1126 356 1126 q 304 1117 317 1126 q 276 1085 292 1108 q 263 1069 268 1074 q 251 1065 258 1065 q 238 1068 243 1065 l 224 1074 q 210 1090 210 1079 q 214 1108 210 1099 q 267 1182 236 1160 q 342 1204 299 1204 z "},"Z":{"ha":856,"x_min":8,"x_max":836,"o":"m 813 972 q 828 949 819 972 q 836 906 836 926 q 829 882 836 889 l 179 106 l 724 106 q 747 75 747 106 q 741 20 747 40 q 713 0 735 0 l 35 0 q 17 23 25 0 q 8 67 8 46 q 15 90 8 83 l 665 867 l 164 867 q 140 897 140 867 q 147 952 140 932 q 175 972 153 972 l 813 972 z "},"Ź":{"ha":856,"x_min":8,"x_max":836,"o":"m 8 0 m 813 972 q 828 949 819 972 q 836 906 836 926 q 829 882 836 889 l 179 106 l 724 106 q 747 75 747 106 q 741 20 747 40 q 713 0 735 0 l 35 0 q 17 23 25 0 q 8 67 8 46 q 15 90 8 83 l 665 867 l 164 867 q 140 897 140 867 q 147 952 140 932 q 175 972 153 972 l 813 972 m 603 1263 q 668 1246 668 1263 q 654 1222 668 1238 q 578 1140 640 1206 q 521 1083 578 1140 q 489 1065 508 1071 q 447 1058 469 1058 q 417 1071 417 1058 q 435 1111 417 1081 q 513 1226 454 1142 q 548 1254 526 1246 q 603 1263 569 1263 z "},"Ž":{"ha":856,"x_min":8,"x_max":836,"o":"m 8 0 m 813 972 q 828 949 819 972 q 836 906 836 926 q 829 882 836 889 l 179 106 l 724 106 q 747 75 747 106 q 741 20 747 40 q 713 0 735 0 l 35 0 q 17 23 25 0 q 8 67 8 46 q 15 90 8 83 l 665 867 l 164 867 q 140 897 140 867 q 147 952 140 932 q 175 972 153 972 l 813 972 m 633 1251 q 664 1232 664 1251 q 654 1207 664 1221 l 561 1085 q 494 1054 539 1054 l 460 1054 q 399 1085 415 1054 l 335 1207 q 328 1232 328 1219 q 363 1251 331 1251 l 365 1251 q 411 1233 393 1251 l 485 1131 l 583 1233 q 631 1251 606 1251 l 633 1251 z "},"Ż":{"ha":856,"x_min":8,"x_max":836,"o":"m 8 0 m 813 972 q 828 949 819 972 q 836 906 836 926 q 829 882 836 889 l 179 106 l 724 106 q 747 75 747 106 q 741 20 747 40 q 713 0 735 0 l 35 0 q 17 23 25 0 q 8 67 8 46 q 15 90 8 83 l 665 867 l 164 867 q 140 897 140 867 q 147 952 140 932 q 175 972 153 972 l 813 972 m 493 1221 q 534 1213 522 1221 q 546 1190 546 1206 l 539 1119 q 475 1089 535 1089 q 434 1097 446 1089 q 422 1119 422 1104 l 429 1190 q 493 1221 433 1221 z "},"Ẓ":{"ha":856,"x_min":8,"x_max":836,"o":"m 8 0 m 813 972 q 828 949 819 972 q 836 906 836 926 q 829 882 836 889 l 179 106 l 724 106 q 747 75 747 106 q 741 20 747 40 q 713 0 735 0 l 35 0 q 17 23 25 0 q 8 67 8 46 q 15 90 8 83 l 665 867 l 164 867 q 140 897 140 867 q 147 952 140 932 q 175 972 153 972 l 813 972 m 385 -111 q 426 -119 414 -111 q 438 -142 438 -126 l 431 -212 q 367 -243 426 -243 q 326 -235 338 -243 q 314 -212 314 -228 l 321 -142 q 385 -111 325 -111 z "},"a":{"ha":757,"x_min":56,"x_max":718,"o":"m 710 99 q 718 89 718 99 q 713 38 718 68 q 681 3 708 14 q 629 -8 654 -8 q 504 128 504 -8 l 504 142 q 408 28 464 64 q 288 -8 351 -8 q 182 19 235 -8 q 92 113 129 46 q 56 292 56 179 q 98 522 56 421 q 217 678 140 622 q 396 735 294 735 q 572 660 493 735 q 597 713 585 697 q 635 729 608 729 l 643 729 q 670 722 663 729 q 678 700 678 715 q 646 396 669 619 q 622 149 622 172 q 635 101 622 111 q 672 92 649 92 q 693 95 682 92 q 710 99 704 99 m 540 510 q 551 579 543 535 q 407 633 483 633 q 228 540 281 633 q 176 300 176 446 q 214 141 176 189 q 314 93 251 93 q 426 148 369 93 q 522 328 483 203 q 533 444 528 394 q 540 510 539 494 z "},"á":{"ha":757,"x_min":56,"x_max":718,"o":"m 56 0 m 710 99 q 718 89 718 99 q 713 38 718 68 q 681 3 708 14 q 629 -8 654 -8 q 504 128 504 -8 l 504 142 q 408 28 464 64 q 288 -8 351 -8 q 182 19 235 -8 q 92 113 129 46 q 56 292 56 179 q 98 522 56 421 q 217 678 140 622 q 396 735 294 735 q 572 660 493 735 q 597 713 585 697 q 635 729 608 729 l 643 729 q 670 722 663 729 q 678 700 678 715 q 646 396 669 619 q 622 149 622 172 q 635 101 622 111 q 672 92 649 92 q 693 95 682 92 q 710 99 704 99 m 540 510 q 551 579 543 535 q 407 633 483 633 q 228 540 281 633 q 176 300 176 446 q 214 141 176 189 q 314 93 251 93 q 426 148 369 93 q 522 328 483 203 q 533 444 528 394 q 540 510 539 494 m 526 1017 q 592 1000 592 1017 q 578 976 592 992 q 501 894 564 960 q 444 838 501 894 q 413 819 432 825 q 371 813 393 813 q 340 825 340 813 q 359 865 340 835 q 436 981 378 896 q 472 1008 450 1000 q 526 1017 493 1017 z "},"ă":{"ha":757,"x_min":56,"x_max":718,"o":"m 56 0 m 710 99 q 718 89 718 99 q 713 38 718 68 q 681 3 708 14 q 629 -8 654 -8 q 504 128 504 -8 l 504 142 q 408 28 464 64 q 288 -8 351 -8 q 182 19 235 -8 q 92 113 129 46 q 56 292 56 179 q 98 522 56 421 q 217 678 140 622 q 396 735 294 735 q 572 660 493 735 q 597 713 585 697 q 635 729 608 729 l 643 729 q 670 722 663 729 q 678 700 678 715 q 646 396 669 619 q 622 149 622 172 q 635 101 622 111 q 672 92 649 92 q 693 95 682 92 q 710 99 704 99 m 540 510 q 551 579 543 535 q 407 633 483 633 q 228 540 281 633 q 176 300 176 446 q 214 141 176 189 q 314 93 251 93 q 426 148 369 93 q 522 328 483 203 q 533 444 528 394 q 540 510 539 494 m 597 993 q 617 976 617 993 q 583 888 617 925 q 500 831 550 850 q 400 813 450 813 q 269 850 324 813 q 214 956 214 888 q 219 984 214 975 q 238 993 224 993 q 253 989 249 993 q 259 976 257 985 q 265 958 261 967 q 317 917 278 931 q 410 904 356 904 q 505 917 464 904 q 564 958 546 931 q 573 977 569 968 q 581 990 576 986 q 597 993 586 993 z "},"ắ":{"ha":757,"x_min":56,"x_max":718,"o":"m 56 0 m 710 99 q 718 89 718 99 q 713 38 718 68 q 681 3 708 14 q 629 -8 654 -8 q 504 128 504 -8 l 504 142 q 408 28 464 64 q 288 -8 351 -8 q 182 19 235 -8 q 92 113 129 46 q 56 292 56 179 q 98 522 56 421 q 217 678 140 622 q 396 735 294 735 q 572 660 493 735 q 597 713 585 697 q 635 729 608 729 l 643 729 q 670 722 663 729 q 678 700 678 715 q 646 396 669 619 q 622 149 622 172 q 635 101 622 111 q 672 92 649 92 q 693 95 682 92 q 710 99 704 99 m 540 510 q 551 579 543 535 q 407 633 483 633 q 228 540 281 633 q 176 300 176 446 q 214 141 176 189 q 314 93 251 93 q 426 148 369 93 q 522 328 483 203 q 533 444 528 394 q 540 510 539 494 m 597 993 q 617 976 617 993 q 583 888 617 925 q 500 831 550 850 q 400 813 450 813 q 269 850 324 813 q 214 956 214 888 q 219 984 214 975 q 238 993 224 993 q 253 989 249 993 q 259 976 257 985 q 265 958 261 967 q 317 917 278 931 q 410 904 356 904 q 505 917 464 904 q 564 958 546 931 q 573 977 569 968 q 581 990 576 986 q 597 993 586 993 m 553 1222 q 618 1206 618 1222 q 604 1181 618 1197 q 528 1100 590 1165 q 471 1043 528 1100 q 439 1024 458 1031 q 397 1018 419 1018 q 367 1031 367 1018 q 385 1071 367 1040 q 463 1186 404 1101 q 498 1214 476 1206 q 553 1222 519 1222 z "},"ặ":{"ha":757,"x_min":56,"x_max":718,"o":"m 56 0 m 710 99 q 718 89 718 99 q 713 38 718 68 q 681 3 708 14 q 629 -8 654 -8 q 504 128 504 -8 l 504 142 q 408 28 464 64 q 288 -8 351 -8 q 182 19 235 -8 q 92 113 129 46 q 56 292 56 179 q 98 522 56 421 q 217 678 140 622 q 396 735 294 735 q 572 660 493 735 q 597 713 585 697 q 635 729 608 729 l 643 729 q 670 722 663 729 q 678 700 678 715 q 646 396 669 619 q 622 149 622 172 q 635 101 622 111 q 672 92 649 92 q 693 95 682 92 q 710 99 704 99 m 540 510 q 551 579 543 535 q 407 633 483 633 q 228 540 281 633 q 176 300 176 446 q 214 141 176 189 q 314 93 251 93 q 426 148 369 93 q 522 328 483 203 q 533 444 528 394 q 540 510 539 494 m 597 993 q 617 976 617 993 q 583 888 617 925 q 500 831 550 850 q 400 813 450 813 q 269 850 324 813 q 214 956 214 888 q 219 984 214 975 q 238 993 224 993 q 253 989 249 993 q 259 976 257 985 q 265 958 261 967 q 317 917 278 931 q 410 904 356 904 q 505 917 464 904 q 564 958 546 931 q 573 977 569 968 q 581 990 576 986 q 597 993 586 993 m 310 -111 q 351 -119 339 -111 q 363 -142 363 -126 l 356 -212 q 292 -243 351 -243 q 251 -235 263 -243 q 239 -212 239 -228 l 246 -142 q 310 -111 250 -111 z "},"ằ":{"ha":757,"x_min":56,"x_max":718,"o":"m 56 0 m 710 99 q 718 89 718 99 q 713 38 718 68 q 681 3 708 14 q 629 -8 654 -8 q 504 128 504 -8 l 504 142 q 408 28 464 64 q 288 -8 351 -8 q 182 19 235 -8 q 92 113 129 46 q 56 292 56 179 q 98 522 56 421 q 217 678 140 622 q 396 735 294 735 q 572 660 493 735 q 597 713 585 697 q 635 729 608 729 l 643 729 q 670 722 663 729 q 678 700 678 715 q 646 396 669 619 q 622 149 622 172 q 635 101 622 111 q 672 92 649 92 q 693 95 682 92 q 710 99 704 99 m 540 510 q 551 579 543 535 q 407 633 483 633 q 228 540 281 633 q 176 300 176 446 q 214 141 176 189 q 314 93 251 93 q 426 148 369 93 q 522 328 483 203 q 533 444 528 394 q 540 510 539 494 m 597 993 q 617 976 617 993 q 583 888 617 925 q 500 831 550 850 q 400 813 450 813 q 269 850 324 813 q 214 956 214 888 q 219 984 214 975 q 238 993 224 993 q 253 989 249 993 q 259 976 257 985 q 265 958 261 967 q 317 917 278 931 q 410 904 356 904 q 505 917 464 904 q 564 958 546 931 q 573 977 569 968 q 581 990 576 986 q 597 993 586 993 m 321 1222 q 375 1214 354 1222 q 407 1186 396 1206 q 472 1071 456 1101 q 488 1031 488 1040 q 456 1018 488 1018 q 414 1024 433 1018 q 385 1043 394 1031 l 336 1097 q 267 1179 279 1163 q 254 1206 254 1196 q 272 1219 256 1215 q 321 1222 288 1222 z "},"ẳ":{"ha":757,"x_min":56,"x_max":718,"o":"m 56 0 m 710 99 q 718 89 718 99 q 713 38 718 68 q 681 3 708 14 q 629 -8 654 -8 q 504 128 504 -8 l 504 142 q 408 28 464 64 q 288 -8 351 -8 q 182 19 235 -8 q 92 113 129 46 q 56 292 56 179 q 98 522 56 421 q 217 678 140 622 q 396 735 294 735 q 572 660 493 735 q 597 713 585 697 q 635 729 608 729 l 643 729 q 670 722 663 729 q 678 700 678 715 q 646 396 669 619 q 622 149 622 172 q 635 101 622 111 q 672 92 649 92 q 693 95 682 92 q 710 99 704 99 m 540 510 q 551 579 543 535 q 407 633 483 633 q 228 540 281 633 q 176 300 176 446 q 214 141 176 189 q 314 93 251 93 q 426 148 369 93 q 522 328 483 203 q 533 444 528 394 q 540 510 539 494 m 597 993 q 617 976 617 993 q 583 888 617 925 q 500 831 550 850 q 400 813 450 813 q 269 850 324 813 q 214 956 214 888 q 219 984 214 975 q 238 993 224 993 q 253 989 249 993 q 259 976 257 985 q 265 958 261 967 q 317 917 278 931 q 410 904 356 904 q 505 917 464 904 q 564 958 546 931 q 573 977 569 968 q 581 990 576 986 q 597 993 586 993 m 481 1142 q 467 1167 481 1158 q 433 1176 454 1176 q 387 1167 403 1176 q 367 1158 371 1158 q 349 1176 358 1158 q 339 1204 339 1193 q 377 1233 339 1218 q 451 1247 415 1247 q 534 1224 496 1247 q 572 1150 572 1200 q 544 1070 572 1107 q 480 1010 515 1033 q 435 988 444 988 q 397 994 413 988 q 381 1011 381 1001 q 390 1031 381 1021 q 418 1054 400 1042 q 464 1094 447 1075 q 481 1142 481 1114 z "},"ẵ":{"ha":757,"x_min":56,"x_max":718,"o":"m 218 1100 q 206 1117 206 1106 q 210 1135 206 1125 q 258 1208 231 1186 q 326 1231 286 1231 q 378 1223 351 1231 q 447 1199 404 1215 q 501 1179 474 1188 q 546 1171 528 1171 q 575 1180 563 1171 q 601 1211 588 1189 q 626 1231 613 1231 q 639 1228 635 1231 l 649 1224 q 664 1207 664 1217 q 658 1188 664 1204 q 610 1115 638 1138 q 543 1093 582 1093 q 486 1101 515 1093 q 417 1126 457 1110 q 360 1147 382 1140 q 319 1153 338 1153 q 292 1144 304 1153 q 267 1111 281 1135 q 244 1092 256 1092 q 231 1094 236 1092 l 218 1100 m 564 958 q 573 977 569 968 q 581 990 576 986 q 597 993 586 993 q 617 976 617 993 q 583 888 617 925 q 500 831 550 850 q 400 813 450 813 q 269 850 324 813 q 214 956 214 888 q 219 984 214 975 q 238 993 224 993 q 253 989 249 993 q 259 976 257 985 q 265 958 261 967 q 317 917 278 931 q 410 904 356 904 q 505 917 464 904 q 564 958 546 931 m 710 99 q 718 89 718 99 q 713 38 718 68 q 681 3 708 14 q 629 -8 654 -8 q 504 128 504 -8 l 504 142 q 408 28 464 64 q 288 -8 351 -8 q 182 19 235 -8 q 92 113 129 46 q 56 292 56 179 q 98 522 56 421 q 217 678 140 622 q 396 735 294 735 q 572 660 493 735 q 597 713 585 697 q 635 729 608 729 l 643 729 q 670 722 663 729 q 678 700 678 715 q 646 396 669 619 q 622 149 622 172 q 635 101 622 111 q 672 92 649 92 q 693 95 682 92 q 710 99 704 99 m 540 510 q 551 579 543 535 q 407 633 483 633 q 228 540 281 633 q 176 300 176 446 q 214 141 176 189 q 314 93 251 93 q 426 148 369 93 q 522 328 483 203 q 533 444 528 394 q 540 510 539 494 z "},"â":{"ha":757,"x_min":56,"x_max":718,"o":"m 56 0 m 710 99 q 718 89 718 99 q 713 38 718 68 q 681 3 708 14 q 629 -8 654 -8 q 504 128 504 -8 l 504 142 q 408 28 464 64 q 288 -8 351 -8 q 182 19 235 -8 q 92 113 129 46 q 56 292 56 179 q 98 522 56 421 q 217 678 140 622 q 396 735 294 735 q 572 660 493 735 q 597 713 585 697 q 635 729 608 729 l 643 729 q 670 722 663 729 q 678 700 678 715 q 646 396 669 619 q 622 149 622 172 q 635 101 622 111 q 672 92 649 92 q 693 95 682 92 q 710 99 704 99 m 540 510 q 551 579 543 535 q 407 633 483 633 q 228 540 281 633 q 176 300 176 446 q 214 141 176 189 q 314 93 251 93 q 426 148 369 93 q 522 328 483 203 q 533 444 528 394 q 540 510 539 494 m 428 997 q 489 967 472 997 l 554 844 q 561 821 561 835 q 525 800 558 800 l 522 800 q 478 818 496 800 l 401 921 l 306 818 q 257 800 283 800 l 254 800 q 225 817 225 800 q 235 844 225 829 l 326 967 q 393 997 349 997 l 428 997 z "},"ấ":{"ha":757,"x_min":56,"x_max":796,"o":"m 575 992 q 544 1004 544 992 q 563 1044 544 1014 q 640 1160 582 1075 q 676 1188 654 1179 q 731 1196 697 1196 q 796 1179 796 1196 q 782 1155 796 1171 q 706 1074 768 1139 q 649 1017 706 1074 q 617 998 636 1004 q 575 992 597 992 m 265 800 q 236 817 236 800 q 246 844 236 829 l 338 967 q 404 997 360 997 l 439 997 q 486 967 472 997 l 544 844 q 551 821 551 835 q 515 800 549 800 l 513 800 q 468 818 478 800 l 413 921 l 317 818 q 268 800 294 800 l 265 800 m 710 99 q 718 89 718 99 q 713 38 718 68 q 681 3 708 14 q 629 -8 654 -8 q 504 128 504 -8 l 504 142 q 408 28 464 64 q 288 -8 351 -8 q 182 19 235 -8 q 92 113 129 46 q 56 292 56 179 q 98 522 56 421 q 217 678 140 622 q 396 735 294 735 q 572 660 493 735 q 597 713 585 697 q 635 729 608 729 l 643 729 q 670 722 663 729 q 678 700 678 715 q 646 396 669 619 q 622 149 622 172 q 635 101 622 111 q 672 92 649 92 q 693 95 682 92 q 710 99 704 99 m 540 510 q 551 579 543 535 q 407 633 483 633 q 228 540 281 633 q 176 300 176 446 q 214 141 176 189 q 314 93 251 93 q 426 148 369 93 q 522 328 483 203 q 533 444 528 394 q 540 510 539 494 z "},"ậ":{"ha":757,"x_min":56,"x_max":718,"o":"m 56 0 m 710 99 q 718 89 718 99 q 713 38 718 68 q 681 3 708 14 q 629 -8 654 -8 q 504 128 504 -8 l 504 142 q 408 28 464 64 q 288 -8 351 -8 q 182 19 235 -8 q 92 113 129 46 q 56 292 56 179 q 98 522 56 421 q 217 678 140 622 q 396 735 294 735 q 572 660 493 735 q 597 713 585 697 q 635 729 608 729 l 643 729 q 670 722 663 729 q 678 700 678 715 q 646 396 669 619 q 622 149 622 172 q 635 101 622 111 q 672 92 649 92 q 693 95 682 92 q 710 99 704 99 m 540 510 q 551 579 543 535 q 407 633 483 633 q 228 540 281 633 q 176 300 176 446 q 214 141 176 189 q 314 93 251 93 q 426 148 369 93 q 522 328 483 203 q 533 444 528 394 q 540 510 539 494 m 428 997 q 489 967 472 997 l 554 844 q 561 821 561 835 q 525 800 558 800 l 522 800 q 478 818 496 800 l 401 921 l 306 818 q 257 800 283 800 l 254 800 q 225 817 225 800 q 235 844 225 829 l 326 967 q 393 997 349 997 l 428 997 m 310 -111 q 351 -119 339 -111 q 363 -142 363 -126 l 356 -212 q 292 -243 351 -243 q 251 -235 263 -243 q 239 -212 239 -228 l 246 -142 q 310 -111 250 -111 z "},"ầ":{"ha":757,"x_min":56,"x_max":718,"o":"m 633 992 q 592 998 611 992 q 563 1017 572 1004 l 514 1071 q 444 1153 457 1136 q 432 1179 432 1169 q 449 1192 433 1189 q 499 1196 465 1196 q 553 1188 532 1196 q 585 1160 574 1179 q 649 1044 633 1075 q 665 1004 665 1014 q 633 992 665 992 m 265 800 q 236 817 236 800 q 246 844 236 829 l 338 967 q 404 997 360 997 l 439 997 q 486 967 472 997 l 544 844 q 551 821 551 835 q 515 800 549 800 l 513 800 q 468 818 478 800 l 413 921 l 317 818 q 268 800 294 800 l 265 800 m 710 99 q 718 89 718 99 q 713 38 718 68 q 681 3 708 14 q 629 -8 654 -8 q 504 128 504 -8 l 504 142 q 408 28 464 64 q 288 -8 351 -8 q 182 19 235 -8 q 92 113 129 46 q 56 292 56 179 q 98 522 56 421 q 217 678 140 622 q 396 735 294 735 q 572 660 493 735 q 597 713 585 697 q 635 729 608 729 l 643 729 q 670 722 663 729 q 678 700 678 715 q 646 396 669 619 q 622 149 622 172 q 635 101 622 111 q 672 92 649 92 q 693 95 682 92 q 710 99 704 99 m 540 510 q 551 579 543 535 q 407 633 483 633 q 228 540 281 633 q 176 300 176 446 q 214 141 176 189 q 314 93 251 93 q 426 148 369 93 q 522 328 483 203 q 533 444 528 394 q 540 510 539 494 z "},"ẩ":{"ha":757,"x_min":56,"x_max":750,"o":"m 544 1132 q 526 1149 536 1132 q 517 1178 517 1167 q 555 1206 517 1192 q 629 1221 593 1221 q 712 1197 674 1221 q 750 1124 750 1174 q 722 1044 750 1081 q 658 984 693 1007 q 613 961 622 961 q 574 968 590 961 q 558 985 558 975 q 568 1005 558 994 q 596 1028 578 1015 q 642 1068 625 1049 q 658 1115 658 1088 q 645 1141 658 1132 q 611 1150 632 1150 q 565 1141 581 1150 q 544 1132 549 1132 m 265 800 q 236 817 236 800 q 246 844 236 829 l 338 967 q 404 997 360 997 l 439 997 q 486 967 472 997 l 544 844 q 551 821 551 835 q 515 800 549 800 l 513 800 q 468 818 478 800 l 413 921 l 317 818 q 268 800 294 800 l 265 800 m 710 99 q 718 89 718 99 q 713 38 718 68 q 681 3 708 14 q 629 -8 654 -8 q 504 128 504 -8 l 504 142 q 408 28 464 64 q 288 -8 351 -8 q 182 19 235 -8 q 92 113 129 46 q 56 292 56 179 q 98 522 56 421 q 217 678 140 622 q 396 735 294 735 q 572 660 493 735 q 597 713 585 697 q 635 729 608 729 l 643 729 q 670 722 663 729 q 678 700 678 715 q 646 396 669 619 q 622 149 622 172 q 635 101 622 111 q 672 92 649 92 q 693 95 682 92 q 710 99 704 99 m 540 510 q 551 579 543 535 q 407 633 483 633 q 228 540 281 633 q 176 300 176 446 q 214 141 176 189 q 314 93 251 93 q 426 148 369 93 q 522 328 483 203 q 533 444 528 394 q 540 510 539 494 z "},"ẫ":{"ha":757,"x_min":56,"x_max":718,"o":"m 226 1092 q 214 1108 214 1097 q 218 1126 214 1117 q 267 1200 239 1178 q 335 1222 294 1222 q 386 1215 360 1222 q 456 1190 413 1207 q 509 1171 482 1179 q 554 1163 536 1163 q 583 1172 571 1163 q 610 1203 596 1181 q 635 1222 621 1222 q 647 1219 643 1222 l 657 1215 q 672 1199 672 1208 q 667 1179 672 1196 q 618 1107 646 1129 q 551 1085 590 1085 q 494 1093 524 1085 q 425 1118 465 1101 q 368 1138 390 1132 q 328 1144 346 1144 q 301 1135 313 1144 q 275 1103 289 1126 q 253 1083 264 1083 q 239 1086 244 1083 l 226 1092 m 428 997 q 489 967 472 997 l 554 844 q 561 821 561 835 q 525 800 558 800 l 522 800 q 478 818 496 800 l 401 921 l 306 818 q 257 800 283 800 l 254 800 q 225 817 225 800 q 235 844 225 829 l 326 967 q 393 997 349 997 l 428 997 m 710 99 q 718 89 718 99 q 713 38 718 68 q 681 3 708 14 q 629 -8 654 -8 q 504 128 504 -8 l 504 142 q 408 28 464 64 q 288 -8 351 -8 q 182 19 235 -8 q 92 113 129 46 q 56 292 56 179 q 98 522 56 421 q 217 678 140 622 q 396 735 294 735 q 572 660 493 735 q 597 713 585 697 q 635 729 608 729 l 643 729 q 670 722 663 729 q 678 700 678 715 q 646 396 669 619 q 622 149 622 172 q 635 101 622 111 q 672 92 649 92 q 693 95 682 92 q 710 99 704 99 m 540 510 q 551 579 543 535 q 407 633 483 633 q 228 540 281 633 q 176 300 176 446 q 214 141 176 189 q 314 93 251 93 q 426 148 369 93 q 522 328 483 203 q 533 444 528 394 q 540 510 539 494 z "},"ä":{"ha":757,"x_min":56,"x_max":718,"o":"m 56 0 m 710 99 q 718 89 718 99 q 713 38 718 68 q 681 3 708 14 q 629 -8 654 -8 q 504 128 504 -8 l 504 142 q 408 28 464 64 q 288 -8 351 -8 q 182 19 235 -8 q 92 113 129 46 q 56 292 56 179 q 98 522 56 421 q 217 678 140 622 q 396 735 294 735 q 572 660 493 735 q 597 713 585 697 q 635 729 608 729 l 643 729 q 670 722 663 729 q 678 700 678 715 q 646 396 669 619 q 622 149 622 172 q 635 101 622 111 q 672 92 649 92 q 693 95 682 92 q 710 99 704 99 m 540 510 q 551 579 543 535 q 407 633 483 633 q 228 540 281 633 q 176 300 176 446 q 214 141 176 189 q 314 93 251 93 q 426 148 369 93 q 522 328 483 203 q 533 444 528 394 q 540 510 539 494 m 317 975 q 358 967 346 975 q 369 944 369 960 l 363 874 q 299 843 358 843 q 258 851 269 843 q 246 874 246 858 l 253 944 q 317 975 257 975 m 517 975 q 558 967 546 975 q 569 944 569 960 l 563 874 q 499 843 558 843 q 458 851 469 843 q 446 874 446 858 l 453 944 q 517 975 456 975 z "},"ạ":{"ha":757,"x_min":56,"x_max":718,"o":"m 56 0 m 710 99 q 718 89 718 99 q 713 38 718 68 q 681 3 708 14 q 629 -8 654 -8 q 504 128 504 -8 l 504 142 q 408 28 464 64 q 288 -8 351 -8 q 182 19 235 -8 q 92 113 129 46 q 56 292 56 179 q 98 522 56 421 q 217 678 140 622 q 396 735 294 735 q 572 660 493 735 q 597 713 585 697 q 635 729 608 729 l 643 729 q 670 722 663 729 q 678 700 678 715 q 646 396 669 619 q 622 149 622 172 q 635 101 622 111 q 672 92 649 92 q 693 95 682 92 q 710 99 704 99 m 540 510 q 551 579 543 535 q 407 633 483 633 q 228 540 281 633 q 176 300 176 446 q 214 141 176 189 q 314 93 251 93 q 426 148 369 93 q 522 328 483 203 q 533 444 528 394 q 540 510 539 494 m 310 -111 q 351 -119 339 -111 q 363 -142 363 -126 l 356 -212 q 292 -243 351 -243 q 251 -235 263 -243 q 239 -212 239 -228 l 246 -142 q 310 -111 250 -111 z "},"à":{"ha":757,"x_min":56,"x_max":718,"o":"m 56 0 m 710 99 q 718 89 718 99 q 713 38 718 68 q 681 3 708 14 q 629 -8 654 -8 q 504 128 504 -8 l 504 142 q 408 28 464 64 q 288 -8 351 -8 q 182 19 235 -8 q 92 113 129 46 q 56 292 56 179 q 98 522 56 421 q 217 678 140 622 q 396 735 294 735 q 572 660 493 735 q 597 713 585 697 q 635 729 608 729 l 643 729 q 670 722 663 729 q 678 700 678 715 q 646 396 669 619 q 622 149 622 172 q 635 101 622 111 q 672 92 649 92 q 693 95 682 92 q 710 99 704 99 m 540 510 q 551 579 543 535 q 407 633 483 633 q 228 540 281 633 q 176 300 176 446 q 214 141 176 189 q 314 93 251 93 q 426 148 369 93 q 522 328 483 203 q 533 444 528 394 q 540 510 539 494 m 294 1017 q 349 1008 328 1017 q 381 981 369 1000 q 445 865 429 896 q 461 825 461 835 q 429 813 461 813 q 388 819 407 813 q 358 838 368 825 l 310 892 q 240 974 253 957 q 228 1000 228 990 q 245 1013 229 1010 q 294 1017 261 1017 z "},"ả":{"ha":757,"x_min":56,"x_max":718,"o":"m 56 0 m 710 99 q 718 89 718 99 q 713 38 718 68 q 681 3 708 14 q 629 -8 654 -8 q 504 128 504 -8 l 504 142 q 408 28 464 64 q 288 -8 351 -8 q 182 19 235 -8 q 92 113 129 46 q 56 292 56 179 q 98 522 56 421 q 217 678 140 622 q 396 735 294 735 q 572 660 493 735 q 597 713 585 697 q 635 729 608 729 l 643 729 q 670 722 663 729 q 678 700 678 715 q 646 396 669 619 q 622 149 622 172 q 635 101 622 111 q 672 92 649 92 q 693 95 682 92 q 710 99 704 99 m 540 510 q 551 579 543 535 q 407 633 483 633 q 228 540 281 633 q 176 300 176 446 q 214 141 176 189 q 314 93 251 93 q 426 148 369 93 q 522 328 483 203 q 533 444 528 394 q 540 510 539 494 m 454 936 q 441 962 454 953 q 407 971 428 971 q 360 962 376 971 q 340 953 344 953 q 322 970 332 953 q 313 999 313 988 q 351 1027 313 1013 q 425 1042 389 1042 q 508 1018 469 1042 q 546 944 546 994 q 517 865 546 901 q 453 805 489 828 q 408 782 418 782 q 370 789 386 782 q 354 806 354 796 q 364 826 354 815 q 392 849 374 836 q 438 889 421 869 q 454 936 454 908 z "},"ā":{"ha":757,"x_min":56,"x_max":718,"o":"m 56 0 m 710 99 q 718 89 718 99 q 713 38 718 68 q 681 3 708 14 q 629 -8 654 -8 q 504 128 504 -8 l 504 142 q 408 28 464 64 q 288 -8 351 -8 q 182 19 235 -8 q 92 113 129 46 q 56 292 56 179 q 98 522 56 421 q 217 678 140 622 q 396 735 294 735 q 572 660 493 735 q 597 713 585 697 q 635 729 608 729 l 643 729 q 670 722 663 729 q 678 700 678 715 q 646 396 669 619 q 622 149 622 172 q 635 101 622 111 q 672 92 649 92 q 693 95 682 92 q 710 99 704 99 m 540 510 q 551 579 543 535 q 407 633 483 633 q 228 540 281 633 q 176 300 176 446 q 214 141 176 189 q 314 93 251 93 q 426 148 369 93 q 522 328 483 203 q 533 444 528 394 q 540 510 539 494 m 556 949 q 574 940 569 949 q 579 913 579 931 q 544 850 579 850 l 231 850 q 212 860 217 850 q 207 888 207 869 q 242 949 207 949 l 556 949 z "},"ą":{"ha":757,"x_min":56,"x_max":819,"o":"m 811 -132 q 819 -150 819 -132 q 785 -233 819 -211 q 696 -254 751 -254 q 578 -217 610 -254 q 546 -131 546 -179 q 557 -66 546 -104 q 590 -4 568 -28 q 504 128 504 15 l 504 142 q 408 28 464 64 q 288 -8 351 -8 q 182 19 235 -8 q 92 113 129 46 q 56 292 56 179 q 98 522 56 421 q 217 678 140 622 q 396 735 294 735 q 572 660 493 735 q 597 713 585 697 q 635 729 608 729 l 643 729 q 670 722 663 729 q 678 700 678 715 q 646 396 669 619 q 622 149 622 172 q 635 101 622 111 q 672 92 649 92 q 693 95 682 92 q 710 99 704 99 q 718 89 718 99 q 713 38 718 68 q 668 -1 707 8 q 658 -32 667 -10 q 642 -97 642 -71 q 665 -145 642 -133 q 722 -157 689 -157 q 778 -144 750 -157 q 811 -132 807 -132 m 540 510 q 551 579 543 535 q 407 633 483 633 q 228 540 281 633 q 176 300 176 446 q 214 141 176 189 q 314 93 251 93 q 426 148 369 93 q 522 328 483 203 q 533 444 528 394 q 540 510 539 494 z "},"å":{"ha":757,"x_min":56,"x_max":718,"o":"m 56 0 m 710 99 q 718 89 718 99 q 713 38 718 68 q 681 3 708 14 q 629 -8 654 -8 q 504 128 504 -8 l 504 142 q 408 28 464 64 q 288 -8 351 -8 q 182 19 235 -8 q 92 113 129 46 q 56 292 56 179 q 98 522 56 421 q 217 678 140 622 q 396 735 294 735 q 572 660 493 735 q 597 713 585 697 q 635 729 608 729 l 643 729 q 670 722 663 729 q 678 700 678 715 q 646 396 669 619 q 622 149 622 172 q 635 101 622 111 q 672 92 649 92 q 693 95 682 92 q 710 99 704 99 m 540 510 q 551 579 543 535 q 407 633 483 633 q 228 540 281 633 q 176 300 176 446 q 214 141 176 189 q 314 93 251 93 q 426 148 369 93 q 522 328 483 203 q 533 444 528 394 q 540 510 539 494 m 404 1018 q 480 988 450 1018 q 510 913 510 957 q 472 822 510 860 q 381 783 433 783 q 305 813 335 783 q 275 889 275 843 q 314 980 275 942 q 404 1018 353 1018 m 400 969 q 347 947 369 969 q 324 894 324 925 q 340 849 324 867 q 385 832 357 832 q 439 854 417 832 q 461 908 461 876 q 444 952 461 935 q 400 969 426 969 z "},"ǻ":{"ha":757,"x_min":56,"x_max":718,"o":"m 56 0 m 710 99 q 718 89 718 99 q 713 38 718 68 q 681 3 708 14 q 629 -8 654 -8 q 504 128 504 -8 l 504 142 q 408 28 464 64 q 288 -8 351 -8 q 182 19 235 -8 q 92 113 129 46 q 56 292 56 179 q 98 522 56 421 q 217 678 140 622 q 396 735 294 735 q 572 660 493 735 q 597 713 585 697 q 635 729 608 729 l 643 729 q 670 722 663 729 q 678 700 678 715 q 646 396 669 619 q 622 149 622 172 q 635 101 622 111 q 672 92 649 92 q 693 95 682 92 q 710 99 704 99 m 540 510 q 551 579 543 535 q 407 633 483 633 q 228 540 281 633 q 176 300 176 446 q 214 141 176 189 q 314 93 251 93 q 426 148 369 93 q 522 328 483 203 q 533 444 528 394 q 540 510 539 494 m 404 1018 q 480 988 450 1018 q 510 913 510 957 q 472 822 510 860 q 381 783 433 783 q 305 813 335 783 q 275 889 275 843 q 314 980 275 942 q 404 1018 353 1018 m 400 969 q 347 947 369 969 q 324 894 324 925 q 340 849 324 867 q 385 832 357 832 q 439 854 417 832 q 461 908 461 876 q 444 952 461 935 q 400 969 426 969 m 554 1281 q 619 1264 619 1281 q 606 1240 619 1256 q 529 1158 592 1224 q 472 1101 529 1158 q 440 1083 460 1089 q 399 1076 421 1076 q 368 1089 368 1076 q 387 1129 368 1099 q 464 1244 406 1160 q 499 1272 478 1264 q 554 1281 521 1281 z "},"ã":{"ha":757,"x_min":56,"x_max":718,"o":"m 56 0 m 710 99 q 718 89 718 99 q 713 38 718 68 q 681 3 708 14 q 629 -8 654 -8 q 504 128 504 -8 l 504 142 q 408 28 464 64 q 288 -8 351 -8 q 182 19 235 -8 q 92 113 129 46 q 56 292 56 179 q 98 522 56 421 q 217 678 140 622 q 396 735 294 735 q 572 660 493 735 q 597 713 585 697 q 635 729 608 729 l 643 729 q 670 722 663 729 q 678 700 678 715 q 646 396 669 619 q 622 149 622 172 q 635 101 622 111 q 672 92 649 92 q 693 95 682 92 q 710 99 704 99 m 540 510 q 551 579 543 535 q 407 633 483 633 q 228 540 281 633 q 176 300 176 446 q 214 141 176 189 q 314 93 251 93 q 426 148 369 93 q 522 328 483 203 q 533 444 528 394 q 540 510 539 494 m 290 958 q 349 951 319 958 q 425 926 378 943 q 488 906 465 913 q 532 899 511 899 q 565 908 551 899 q 593 939 579 917 q 621 958 607 958 q 635 956 629 958 l 646 951 q 661 935 661 946 q 656 915 661 926 q 603 843 633 865 q 529 821 572 821 q 390 854 479 821 q 328 874 351 868 q 283 881 304 881 q 253 872 265 881 q 225 839 240 863 q 212 824 217 828 q 200 819 207 819 q 186 822 192 819 l 172 828 q 158 844 158 833 q 163 863 158 853 q 216 936 185 914 q 290 958 247 958 z "},"æ":{"ha":1151,"x_min":40,"x_max":1075,"o":"m 581 314 l 581 292 q 633 137 581 182 q 783 92 685 92 q 885 107 842 92 q 969 146 928 122 q 999 160 993 160 q 1006 157 1004 160 q 1008 143 1008 154 q 1001 81 1008 117 q 954 31 996 50 q 861 1 913 11 q 774 -8 810 -8 q 521 81 599 -8 q 399 17 472 42 q 257 -8 326 -8 q 99 37 158 -8 q 40 171 40 82 q 158 357 40 308 q 471 411 276 406 q 532 575 488 503 q 396 635 503 635 q 288 620 335 635 q 208 591 240 606 q 174 576 176 576 q 146 603 160 576 q 132 644 132 629 q 171 684 132 663 q 273 720 210 706 q 403 735 336 735 q 526 717 474 735 q 611 664 579 699 q 842 735 704 735 q 976 706 924 735 q 1051 635 1028 678 q 1075 550 1075 593 q 969 369 1075 424 q 700 314 863 314 l 581 314 m 829 635 q 590 414 631 635 l 686 414 q 861 438 768 414 q 954 539 954 463 q 921 609 954 583 q 829 635 888 635 m 274 93 q 476 163 375 93 q 460 279 460 213 l 460 314 q 167 183 167 314 q 274 93 167 93 z "},"ǽ":{"ha":1151,"x_min":40,"x_max":1075,"o":"m 40 0 m 581 314 l 581 292 q 633 137 581 182 q 783 92 685 92 q 885 107 842 92 q 969 146 928 122 q 999 160 993 160 q 1006 157 1004 160 q 1008 143 1008 154 q 1001 81 1008 117 q 954 31 996 50 q 861 1 913 11 q 774 -8 810 -8 q 521 81 599 -8 q 399 17 472 42 q 257 -8 326 -8 q 99 37 158 -8 q 40 171 40 82 q 158 357 40 308 q 471 411 276 406 q 532 575 488 503 q 396 635 503 635 q 288 620 335 635 q 208 591 240 606 q 174 576 176 576 q 146 603 160 576 q 132 644 132 629 q 171 684 132 663 q 273 720 210 706 q 403 735 336 735 q 526 717 474 735 q 611 664 579 699 q 842 735 704 735 q 976 706 924 735 q 1051 635 1028 678 q 1075 550 1075 593 q 969 369 1075 424 q 700 314 863 314 l 581 314 m 829 635 q 590 414 631 635 l 686 414 q 861 438 768 414 q 954 539 954 463 q 921 609 954 583 q 829 635 888 635 m 274 93 q 476 163 375 93 q 460 279 460 213 l 460 314 q 167 183 167 314 q 274 93 167 93 m 710 1017 q 775 1000 775 1017 q 761 976 775 992 q 685 894 747 960 q 628 838 685 894 q 596 819 615 825 q 554 813 576 813 q 524 825 524 813 q 542 865 524 835 q 619 981 561 896 q 655 1008 633 1000 q 710 1017 676 1017 z "},"b":{"ha":790,"x_min":53,"x_max":710,"o":"m 221 1044 q 262 1037 250 1044 q 274 1014 274 1029 l 229 590 q 328 699 271 664 q 450 735 385 735 q 569 709 510 735 q 669 617 628 683 q 710 439 710 551 q 664 208 710 310 q 535 49 618 107 q 342 -8 451 -8 q 235 15 282 -8 q 157 67 188 38 q 99 -3 138 -3 l 88 -3 q 60 5 68 -3 q 53 28 53 13 l 157 1014 q 173 1038 158 1031 q 215 1044 188 1044 l 221 1044 m 424 633 q 308 580 367 633 q 210 403 250 526 l 190 217 q 179 147 188 186 q 331 93 243 93 q 531 188 472 93 q 589 431 589 283 q 544 588 589 542 q 424 633 500 633 z "},"c":{"ha":674,"x_min":65,"x_max":626,"o":"m 432 735 q 535 723 492 735 q 603 694 579 711 q 626 663 626 678 q 608 620 626 647 q 572 593 589 593 q 559 599 569 593 q 542 610 549 606 q 418 635 492 635 q 249 552 313 635 q 186 292 186 469 q 231 140 186 188 q 375 92 276 92 q 528 122 453 92 q 561 135 558 135 q 567 132 565 135 q 569 118 569 129 q 563 56 569 90 q 490 6 556 19 q 365 -8 424 -8 q 140 61 215 -8 q 65 283 65 131 q 155 608 65 481 q 432 735 244 735 z "},"ć":{"ha":674,"x_min":65,"x_max":626,"o":"m 65 0 m 432 735 q 535 723 492 735 q 603 694 579 711 q 626 663 626 678 q 608 620 626 647 q 572 593 589 593 q 559 599 569 593 q 542 610 549 606 q 418 635 492 635 q 249 552 313 635 q 186 292 186 469 q 231 140 186 188 q 375 92 276 92 q 528 122 453 92 q 561 135 558 135 q 567 132 565 135 q 569 118 569 129 q 563 56 569 90 q 490 6 556 19 q 365 -8 424 -8 q 140 61 215 -8 q 65 283 65 131 q 155 608 65 481 q 432 735 244 735 m 540 1017 q 606 1000 606 1017 q 592 976 606 992 q 515 894 578 960 q 458 838 515 894 q 426 819 446 825 q 385 813 407 813 q 354 825 354 813 q 373 865 354 835 q 450 981 392 896 q 485 1008 464 1000 q 540 1017 507 1017 z "},"č":{"ha":674,"x_min":65,"x_max":626,"o":"m 65 0 m 432 735 q 535 723 492 735 q 603 694 579 711 q 626 663 626 678 q 608 620 626 647 q 572 593 589 593 q 559 599 569 593 q 542 610 549 606 q 418 635 492 635 q 249 552 313 635 q 186 292 186 469 q 231 140 186 188 q 375 92 276 92 q 528 122 453 92 q 561 135 558 135 q 567 132 565 135 q 569 118 569 129 q 563 56 569 90 q 490 6 556 19 q 365 -8 424 -8 q 140 61 215 -8 q 65 283 65 131 q 155 608 65 481 q 432 735 244 735 m 571 1006 q 601 986 601 1006 q 592 961 601 975 l 499 839 q 432 808 476 808 l 397 808 q 336 839 353 808 l 272 961 q 265 986 265 974 q 300 1006 268 1006 l 303 1006 q 349 988 331 1006 l 422 885 l 521 988 q 568 1006 543 1006 l 571 1006 z "},"ç":{"ha":674,"x_min":65,"x_max":626,"o":"m 432 735 q 535 723 492 735 q 603 694 579 711 q 626 663 626 678 q 608 620 626 647 q 572 593 589 593 q 559 599 569 593 q 542 610 549 606 q 418 635 492 635 q 249 552 313 635 q 186 292 186 469 q 231 140 186 188 q 375 92 276 92 q 528 122 453 92 q 561 135 558 135 q 567 132 565 135 q 569 118 569 129 q 563 56 569 90 q 505 10 556 24 q 393 -7 454 -4 l 368 -68 l 374 -68 q 447 -86 411 -68 q 482 -154 482 -104 q 430 -263 482 -235 q 308 -292 378 -292 q 219 -279 264 -292 q 174 -235 174 -267 q 178 -197 174 -204 q 190 -189 183 -189 q 221 -207 193 -190 q 299 -224 249 -224 q 382 -168 382 -224 q 369 -140 382 -149 q 333 -124 357 -131 q 307 -111 315 -117 q 299 -96 299 -106 q 308 -70 300 -92 q 333 -7 317 -49 q 133 69 200 0 q 65 283 65 139 q 155 608 65 481 q 432 735 244 735 z "},"ĉ":{"ha":674,"x_min":65,"x_max":626,"o":"m 65 0 m 432 735 q 535 723 492 735 q 603 694 579 711 q 626 663 626 678 q 608 620 626 647 q 572 593 589 593 q 559 599 569 593 q 542 610 549 606 q 418 635 492 635 q 249 552 313 635 q 186 292 186 469 q 231 140 186 188 q 375 92 276 92 q 528 122 453 92 q 561 135 558 135 q 567 132 565 135 q 569 118 569 129 q 563 56 569 90 q 490 6 556 19 q 365 -8 424 -8 q 140 61 215 -8 q 65 283 65 131 q 155 608 65 481 q 432 735 244 735 m 442 997 q 503 967 486 997 l 568 844 q 575 821 575 835 q 539 800 572 800 l 536 800 q 492 818 510 800 l 415 921 l 319 818 q 271 800 297 800 l 268 800 q 239 817 239 800 q 249 844 239 829 l 340 967 q 407 997 363 997 l 442 997 z "},"ċ":{"ha":674,"x_min":65,"x_max":626,"o":"m 65 0 m 432 735 q 535 723 492 735 q 603 694 579 711 q 626 663 626 678 q 608 620 626 647 q 572 593 589 593 q 559 599 569 593 q 542 610 549 606 q 418 635 492 635 q 249 552 313 635 q 186 292 186 469 q 231 140 186 188 q 375 92 276 92 q 528 122 453 92 q 561 135 558 135 q 567 132 565 135 q 569 118 569 129 q 563 56 569 90 q 490 6 556 19 q 365 -8 424 -8 q 140 61 215 -8 q 65 283 65 131 q 155 608 65 481 q 432 735 244 735 m 431 975 q 472 967 460 975 q 483 944 483 960 l 476 874 q 413 843 472 843 q 372 851 383 843 q 360 874 360 858 l 367 944 q 431 975 371 975 z "},"d":{"ha":785,"x_min":57,"x_max":756,"o":"m 747 99 q 756 89 756 99 q 750 38 756 68 q 719 3 746 14 q 667 -8 692 -8 q 542 128 542 -8 l 542 142 q 442 28 500 64 q 318 -8 385 -8 q 199 19 258 -8 q 99 113 140 46 q 57 292 57 179 q 100 521 57 419 q 222 678 143 622 q 406 735 301 735 q 594 672 519 735 l 632 1014 q 648 1038 633 1031 q 690 1044 663 1044 l 696 1044 q 737 1037 725 1044 q 749 1014 749 1029 q 697 530 735 885 q 660 149 660 175 q 673 101 660 111 q 710 92 686 92 q 731 95 719 92 q 747 99 742 99 m 585 581 q 422 633 518 633 q 235 539 290 633 q 179 300 179 444 q 221 140 179 186 q 344 93 263 93 q 460 147 401 93 q 558 325 518 201 l 585 581 z "},"ð":{"ha":790,"x_min":58,"x_max":704,"o":"m 485 990 q 525 969 508 990 l 561 917 l 671 932 q 693 917 686 932 q 700 890 700 903 q 678 869 700 871 l 593 858 q 704 438 704 650 q 610 107 704 222 q 346 -8 515 -8 q 132 67 206 -8 q 58 288 58 143 q 103 528 58 428 q 230 682 147 629 q 424 735 313 735 q 533 718 483 735 q 482 843 510 782 l 361 826 q 339 840 349 826 q 329 868 329 853 q 353 889 329 885 l 454 903 q 422 957 440 928 q 417 971 417 964 q 433 985 417 983 q 485 990 467 990 m 408 635 q 238 549 297 635 q 178 293 178 464 q 220 141 178 190 q 351 92 263 92 q 524 176 464 92 q 583 431 583 260 q 540 584 583 533 q 408 635 497 635 z "},"ď":{"ha":785,"x_min":57,"x_max":929,"o":"m 57 0 m 747 99 q 756 89 756 99 q 750 38 756 68 q 719 3 746 14 q 667 -8 692 -8 q 542 128 542 -8 l 542 142 q 442 28 500 64 q 318 -8 385 -8 q 199 19 258 -8 q 99 113 140 46 q 57 292 57 179 q 100 521 57 419 q 222 678 143 622 q 406 735 301 735 q 594 672 519 735 l 632 1014 q 648 1038 633 1031 q 690 1044 663 1044 l 696 1044 q 737 1037 725 1044 q 749 1014 749 1029 q 697 530 735 885 q 660 149 660 175 q 673 101 660 111 q 710 92 686 92 q 731 95 719 92 q 747 99 742 99 m 585 581 q 422 633 518 633 q 235 539 290 633 q 179 300 179 444 q 221 140 179 186 q 344 93 263 93 q 460 147 401 93 q 558 325 518 201 l 585 581 m 878 1044 q 916 1034 903 1044 q 929 1006 929 1024 q 906 928 929 974 q 851 850 882 883 q 804 817 821 817 q 778 822 790 817 q 767 838 767 826 q 773 869 767 851 q 781 892 779 888 q 798 946 792 921 q 804 1000 804 971 q 821 1032 804 1019 q 865 1044 838 1044 l 878 1044 z "},"đ":{"ha":785,"x_min":57,"x_max":821,"o":"m 797 929 q 816 920 811 929 q 821 893 821 911 q 786 831 821 831 l 729 831 q 660 149 660 183 q 673 101 660 111 q 710 92 686 92 q 731 95 719 92 q 747 99 742 99 q 756 89 756 99 q 750 38 756 68 q 719 3 746 14 q 667 -8 692 -8 q 542 128 542 -8 l 542 142 q 442 28 500 64 q 318 -8 385 -8 q 199 19 258 -8 q 99 113 140 46 q 57 292 57 179 q 100 521 57 419 q 222 678 143 622 q 406 735 301 735 q 594 672 519 735 l 603 753 l 611 831 l 472 831 q 453 840 458 831 q 449 868 449 850 q 483 929 449 929 l 622 929 l 632 1014 q 648 1038 633 1031 q 690 1044 663 1044 l 696 1044 q 737 1037 725 1044 q 749 1014 749 1029 l 739 929 l 797 929 m 585 581 q 422 633 518 633 q 235 539 290 633 q 179 300 179 444 q 221 140 179 186 q 344 93 263 93 q 460 147 401 93 q 558 325 518 201 l 585 581 z "},"ḍ":{"ha":785,"x_min":57,"x_max":756,"o":"m 57 0 m 747 99 q 756 89 756 99 q 750 38 756 68 q 719 3 746 14 q 667 -8 692 -8 q 542 128 542 -8 l 542 142 q 442 28 500 64 q 318 -8 385 -8 q 199 19 258 -8 q 99 113 140 46 q 57 292 57 179 q 100 521 57 419 q 222 678 143 622 q 406 735 301 735 q 594 672 519 735 l 632 1014 q 648 1038 633 1031 q 690 1044 663 1044 l 696 1044 q 737 1037 725 1044 q 749 1014 749 1029 q 697 530 735 885 q 660 149 660 175 q 673 101 660 111 q 710 92 686 92 q 731 95 719 92 q 747 99 742 99 m 585 581 q 422 633 518 633 q 235 539 290 633 q 179 300 179 444 q 221 140 179 186 q 344 93 263 93 q 460 147 401 93 q 558 325 518 201 l 585 581 m 351 -111 q 392 -119 381 -111 q 404 -142 404 -126 l 397 -212 q 333 -243 393 -243 q 292 -235 304 -243 q 281 -212 281 -228 l 288 -142 q 351 -111 292 -111 z "},"ǳ":{"ha":1464,"x_min":57,"x_max":1438,"o":"m 57 0 m 747 99 q 756 89 756 99 q 750 38 756 68 q 719 3 746 14 q 667 -8 692 -8 q 542 128 542 -8 l 542 142 q 442 28 500 64 q 318 -8 385 -8 q 199 19 258 -8 q 99 113 140 46 q 57 292 57 179 q 100 521 57 419 q 222 678 143 622 q 406 735 301 735 q 594 672 519 735 l 632 1014 q 648 1038 633 1031 q 690 1044 663 1044 l 696 1044 q 737 1037 725 1044 q 749 1014 749 1029 q 697 530 735 885 q 660 149 660 175 q 673 101 660 111 q 710 92 686 92 q 731 95 719 92 q 747 99 742 99 m 585 581 q 422 633 518 633 q 235 539 290 633 q 179 300 179 444 q 221 140 179 186 q 344 93 263 93 q 460 147 401 93 q 558 325 518 201 l 585 581 m 1417 726 q 1431 704 1425 726 q 1438 660 1438 682 q 1432 640 1438 646 l 971 100 l 1353 100 q 1372 90 1367 100 q 1376 63 1376 81 q 1342 0 1376 0 l 828 0 q 813 22 821 0 q 804 64 804 43 q 811 86 804 79 l 1274 626 l 918 626 q 899 636 904 626 q 894 664 894 646 q 929 726 894 726 l 1417 726 z "},"ǆ":{"ha":1464,"x_min":57,"x_max":1438,"o":"m 57 0 m 747 99 q 756 89 756 99 q 750 38 756 68 q 719 3 746 14 q 667 -8 692 -8 q 542 128 542 -8 l 542 142 q 442 28 500 64 q 318 -8 385 -8 q 199 19 258 -8 q 99 113 140 46 q 57 292 57 179 q 100 521 57 419 q 222 678 143 622 q 406 735 301 735 q 594 672 519 735 l 632 1014 q 648 1038 633 1031 q 690 1044 663 1044 l 696 1044 q 737 1037 725 1044 q 749 1014 749 1029 q 697 530 735 885 q 660 149 660 175 q 673 101 660 111 q 710 92 686 92 q 731 95 719 92 q 747 99 742 99 m 585 581 q 422 633 518 633 q 235 539 290 633 q 179 300 179 444 q 221 140 179 186 q 344 93 263 93 q 460 147 401 93 q 558 325 518 201 l 585 581 m 1417 726 q 1431 704 1425 726 q 1438 660 1438 682 q 1432 640 1438 646 l 971 100 l 1353 100 q 1372 90 1367 100 q 1376 63 1376 81 q 1342 0 1376 0 l 828 0 q 813 22 821 0 q 804 64 804 43 q 811 86 804 79 l 1274 626 l 918 626 q 899 636 904 626 q 894 664 894 646 q 929 726 894 726 l 1417 726 m 1331 1006 q 1361 986 1361 1006 q 1351 961 1361 975 l 1258 839 q 1192 808 1236 808 l 1157 808 q 1096 839 1113 808 l 1032 961 q 1025 986 1025 974 q 1060 1006 1028 1006 l 1063 1006 q 1108 988 1090 1006 l 1182 885 l 1281 988 q 1328 1006 1303 1006 l 1331 1006 z "},"e":{"ha":749,"x_min":64,"x_max":679,"o":"m 304 296 q 185 306 236 296 l 185 292 q 237 137 185 182 q 388 92 289 92 q 489 107 446 92 q 574 146 532 122 q 603 160 597 160 q 610 157 608 160 q 613 143 613 154 q 606 81 613 117 q 558 31 600 50 q 465 1 517 11 q 378 -8 414 -8 q 64 279 64 -8 q 158 608 64 481 q 446 735 253 735 q 580 705 528 735 q 656 633 632 675 q 679 550 679 590 q 572 356 679 417 q 304 296 465 296 m 433 635 q 192 396 225 635 l 290 396 q 468 422 378 396 q 558 539 558 449 q 524 607 558 579 q 433 635 490 635 z "},"é":{"ha":749,"x_min":64,"x_max":679,"o":"m 64 0 m 304 296 q 185 306 236 296 l 185 292 q 237 137 185 182 q 388 92 289 92 q 489 107 446 92 q 574 146 532 122 q 603 160 597 160 q 610 157 608 160 q 613 143 613 154 q 606 81 613 117 q 558 31 600 50 q 465 1 517 11 q 378 -8 414 -8 q 64 279 64 -8 q 158 608 64 481 q 446 735 253 735 q 580 705 528 735 q 656 633 632 675 q 679 550 679 590 q 572 356 679 417 q 304 296 465 296 m 433 635 q 192 396 225 635 l 290 396 q 468 422 378 396 q 558 539 558 449 q 524 607 558 579 q 433 635 490 635 m 564 1017 q 629 1000 629 1017 q 615 976 629 992 q 539 894 601 960 q 482 838 539 894 q 450 819 469 825 q 408 813 431 813 q 378 825 378 813 q 397 865 378 835 q 474 981 415 896 q 509 1008 488 1000 q 564 1017 531 1017 z "},"ĕ":{"ha":749,"x_min":64,"x_max":679,"o":"m 64 0 m 304 296 q 185 306 236 296 l 185 292 q 237 137 185 182 q 388 92 289 92 q 489 107 446 92 q 574 146 532 122 q 603 160 597 160 q 610 157 608 160 q 613 143 613 154 q 606 81 613 117 q 558 31 600 50 q 465 1 517 11 q 378 -8 414 -8 q 64 279 64 -8 q 158 608 64 481 q 446 735 253 735 q 580 705 528 735 q 656 633 632 675 q 679 550 679 590 q 572 356 679 417 q 304 296 465 296 m 433 635 q 192 396 225 635 l 290 396 q 468 422 378 396 q 558 539 558 449 q 524 607 558 579 q 433 635 490 635 m 635 993 q 654 976 654 993 q 621 888 654 925 q 538 831 588 850 q 438 813 488 813 q 306 850 361 813 q 251 956 251 888 q 256 984 251 975 q 275 993 261 993 q 290 989 286 993 q 297 976 294 985 q 303 958 299 967 q 354 917 315 931 q 447 904 393 904 q 542 917 501 904 q 601 958 583 931 q 610 977 607 968 q 619 990 614 986 q 635 993 624 993 z "},"ě":{"ha":749,"x_min":64,"x_max":679,"o":"m 64 0 m 304 296 q 185 306 236 296 l 185 292 q 237 137 185 182 q 388 92 289 92 q 489 107 446 92 q 574 146 532 122 q 603 160 597 160 q 610 157 608 160 q 613 143 613 154 q 606 81 613 117 q 558 31 600 50 q 465 1 517 11 q 378 -8 414 -8 q 64 279 64 -8 q 158 608 64 481 q 446 735 253 735 q 580 705 528 735 q 656 633 632 675 q 679 550 679 590 q 572 356 679 417 q 304 296 465 296 m 433 635 q 192 396 225 635 l 290 396 q 468 422 378 396 q 558 539 558 449 q 524 607 558 579 q 433 635 490 635 m 594 1006 q 625 986 625 1006 q 615 961 625 975 l 522 839 q 456 808 500 808 l 421 808 q 360 839 376 808 l 296 961 q 289 986 289 974 q 324 1006 292 1006 l 326 1006 q 372 988 354 1006 l 446 885 l 544 988 q 592 1006 567 1006 l 594 1006 z "},"ê":{"ha":749,"x_min":64,"x_max":679,"o":"m 64 0 m 304 296 q 185 306 236 296 l 185 292 q 237 137 185 182 q 388 92 289 92 q 489 107 446 92 q 574 146 532 122 q 603 160 597 160 q 610 157 608 160 q 613 143 613 154 q 606 81 613 117 q 558 31 600 50 q 465 1 517 11 q 378 -8 414 -8 q 64 279 64 -8 q 158 608 64 481 q 446 735 253 735 q 580 705 528 735 q 656 633 632 675 q 679 550 679 590 q 572 356 679 417 q 304 296 465 296 m 433 635 q 192 396 225 635 l 290 396 q 468 422 378 396 q 558 539 558 449 q 524 607 558 579 q 433 635 490 635 m 465 997 q 526 967 510 997 l 592 844 q 599 821 599 835 q 563 800 596 800 l 560 800 q 515 818 533 800 l 439 921 l 343 818 q 294 800 321 800 l 292 800 q 263 817 263 800 q 272 844 263 829 l 364 967 q 431 997 386 997 l 465 997 z "},"ế":{"ha":749,"x_min":64,"x_max":833,"o":"m 768 1196 q 833 1179 833 1196 q 819 1155 833 1171 q 743 1074 806 1139 q 686 1017 743 1074 q 654 998 674 1004 q 613 992 635 992 q 582 1004 582 992 q 601 1044 582 1014 q 678 1160 619 1075 q 713 1188 692 1179 q 768 1196 735 1196 m 303 800 q 274 817 274 800 q 283 844 274 829 l 375 967 q 442 997 397 997 l 476 997 q 524 967 510 997 l 582 844 q 589 821 589 835 q 553 800 586 800 l 550 800 q 506 818 515 800 l 450 921 l 354 818 q 306 800 332 800 l 303 800 m 446 735 q 580 705 528 735 q 656 633 632 675 q 679 550 679 590 q 572 356 679 417 q 304 296 465 296 q 185 306 236 296 l 185 292 q 237 137 185 182 q 388 92 289 92 q 489 107 446 92 q 574 146 532 122 q 603 160 597 160 q 610 157 608 160 q 613 143 613 154 q 606 81 613 117 q 558 31 600 50 q 465 1 517 11 q 378 -8 414 -8 q 64 279 64 -8 q 158 608 64 481 q 446 735 253 735 m 290 396 q 468 422 378 396 q 558 539 558 449 q 524 607 558 579 q 433 635 490 635 q 192 396 225 635 l 290 396 z "},"ệ":{"ha":749,"x_min":64,"x_max":679,"o":"m 64 0 m 304 296 q 185 306 236 296 l 185 292 q 237 137 185 182 q 388 92 289 92 q 489 107 446 92 q 574 146 532 122 q 603 160 597 160 q 610 157 608 160 q 613 143 613 154 q 606 81 613 117 q 558 31 600 50 q 465 1 517 11 q 378 -8 414 -8 q 64 279 64 -8 q 158 608 64 481 q 446 735 253 735 q 580 705 528 735 q 656 633 632 675 q 679 550 679 590 q 572 356 679 417 q 304 296 465 296 m 433 635 q 192 396 225 635 l 290 396 q 468 422 378 396 q 558 539 558 449 q 524 607 558 579 q 433 635 490 635 m 465 997 q 526 967 510 997 l 592 844 q 599 821 599 835 q 563 800 596 800 l 560 800 q 515 818 533 800 l 439 921 l 343 818 q 294 800 321 800 l 292 800 q 263 817 263 800 q 272 844 263 829 l 364 967 q 431 997 386 997 l 465 997 m 364 -111 q 405 -119 393 -111 q 417 -142 417 -126 l 410 -212 q 346 -243 406 -243 q 305 -235 317 -243 q 293 -212 293 -228 l 300 -142 q 364 -111 304 -111 z "},"ề":{"ha":749,"x_min":64,"x_max":703,"o":"m 622 1160 q 687 1044 671 1075 q 703 1004 703 1014 q 671 992 703 992 q 629 998 649 992 q 600 1017 610 1004 l 551 1071 q 482 1153 494 1136 q 469 1179 469 1169 q 487 1192 471 1189 q 536 1196 503 1196 q 590 1188 569 1196 q 622 1160 611 1179 m 303 800 q 274 817 274 800 q 283 844 274 829 l 375 967 q 442 997 397 997 l 476 997 q 524 967 510 997 l 582 844 q 589 821 589 835 q 553 800 586 800 l 550 800 q 506 818 515 800 l 450 921 l 354 818 q 306 800 332 800 l 303 800 m 446 735 q 580 705 528 735 q 656 633 632 675 q 679 550 679 590 q 572 356 679 417 q 304 296 465 296 q 185 306 236 296 l 185 292 q 237 137 185 182 q 388 92 289 92 q 489 107 446 92 q 574 146 532 122 q 603 160 597 160 q 610 157 608 160 q 613 143 613 154 q 606 81 613 117 q 558 31 600 50 q 465 1 517 11 q 378 -8 414 -8 q 64 279 64 -8 q 158 608 64 481 q 446 735 253 735 m 290 396 q 468 422 378 396 q 558 539 558 449 q 524 607 558 579 q 433 635 490 635 q 192 396 225 635 l 290 396 z "},"ể":{"ha":749,"x_min":64,"x_max":788,"o":"m 667 1221 q 749 1197 711 1221 q 788 1124 788 1174 q 759 1044 788 1081 q 695 984 731 1007 q 650 961 660 961 q 612 968 628 961 q 596 985 596 975 q 606 1005 596 994 q 633 1028 615 1015 q 679 1068 663 1049 q 696 1115 696 1088 q 683 1141 696 1132 q 649 1150 669 1150 q 602 1141 618 1150 q 582 1132 586 1132 q 564 1149 574 1132 q 554 1178 554 1167 q 592 1206 554 1192 q 667 1221 631 1221 m 303 800 q 274 817 274 800 q 283 844 274 829 l 375 967 q 442 997 397 997 l 476 997 q 524 967 510 997 l 582 844 q 589 821 589 835 q 553 800 586 800 l 550 800 q 506 818 515 800 l 450 921 l 354 818 q 306 800 332 800 l 303 800 m 446 735 q 580 705 528 735 q 656 633 632 675 q 679 550 679 590 q 572 356 679 417 q 304 296 465 296 q 185 306 236 296 l 185 292 q 237 137 185 182 q 388 92 289 92 q 489 107 446 92 q 574 146 532 122 q 603 160 597 160 q 610 157 608 160 q 613 143 613 154 q 606 81 613 117 q 558 31 600 50 q 465 1 517 11 q 378 -8 414 -8 q 64 279 64 -8 q 158 608 64 481 q 446 735 253 735 m 290 396 q 468 422 378 396 q 558 539 558 449 q 524 607 558 579 q 433 635 490 635 q 192 396 225 635 l 290 396 z "},"ễ":{"ha":749,"x_min":64,"x_max":710,"o":"m 694 1215 q 710 1199 710 1208 q 704 1179 710 1196 q 656 1107 683 1129 q 589 1085 628 1085 q 532 1093 561 1085 q 463 1118 503 1101 q 406 1138 428 1132 q 365 1144 383 1144 q 338 1135 350 1144 q 313 1103 326 1126 q 290 1083 301 1083 q 276 1086 282 1083 l 264 1092 q 251 1108 251 1097 q 256 1126 251 1117 q 304 1200 276 1178 q 372 1222 332 1222 q 424 1215 397 1222 q 493 1190 450 1207 q 547 1171 519 1179 q 592 1163 574 1163 q 621 1172 608 1163 q 647 1203 633 1181 q 672 1222 658 1222 q 685 1219 681 1222 l 694 1215 m 292 800 q 263 817 263 800 q 272 844 263 829 l 364 967 q 431 997 386 997 l 465 997 q 526 967 510 997 l 592 844 q 599 821 599 835 q 563 800 596 800 l 560 800 q 515 818 533 800 l 439 921 l 343 818 q 294 800 321 800 l 292 800 m 446 735 q 580 705 528 735 q 656 633 632 675 q 679 550 679 590 q 572 356 679 417 q 304 296 465 296 q 185 306 236 296 l 185 292 q 237 137 185 182 q 388 92 289 92 q 489 107 446 92 q 574 146 532 122 q 603 160 597 160 q 610 157 608 160 q 613 143 613 154 q 606 81 613 117 q 558 31 600 50 q 465 1 517 11 q 378 -8 414 -8 q 64 279 64 -8 q 158 608 64 481 q 446 735 253 735 m 290 396 q 468 422 378 396 q 558 539 558 449 q 524 607 558 579 q 433 635 490 635 q 192 396 225 635 l 290 396 z "},"ë":{"ha":749,"x_min":64,"x_max":679,"o":"m 64 0 m 304 296 q 185 306 236 296 l 185 292 q 237 137 185 182 q 388 92 289 92 q 489 107 446 92 q 574 146 532 122 q 603 160 597 160 q 610 157 608 160 q 613 143 613 154 q 606 81 613 117 q 558 31 600 50 q 465 1 517 11 q 378 -8 414 -8 q 64 279 64 -8 q 158 608 64 481 q 446 735 253 735 q 580 705 528 735 q 656 633 632 675 q 679 550 679 590 q 572 356 679 417 q 304 296 465 296 m 433 635 q 192 396 225 635 l 290 396 q 468 422 378 396 q 558 539 558 449 q 524 607 558 579 q 433 635 490 635 m 354 975 q 395 967 383 975 q 407 944 407 960 l 400 874 q 336 843 396 843 q 295 851 307 843 q 283 874 283 858 l 290 944 q 354 975 294 975 m 554 975 q 595 967 583 975 q 607 944 607 960 l 600 874 q 536 843 596 843 q 495 851 507 843 q 483 874 483 858 l 490 944 q 554 975 493 975 z "},"ė":{"ha":749,"x_min":64,"x_max":679,"o":"m 64 0 m 304 296 q 185 306 236 296 l 185 292 q 237 137 185 182 q 388 92 289 92 q 489 107 446 92 q 574 146 532 122 q 603 160 597 160 q 610 157 608 160 q 613 143 613 154 q 606 81 613 117 q 558 31 600 50 q 465 1 517 11 q 378 -8 414 -8 q 64 279 64 -8 q 158 608 64 481 q 446 735 253 735 q 580 705 528 735 q 656 633 632 675 q 679 550 679 590 q 572 356 679 417 q 304 296 465 296 m 433 635 q 192 396 225 635 l 290 396 q 468 422 378 396 q 558 539 558 449 q 524 607 558 579 q 433 635 490 635 m 454 975 q 495 967 483 975 q 507 944 507 960 l 500 874 q 436 843 496 843 q 395 851 407 843 q 383 874 383 858 l 390 944 q 454 975 394 975 z "},"ẹ":{"ha":749,"x_min":64,"x_max":679,"o":"m 64 0 m 304 296 q 185 306 236 296 l 185 292 q 237 137 185 182 q 388 92 289 92 q 489 107 446 92 q 574 146 532 122 q 603 160 597 160 q 610 157 608 160 q 613 143 613 154 q 606 81 613 117 q 558 31 600 50 q 465 1 517 11 q 378 -8 414 -8 q 64 279 64 -8 q 158 608 64 481 q 446 735 253 735 q 580 705 528 735 q 656 633 632 675 q 679 550 679 590 q 572 356 679 417 q 304 296 465 296 m 433 635 q 192 396 225 635 l 290 396 q 468 422 378 396 q 558 539 558 449 q 524 607 558 579 q 433 635 490 635 m 364 -111 q 405 -119 393 -111 q 417 -142 417 -126 l 410 -212 q 346 -243 406 -243 q 305 -235 317 -243 q 293 -212 293 -228 l 300 -142 q 364 -111 304 -111 z "},"è":{"ha":749,"x_min":64,"x_max":679,"o":"m 64 0 m 304 296 q 185 306 236 296 l 185 292 q 237 137 185 182 q 388 92 289 92 q 489 107 446 92 q 574 146 532 122 q 603 160 597 160 q 610 157 608 160 q 613 143 613 154 q 606 81 613 117 q 558 31 600 50 q 465 1 517 11 q 378 -8 414 -8 q 64 279 64 -8 q 158 608 64 481 q 446 735 253 735 q 580 705 528 735 q 656 633 632 675 q 679 550 679 590 q 572 356 679 417 q 304 296 465 296 m 433 635 q 192 396 225 635 l 290 396 q 468 422 378 396 q 558 539 558 449 q 524 607 558 579 q 433 635 490 635 m 332 1017 q 386 1008 365 1017 q 418 981 407 1000 q 483 865 467 896 q 499 825 499 835 q 467 813 499 813 q 425 819 444 813 q 396 838 406 825 l 347 892 q 278 974 290 957 q 265 1000 265 990 q 283 1013 267 1010 q 332 1017 299 1017 z "},"ẻ":{"ha":749,"x_min":64,"x_max":679,"o":"m 64 0 m 304 296 q 185 306 236 296 l 185 292 q 237 137 185 182 q 388 92 289 92 q 489 107 446 92 q 574 146 532 122 q 603 160 597 160 q 610 157 608 160 q 613 143 613 154 q 606 81 613 117 q 558 31 600 50 q 465 1 517 11 q 378 -8 414 -8 q 64 279 64 -8 q 158 608 64 481 q 446 735 253 735 q 580 705 528 735 q 656 633 632 675 q 679 550 679 590 q 572 356 679 417 q 304 296 465 296 m 433 635 q 192 396 225 635 l 290 396 q 468 422 378 396 q 558 539 558 449 q 524 607 558 579 q 433 635 490 635 m 492 936 q 478 962 492 953 q 444 971 465 971 q 398 962 414 971 q 378 953 382 953 q 360 970 369 953 q 350 999 350 988 q 388 1027 350 1013 q 463 1042 426 1042 q 545 1018 507 1042 q 583 944 583 994 q 555 865 583 901 q 491 805 526 828 q 446 782 456 782 q 408 789 424 782 q 392 806 392 796 q 401 826 392 815 q 429 849 411 836 q 475 889 458 869 q 492 936 492 908 z "},"ē":{"ha":749,"x_min":64,"x_max":679,"o":"m 64 0 m 304 296 q 185 306 236 296 l 185 292 q 237 137 185 182 q 388 92 289 92 q 489 107 446 92 q 574 146 532 122 q 603 160 597 160 q 610 157 608 160 q 613 143 613 154 q 606 81 613 117 q 558 31 600 50 q 465 1 517 11 q 378 -8 414 -8 q 64 279 64 -8 q 158 608 64 481 q 446 735 253 735 q 580 705 528 735 q 656 633 632 675 q 679 550 679 590 q 572 356 679 417 q 304 296 465 296 m 433 635 q 192 396 225 635 l 290 396 q 468 422 378 396 q 558 539 558 449 q 524 607 558 579 q 433 635 490 635 m 593 949 q 612 940 607 949 q 617 913 617 931 q 582 850 617 850 l 268 850 q 249 860 254 850 q 244 888 244 869 q 279 949 244 949 l 593 949 z "},"ę":{"ha":749,"x_min":64,"x_max":679,"o":"m 631 -132 q 639 -150 639 -132 q 605 -233 639 -211 q 515 -254 571 -254 q 397 -217 429 -254 q 365 -131 365 -179 q 376 -68 365 -106 q 408 -7 386 -31 q 378 -8 396 -8 q 64 279 64 -8 q 158 608 64 481 q 446 735 253 735 q 580 705 528 735 q 656 633 632 675 q 679 550 679 590 q 572 356 679 417 q 304 296 465 296 q 185 306 236 296 l 185 292 q 237 137 185 182 q 388 92 289 92 q 489 107 446 92 q 574 146 532 122 q 603 160 597 160 q 610 157 608 160 q 613 143 613 154 q 606 81 613 117 q 488 6 597 32 l 488 3 q 476 -33 488 -6 q 461 -97 461 -76 q 485 -145 461 -133 q 542 -157 508 -157 q 598 -144 569 -157 q 631 -132 626 -132 m 433 635 q 192 396 225 635 l 290 396 q 468 422 378 396 q 558 539 558 449 q 524 607 558 579 q 433 635 490 635 z "},"ẽ":{"ha":749,"x_min":64,"x_max":699,"o":"m 64 0 m 304 296 q 185 306 236 296 l 185 292 q 237 137 185 182 q 388 92 289 92 q 489 107 446 92 q 574 146 532 122 q 603 160 597 160 q 610 157 608 160 q 613 143 613 154 q 606 81 613 117 q 558 31 600 50 q 465 1 517 11 q 378 -8 414 -8 q 64 279 64 -8 q 158 608 64 481 q 446 735 253 735 q 580 705 528 735 q 656 633 632 675 q 679 550 679 590 q 572 356 679 417 q 304 296 465 296 m 433 635 q 192 396 225 635 l 290 396 q 468 422 378 396 q 558 539 558 449 q 524 607 558 579 q 433 635 490 635 m 328 958 q 386 951 357 958 q 463 926 415 943 q 526 906 503 913 q 569 899 549 899 q 603 908 589 899 q 631 939 617 917 q 658 958 644 958 q 672 956 667 958 l 683 951 q 699 935 699 946 q 693 915 699 926 q 640 843 671 865 q 567 821 610 821 q 428 854 517 821 q 365 874 389 868 q 321 881 342 881 q 290 872 303 881 q 263 839 278 863 q 249 824 254 828 q 238 819 244 819 q 224 822 229 819 l 210 828 q 196 844 196 833 q 200 863 196 853 q 253 936 222 914 q 328 958 285 958 z "},"f":{"ha":451,"x_min":83,"x_max":485,"o":"m 386 1050 q 485 1007 485 1050 q 472 967 485 993 q 449 940 460 940 q 431 945 446 940 q 386 950 417 950 q 329 931 350 950 q 303 853 308 911 l 290 726 l 411 726 q 428 721 424 726 q 433 700 433 715 q 428 675 433 693 q 408 642 422 657 q 371 626 394 626 l 279 626 l 217 28 q 158 -3 213 -3 l 153 -3 q 112 5 124 -3 q 100 28 100 13 l 163 626 l 107 626 q 88 636 93 626 q 83 664 83 646 q 118 726 83 726 l 174 726 l 188 867 q 386 1050 206 1050 z "},"g":{"ha":758,"x_min":57,"x_max":694,"o":"m 660 729 q 687 722 679 729 q 694 700 694 715 l 635 138 q 576 -121 618 -26 q 467 -255 535 -215 q 296 -294 399 -294 q 174 -279 229 -294 q 88 -240 119 -264 q 57 -196 57 -217 q 76 -119 57 -119 q 110 -140 81 -119 q 186 -178 140 -161 q 296 -194 232 -194 q 453 -114 399 -194 q 521 150 507 -33 q 422 36 479 72 q 297 0 364 0 q 188 26 243 0 q 96 118 133 53 q 58 292 58 183 q 101 522 58 421 q 223 678 144 622 q 406 735 301 735 q 589 660 507 735 q 613 713 601 697 q 651 729 625 729 l 660 729 m 557 510 q 568 579 560 535 q 417 633 496 633 q 233 540 286 633 q 179 300 179 446 q 219 148 179 194 q 324 101 258 101 q 440 157 381 101 q 539 339 499 213 l 557 510 z "},"ğ":{"ha":758,"x_min":57,"x_max":694,"o":"m 57 0 m 660 729 q 687 722 679 729 q 694 700 694 715 l 635 138 q 576 -121 618 -26 q 467 -255 535 -215 q 296 -294 399 -294 q 174 -279 229 -294 q 88 -240 119 -264 q 57 -196 57 -217 q 76 -119 57 -119 q 110 -140 81 -119 q 186 -178 140 -161 q 296 -194 232 -194 q 453 -114 399 -194 q 521 150 507 -33 q 422 36 479 72 q 297 0 364 0 q 188 26 243 0 q 96 118 133 53 q 58 292 58 183 q 101 522 58 421 q 223 678 144 622 q 406 735 301 735 q 589 660 507 735 q 613 713 601 697 q 651 729 625 729 l 660 729 m 557 510 q 568 579 560 535 q 417 633 496 633 q 233 540 286 633 q 179 300 179 446 q 219 148 179 194 q 324 101 258 101 q 440 157 381 101 q 539 339 499 213 l 557 510 m 610 993 q 629 976 629 993 q 596 888 629 925 q 513 831 563 850 q 413 813 463 813 q 281 850 336 813 q 226 956 226 888 q 231 984 226 975 q 250 993 236 993 q 265 989 261 993 q 272 976 269 985 q 278 958 274 967 q 329 917 290 931 q 422 904 368 904 q 517 917 476 904 q 576 958 558 931 q 585 977 582 968 q 594 990 589 986 q 610 993 599 993 z "},"ĝ":{"ha":758,"x_min":57,"x_max":694,"o":"m 57 0 m 660 729 q 687 722 679 729 q 694 700 694 715 l 635 138 q 576 -121 618 -26 q 467 -255 535 -215 q 296 -294 399 -294 q 174 -279 229 -294 q 88 -240 119 -264 q 57 -196 57 -217 q 76 -119 57 -119 q 110 -140 81 -119 q 186 -178 140 -161 q 296 -194 232 -194 q 453 -114 399 -194 q 521 150 507 -33 q 422 36 479 72 q 297 0 364 0 q 188 26 243 0 q 96 118 133 53 q 58 292 58 183 q 101 522 58 421 q 223 678 144 622 q 406 735 301 735 q 589 660 507 735 q 613 713 601 697 q 651 729 625 729 l 660 729 m 557 510 q 568 579 560 535 q 417 633 496 633 q 233 540 286 633 q 179 300 179 446 q 219 148 179 194 q 324 101 258 101 q 440 157 381 101 q 539 339 499 213 l 557 510 m 440 997 q 501 967 485 997 l 567 844 q 574 821 574 835 q 538 800 571 800 l 535 800 q 490 818 508 800 l 414 921 l 318 818 q 269 800 296 800 l 267 800 q 238 817 238 800 q 247 844 238 829 l 339 967 q 406 997 361 997 l 440 997 z "},"ģ":{"ha":758,"x_min":57,"x_max":694,"o":"m 57 0 m 660 729 q 687 722 679 729 q 694 700 694 715 l 635 138 q 576 -121 618 -26 q 467 -255 535 -215 q 296 -294 399 -294 q 174 -279 229 -294 q 88 -240 119 -264 q 57 -196 57 -217 q 76 -119 57 -119 q 110 -140 81 -119 q 186 -178 140 -161 q 296 -194 232 -194 q 453 -114 399 -194 q 521 150 507 -33 q 422 36 479 72 q 297 0 364 0 q 188 26 243 0 q 96 118 133 53 q 58 292 58 183 q 101 522 58 421 q 223 678 144 622 q 406 735 301 735 q 589 660 507 735 q 613 713 601 697 q 651 729 625 729 l 660 729 m 557 510 q 568 579 560 535 q 417 633 496 633 q 233 540 286 633 q 179 300 179 446 q 219 148 179 194 q 324 101 258 101 q 440 157 381 101 q 539 339 499 213 l 557 510 m 403 813 q 365 823 378 813 q 351 851 351 833 q 383 940 351 889 q 455 1030 414 992 q 518 1068 496 1068 q 544 1063 532 1068 q 556 1047 556 1058 q 547 1019 556 1035 q 526 986 538 1003 q 490 920 503 949 q 476 857 476 892 q 460 825 476 838 q 415 813 443 813 l 403 813 z "},"ġ":{"ha":758,"x_min":57,"x_max":694,"o":"m 57 0 m 660 729 q 687 722 679 729 q 694 700 694 715 l 635 138 q 576 -121 618 -26 q 467 -255 535 -215 q 296 -294 399 -294 q 174 -279 229 -294 q 88 -240 119 -264 q 57 -196 57 -217 q 76 -119 57 -119 q 110 -140 81 -119 q 186 -178 140 -161 q 296 -194 232 -194 q 453 -114 399 -194 q 521 150 507 -33 q 422 36 479 72 q 297 0 364 0 q 188 26 243 0 q 96 118 133 53 q 58 292 58 183 q 101 522 58 421 q 223 678 144 622 q 406 735 301 735 q 589 660 507 735 q 613 713 601 697 q 651 729 625 729 l 660 729 m 557 510 q 568 579 560 535 q 417 633 496 633 q 233 540 286 633 q 179 300 179 446 q 219 148 179 194 q 324 101 258 101 q 440 157 381 101 q 539 339 499 213 l 557 510 m 429 975 q 470 967 458 975 q 482 944 482 960 l 475 874 q 411 843 471 843 q 370 851 382 843 q 358 874 358 858 l 365 944 q 429 975 369 975 z "},"h":{"ha":785,"x_min":75,"x_max":733,"o":"m 243 1044 q 284 1037 272 1044 q 296 1014 296 1029 l 251 600 q 494 735 351 735 q 634 686 590 735 q 678 554 678 638 q 671 481 676 532 q 660 368 665 431 q 638 149 638 171 q 651 101 638 111 q 688 92 664 92 q 708 95 697 92 q 725 99 719 99 q 733 89 733 99 q 728 38 733 68 q 697 3 724 14 q 644 -8 669 -8 q 519 128 519 -8 q 543 371 519 158 q 558 526 558 511 q 453 633 558 633 q 335 583 396 633 q 232 413 274 532 l 192 28 q 174 6 190 14 q 133 -3 158 -3 l 128 -3 q 75 26 75 -3 l 179 1014 q 195 1038 181 1031 q 238 1044 210 1044 l 243 1044 z "},"ħ":{"ha":785,"x_min":75,"x_max":733,"o":"m 725 99 q 733 89 733 99 q 728 38 733 68 q 697 3 724 14 q 644 -8 669 -8 q 519 128 519 -8 q 543 371 519 158 q 558 526 558 511 q 453 633 558 633 q 335 583 396 633 q 232 413 274 532 l 192 28 q 174 6 190 14 q 133 -3 158 -3 l 128 -3 q 75 26 75 -3 l 160 831 l 103 831 q 84 840 89 831 q 79 868 79 850 q 114 929 79 929 l 171 929 l 179 1014 q 195 1038 181 1031 q 238 1044 210 1044 l 243 1044 q 284 1037 272 1044 q 296 1014 296 1029 l 286 929 l 428 929 q 447 920 442 929 q 451 893 451 911 q 417 831 451 831 l 276 831 l 251 600 q 494 735 351 735 q 634 686 590 735 q 678 554 678 638 q 671 481 676 532 q 660 368 665 431 q 638 149 638 171 q 651 101 638 111 q 688 92 664 92 q 708 95 697 92 q 725 99 719 99 z "},"ĥ":{"ha":785,"x_min":75,"x_max":733,"o":"m 75 0 m 243 1044 q 284 1037 272 1044 q 296 1014 296 1029 l 251 600 q 494 735 351 735 q 634 686 590 735 q 678 554 678 638 q 671 481 676 532 q 660 368 665 431 q 638 149 638 171 q 651 101 638 111 q 688 92 664 92 q 708 95 697 92 q 725 99 719 99 q 733 89 733 99 q 728 38 733 68 q 697 3 724 14 q 644 -8 669 -8 q 519 128 519 -8 q 543 371 519 158 q 558 526 558 511 q 453 633 558 633 q 335 583 396 633 q 232 413 274 532 l 192 28 q 174 6 190 14 q 133 -3 158 -3 l 128 -3 q 75 26 75 -3 l 179 1014 q 195 1038 181 1031 q 238 1044 210 1044 l 243 1044 m 283 1285 q 344 1254 328 1285 l 410 1132 q 417 1108 417 1122 q 381 1088 414 1088 l 378 1088 q 333 1106 351 1088 l 257 1208 l 161 1106 q 113 1088 139 1088 l 110 1088 q 81 1104 81 1088 q 90 1132 81 1117 l 182 1254 q 249 1285 204 1285 l 283 1285 z "},"ḥ":{"ha":785,"x_min":75,"x_max":733,"o":"m 75 0 m 243 1044 q 284 1037 272 1044 q 296 1014 296 1029 l 251 600 q 494 735 351 735 q 634 686 590 735 q 678 554 678 638 q 671 481 676 532 q 660 368 665 431 q 638 149 638 171 q 651 101 638 111 q 688 92 664 92 q 708 95 697 92 q 725 99 719 99 q 733 89 733 99 q 728 38 733 68 q 697 3 724 14 q 644 -8 669 -8 q 519 128 519 -8 q 543 371 519 158 q 558 526 558 511 q 453 633 558 633 q 335 583 396 633 q 232 413 274 532 l 192 28 q 174 6 190 14 q 133 -3 158 -3 l 128 -3 q 75 26 75 -3 l 179 1014 q 195 1038 181 1031 q 238 1044 210 1044 l 243 1044 m 365 -111 q 406 -119 394 -111 q 418 -142 418 -126 l 411 -212 q 347 -243 407 -243 q 306 -235 318 -243 q 294 -212 294 -228 l 301 -142 q 365 -111 306 -111 z "},"i":{"ha":368,"x_min":88,"x_max":300,"o":"m 247 1044 q 288 1038 276 1044 q 300 1014 300 1031 l 292 932 q 239 901 292 901 l 222 901 q 178 908 193 901 q 164 932 164 914 l 172 1014 q 188 1038 174 1031 q 231 1044 203 1044 l 247 1044 m 208 729 q 249 722 238 729 q 261 699 261 714 q 229 397 253 618 q 206 149 206 175 q 218 101 206 111 q 254 92 231 92 q 275 95 264 92 q 292 99 286 99 q 300 89 300 99 q 294 38 300 68 q 263 3 290 14 q 211 -8 236 -8 q 88 124 88 -8 q 115 431 88 163 q 144 699 142 699 q 160 722 146 715 q 203 729 175 729 l 208 729 z "},"ı":{"ha":368,"x_min":88,"x_max":300,"o":"m 208 729 q 249 722 238 729 q 261 699 261 714 q 229 397 253 618 q 206 149 206 175 q 218 101 206 111 q 254 92 231 92 q 275 95 264 92 q 292 99 286 99 q 300 89 300 99 q 294 38 300 68 q 263 3 290 14 q 211 -8 236 -8 q 88 124 88 -8 q 115 431 88 163 q 144 699 142 699 q 160 722 146 715 q 203 729 175 729 l 208 729 z "},"í":{"ha":368,"x_min":88,"x_max":401,"o":"m 88 0 m 208 729 q 249 722 238 729 q 261 699 261 714 q 229 397 253 618 q 206 149 206 175 q 218 101 206 111 q 254 92 231 92 q 275 95 264 92 q 292 99 286 99 q 300 89 300 99 q 294 38 300 68 q 263 3 290 14 q 211 -8 236 -8 q 88 124 88 -8 q 115 431 88 163 q 144 699 142 699 q 160 722 146 715 q 203 729 175 729 l 208 729 m 336 1017 q 401 1000 401 1017 q 388 976 401 992 q 311 894 374 960 q 254 838 311 894 q 222 819 242 825 q 181 813 203 813 q 150 825 150 813 q 169 865 150 835 q 246 981 188 896 q 281 1008 260 1000 q 336 1017 303 1017 z "},"ĭ":{"ha":368,"x_min":24,"x_max":426,"o":"m 24 0 m 208 729 q 249 722 238 729 q 261 699 261 714 q 229 397 253 618 q 206 149 206 175 q 218 101 206 111 q 254 92 231 92 q 275 95 264 92 q 292 99 286 99 q 300 89 300 99 q 294 38 300 68 q 263 3 290 14 q 211 -8 236 -8 q 88 124 88 -8 q 115 431 88 163 q 144 699 142 699 q 160 722 146 715 q 203 729 175 729 l 208 729 m 407 993 q 426 976 426 993 q 393 888 426 925 q 310 831 360 850 q 210 813 260 813 q 78 850 133 813 q 24 956 24 888 q 28 984 24 975 q 47 993 33 993 q 63 989 58 993 q 69 976 67 985 q 75 958 71 967 q 126 917 88 931 q 219 904 165 904 q 315 917 274 904 q 374 958 356 931 q 383 977 379 968 q 391 990 386 986 q 407 993 396 993 z "},"î":{"ha":368,"x_min":35,"x_max":371,"o":"m 35 0 m 208 729 q 249 722 238 729 q 261 699 261 714 q 229 397 253 618 q 206 149 206 175 q 218 101 206 111 q 254 92 231 92 q 275 95 264 92 q 292 99 286 99 q 300 89 300 99 q 294 38 300 68 q 263 3 290 14 q 211 -8 236 -8 q 88 124 88 -8 q 115 431 88 163 q 144 699 142 699 q 160 722 146 715 q 203 729 175 729 l 208 729 m 238 997 q 299 967 282 997 l 364 844 q 371 821 371 835 q 335 800 368 800 l 332 800 q 288 818 306 800 l 211 921 l 115 818 q 67 800 93 800 l 64 800 q 35 817 35 800 q 44 844 35 829 l 136 967 q 203 997 158 997 l 238 997 z "},"ï":{"ha":368,"x_min":56,"x_max":379,"o":"m 56 0 m 208 729 q 249 722 238 729 q 261 699 261 714 q 229 397 253 618 q 206 149 206 175 q 218 101 206 111 q 254 92 231 92 q 275 95 264 92 q 292 99 286 99 q 300 89 300 99 q 294 38 300 68 q 263 3 290 14 q 211 -8 236 -8 q 88 124 88 -8 q 115 431 88 163 q 144 699 142 699 q 160 722 146 715 q 203 729 175 729 l 208 729 m 126 975 q 167 967 156 975 q 179 944 179 960 l 172 874 q 108 843 168 843 q 67 851 79 843 q 56 874 56 858 l 63 944 q 126 975 67 975 m 326 975 q 367 967 356 975 q 379 944 379 960 l 372 874 q 308 843 368 843 q 267 851 279 843 q 256 874 256 858 l 263 944 q 326 975 265 975 z "},"ị":{"ha":368,"x_min":72,"x_max":300,"o":"m 72 0 m 247 1044 q 288 1038 276 1044 q 300 1014 300 1031 l 292 932 q 239 901 292 901 l 222 901 q 178 908 193 901 q 164 932 164 914 l 172 1014 q 188 1038 174 1031 q 231 1044 203 1044 l 247 1044 m 208 729 q 249 722 238 729 q 261 699 261 714 q 229 397 253 618 q 206 149 206 175 q 218 101 206 111 q 254 92 231 92 q 275 95 264 92 q 292 99 286 99 q 300 89 300 99 q 294 38 300 68 q 263 3 290 14 q 211 -8 236 -8 q 88 124 88 -8 q 115 431 88 163 q 144 699 142 699 q 160 722 146 715 q 203 729 175 729 l 208 729 m 143 -111 q 184 -119 172 -111 q 196 -142 196 -126 l 189 -212 q 125 -243 185 -243 q 84 -235 96 -243 q 72 -212 72 -228 l 79 -142 q 143 -111 83 -111 z "},"ì":{"ha":368,"x_min":38,"x_max":300,"o":"m 38 0 m 208 729 q 249 722 238 729 q 261 699 261 714 q 229 397 253 618 q 206 149 206 175 q 218 101 206 111 q 254 92 231 92 q 275 95 264 92 q 292 99 286 99 q 300 89 300 99 q 294 38 300 68 q 263 3 290 14 q 211 -8 236 -8 q 88 124 88 -8 q 115 431 88 163 q 144 699 142 699 q 160 722 146 715 q 203 729 175 729 l 208 729 m 104 1017 q 158 1008 138 1017 q 190 981 179 1000 q 255 865 239 896 q 271 825 271 835 q 239 813 271 813 q 197 819 217 813 q 168 838 178 825 l 119 892 q 50 974 63 957 q 38 1000 38 990 q 55 1013 39 1010 q 104 1017 71 1017 z "},"ỉ":{"ha":368,"x_min":88,"x_max":356,"o":"m 88 0 m 208 729 q 249 722 238 729 q 261 699 261 714 q 229 397 253 618 q 206 149 206 175 q 218 101 206 111 q 254 92 231 92 q 275 95 264 92 q 292 99 286 99 q 300 89 300 99 q 294 38 300 68 q 263 3 290 14 q 211 -8 236 -8 q 88 124 88 -8 q 115 431 88 163 q 144 699 142 699 q 160 722 146 715 q 203 729 175 729 l 208 729 m 264 936 q 251 962 264 953 q 217 971 238 971 q 170 962 186 971 q 150 953 154 953 q 132 970 142 953 q 122 999 122 988 q 160 1027 122 1013 q 235 1042 199 1042 q 317 1018 279 1042 q 356 944 356 994 q 327 865 356 901 q 263 805 299 828 q 218 782 228 782 q 180 789 196 782 q 164 806 164 796 q 174 826 164 815 q 201 849 183 836 q 247 889 231 869 q 264 936 264 908 z "},"ĳ":{"ha":751,"x_min":88,"x_max":690,"o":"m 88 0 m 247 1044 q 288 1038 276 1044 q 300 1014 300 1031 l 292 932 q 239 901 292 901 l 222 901 q 178 908 193 901 q 164 932 164 914 l 172 1014 q 188 1038 174 1031 q 231 1044 203 1044 l 247 1044 m 208 729 q 249 722 238 729 q 261 699 261 714 q 229 397 253 618 q 206 149 206 175 q 218 101 206 111 q 254 92 231 92 q 275 95 264 92 q 292 99 286 99 q 300 89 300 99 q 294 38 300 68 q 263 3 290 14 q 211 -8 236 -8 q 88 124 88 -8 q 115 431 88 163 q 144 699 142 699 q 160 722 146 715 q 203 729 175 729 l 208 729 m 638 1044 q 678 1038 667 1044 q 690 1014 690 1031 l 682 932 q 629 901 682 901 l 613 901 q 569 908 583 901 q 554 932 554 914 l 563 1014 q 578 1038 564 1031 q 621 1044 593 1044 l 638 1044 m 599 729 q 640 722 628 729 q 651 699 651 714 l 567 -103 q 503 -253 556 -211 q 383 -294 451 -294 q 306 -278 336 -294 q 275 -237 275 -262 q 290 -171 275 -171 q 315 -183 294 -171 q 368 -194 335 -194 q 425 -172 404 -194 q 451 -92 446 -150 l 535 699 q 593 729 539 729 l 599 729 z "},"ī":{"ha":368,"x_min":17,"x_max":389,"o":"m 17 0 m 208 729 q 249 722 238 729 q 261 699 261 714 q 229 397 253 618 q 206 149 206 175 q 218 101 206 111 q 254 92 231 92 q 275 95 264 92 q 292 99 286 99 q 300 89 300 99 q 294 38 300 68 q 263 3 290 14 q 211 -8 236 -8 q 88 124 88 -8 q 115 431 88 163 q 144 699 142 699 q 160 722 146 715 q 203 729 175 729 l 208 729 m 365 949 q 384 940 379 949 q 389 913 389 931 q 354 850 389 850 l 40 850 q 22 860 26 850 q 17 888 17 869 q 51 949 17 949 l 365 949 z "},"į":{"ha":368,"x_min":88,"x_max":382,"o":"m 222 901 q 178 908 193 901 q 164 932 164 914 l 172 1014 q 188 1038 174 1031 q 231 1044 203 1044 l 247 1044 q 288 1038 276 1044 q 300 1014 300 1031 l 292 932 q 239 901 292 901 l 222 901 m 374 -132 q 382 -150 382 -132 q 348 -233 382 -211 q 258 -254 314 -254 q 140 -217 172 -254 q 108 -131 108 -179 q 121 -62 108 -103 q 158 0 133 -22 q 88 124 88 24 q 115 431 88 163 q 144 699 142 699 q 160 722 146 715 q 203 729 175 729 l 208 729 q 249 722 238 729 q 261 699 261 714 q 229 397 253 618 q 206 149 206 175 q 218 101 206 111 q 254 92 231 92 q 275 95 264 92 q 292 99 286 99 q 300 89 300 99 q 294 38 300 68 q 272 8 290 18 q 229 -7 253 -3 q 215 -47 226 -19 q 204 -97 204 -75 q 228 -145 204 -133 q 285 -157 251 -157 q 341 -144 313 -157 q 374 -132 369 -132 z "}}}
